<?xml version="1.0" encoding="UTF-8" standalone="no"?>
<!-- Created with Inkscape (http://www.inkscape.org/) -->

<svg
   width="146.31458mm"
   height="146.37469mm"
   viewBox="0 0 146.31458 146.37469"
   version="1.1"
   id="svg5"
   xml:space="preserve"
   inkscape:export-filename="inflation-station.svg"
   inkscape:export-xdpi="96"
   inkscape:export-ydpi="96"
   xmlns:inkscape="http://www.inkscape.org/namespaces/inkscape"
   xmlns:sodipodi="http://sodipodi.sourceforge.net/DTD/sodipodi-0.dtd"
   xmlns="http://www.w3.org/2000/svg"
   xmlns:svg="http://www.w3.org/2000/svg"><sodipodi:namedview
     id="namedview7"
     pagecolor="#ffffff"
     bordercolor="#000000"
     borderopacity="0.25"
     inkscape:showpageshadow="2"
     inkscape:pageopacity="0.0"
     inkscape:pagecheckerboard="0"
     inkscape:deskcolor="#d1d1d1"
     inkscape:document-units="mm"
     showgrid="true"><inkscape:grid
       type="xygrid"
       id="grid337" /></sodipodi:namedview><defs
     id="defs2" /><g
     inkscape:label="Calque 1"
     inkscape:groupmode="layer"
     id="layer1"
     transform="translate(-31.686459,-128.96771)"><path
       style="fill:#000000;stroke-width:0.264583"
       d="m 38.94381,275.05387 c -2.72541,-0.73727 -5.27123,-2.94314 -6.55345,-5.67836 l -0.7039,-1.50155 V 202.125 136.37604 l 0.71329,-1.52205 c 0.9979,-2.12938 3.03152,-4.19407 5.04871,-5.12583 l 1.64633,-0.76045 h 65.74896 65.74896 l 1.64633,0.76045 c 2.01719,0.93176 4.05081,2.99645 5.04871,5.12583 l 0.71329,1.52205 v 65.74896 65.74896 l -0.71329,1.52205 c -0.9979,2.12938 -3.03152,4.19407 -5.04871,5.12582 l -1.64633,0.76046 -65.21979,0.0494 c -51.09285,0.0387 -65.48174,-0.0215 -66.42911,-0.27778 z m 132.49692,-1.26982 c 2.08892,-0.78156 4.28051,-2.97315 5.06207,-5.06207 l 0.5722,-1.52933 V 202.125 137.05735 l -0.5722,-1.52933 c -0.78255,-2.09158 -2.9729,-4.28042 -5.06764,-5.06416 l -1.5349,-0.57428 -65.40273,0.0682 -65.40274,0.0682 -1.50881,0.74093 c -1.88919,0.92772 -3.71176,2.91812 -4.43009,4.83804 -0.54272,1.45055 -0.54339,1.53251 -0.54339,66.51999 0,64.77552 0.002,65.0741 0.53799,66.50556 0.60212,1.60929 2.17406,3.54433 3.59033,4.41964 2.15893,1.33428 -1.27111,1.26945 68.15915,1.28835 l 65.01143,0.0177 z m -126.6574,-1.54447 c -4.36692,-0.11802 -5.01043,-0.1942 -5.96712,-0.70637 -1.48631,-0.79572 -2.71599,-2.09795 -3.45538,-3.65925 l -0.62649,-1.32292 V 202.125 137.69896 l 0.61735,-1.32292 c 0.71445,-1.53097 2.39491,-3.15031 4.01115,-3.86525 1.09319,-0.48357 3.03246,-0.49842 65.47387,-0.50144 l 64.34731,-0.003 1.23351,0.54432 c 1.62761,0.71822 3.13437,2.19302 3.90839,3.82549 l 0.62724,1.32292 v 64.42604 64.42604 l -0.62724,1.32292 c -0.78315,1.65172 -2.277,3.10129 -3.9978,3.87928 l -1.32291,0.59811 -59.66354,0.0103 c -32.81495,0.006 -61.8662,-0.0493 -64.55834,-0.12204 z M 161.46458,202.125 V 145.50417 H 104.84375 48.22292 v 56.62083 56.62083 h 56.62083 56.62083 z"
       id="path35695"
       inkscape:export-filename=".\shop.svg"
       inkscape:export-xdpi="96"
       inkscape:export-ydpi="96"
       sodipodi:nodetypes="sscccsscccsscccsscssssscccsscccssscsscscsscccssccsscccssccccccccccccc" /><path
       style="fill:#0000fe;fill-opacity:1;stroke:none;stroke-width:2.4552;stroke-linecap:square;stroke-linejoin:miter;stroke-miterlimit:4;stroke-dasharray:none;stroke-opacity:0.992157"
       d="m 151.51781,1027.0249 c -6.04489,-1.4272 -10.45896,-4.9342 -15.42529,-12.2554 l -4.22244,-6.2246 V 764.04454 519.54415 l 3.82818,-6.03642 c 2.10551,-3.32003 6.30134,-7.67317 9.32407,-9.67365 l 5.49589,-3.63723 245.01622,-0.35716 245.01622,-0.35716 6.16933,3.91248 c 3.47071,2.20105 7.86665,6.58883 10.04949,10.03082 l 3.88013,6.11832 v 244.39286 244.39289 l -3.88013,6.1183 c -2.17042,3.4224 -6.57604,7.828 -9.99845,9.9984 l -6.11833,3.8802 -242.3736,-0.133 c -133.30547,-0.073 -244.34805,-0.5992 -246.76129,-1.1689 z M 611.27953,763.93701 V 548.91732 H 396.25984 181.24016 v 215.01969 215.01968 h 215.01968 215.01969 z"
       id="path35697"
       transform="scale(0.26458333)" /><path
       style="fill:#000000;stroke-width:0.69985"
       d="m 66.294493,243.06833 c -2.095178,-2.09519 -0.86446,-4.62253 8.758858,-17.9868 9.395021,-13.0472 9.632076,-13.30814 11.172982,-12.2985 2.390701,1.56645 5.487512,1.27531 7.638433,-0.7181 1.047462,-0.97075 2.731549,-1.74963 3.783058,-1.74963 1.051509,0 2.735566,0.77888 3.783036,1.74963 2.16039,2.00219 5.24963,2.28328 7.6693,0.69789 1.58235,-1.03681 1.74122,-0.86106 11.17301,12.36153 9.5397,13.37392 10.76957,15.90241 8.72797,17.94398 -1.2081,1.20813 -61.498534,1.20813 -62.706647,0 z m 14.416926,-3.49926 c 1.082615,-1.08259 1.082615,-4.23625 0,-5.31886 -0.461889,-0.46189 -1.658641,-0.83982 -2.659417,-0.83982 -1.000802,0 -2.197554,0.37793 -2.659443,0.83982 -1.082616,1.08261 -1.082616,4.23627 0,5.31886 1.082616,1.08261 4.236244,1.08261 5.31886,0 z m -4.059128,-2.65942 c 0,-0.93314 0.46657,-1.39971 1.399711,-1.39971 0.933114,0 1.399685,0.46657 1.399685,1.39971 0,0.93311 -0.466571,1.39968 -1.399685,1.39968 -0.933141,0 -1.399711,-0.46657 -1.399711,-1.39968 z m 43.250799,2.65942 c 0.46189,-0.46189 0.83982,-1.65864 0.83982,-2.65942 0,-1.0008 -0.37793,-2.19753 -0.83982,-2.65944 -0.46192,-0.46189 -1.65864,-0.83982 -2.65944,-0.83982 -1.00078,0 -2.19753,0.37793 -2.65942,0.83982 -1.08262,1.08261 -1.08262,4.23627 0,5.31886 1.08259,1.08261 4.23624,1.08261 5.31886,0 z m -4.05916,-2.65942 c 0,-0.93314 0.46658,-1.39971 1.39972,-1.39971 0.93314,0 1.39971,0.46657 1.39971,1.39971 0,0.93311 -0.46657,1.39968 -1.39971,1.39968 -0.93314,0 -1.39972,-0.46657 -1.39972,-1.39968 z m -15.53666,-0.13993 c 0.46189,-0.46188 0.83982,-1.65864 0.83982,-2.65944 0,-2.31283 -1.186438,-3.49924 -3.499266,-3.49924 -2.312855,0 -3.499264,1.18641 -3.499264,3.49924 0,1.0008 0.377932,2.19756 0.839821,2.65944 1.082616,1.08262 4.23627,1.08262 5.318889,0 z m -4.059157,-2.65944 c 0,-0.93311 0.46657,-1.39968 1.399711,-1.39968 0.933141,0 1.399711,0.46657 1.399711,1.39968 0,0.93314 -0.46657,1.39971 -1.399711,1.39971 -0.933141,0 -1.399711,-0.46657 -1.399711,-1.39971 z m -4.339059,-8.53816 c 0.461888,-0.46192 0.839821,-1.65865 0.839821,-2.65945 0,-2.31283 -1.186436,-3.49924 -3.499264,-3.49924 -2.312855,0 -3.499265,1.18641 -3.499265,3.49924 0,1.0008 0.377933,2.19753 0.839822,2.65945 1.082615,1.08261 4.23627,1.08261 5.318886,0 z M 87.8499,222.91267 c 0,-0.93314 0.46657,-1.39971 1.399711,-1.39971 0.93314,0 1.399711,0.46657 1.399711,1.39971 0,0.93314 -0.466571,1.39971 -1.399711,1.39971 -0.933141,0 -1.399711,-0.46657 -1.399711,-1.39971 z m 20.85558,2.65945 c 0.46189,-0.46192 0.83982,-1.65865 0.83982,-2.65945 0,-1.00077 -0.37793,-2.19753 -0.83982,-2.65941 -0.46191,-0.46192 -1.65867,-0.83983 -2.65944,-0.83983 -1.00081,0 -2.19753,0.37791 -2.65945,0.83983 -1.08261,1.08258 -1.08261,4.23624 0,5.31886 1.08262,1.08261 4.23627,1.08261 5.31889,0 z m -4.05915,-2.65945 c 0,-0.93314 0.46657,-1.39971 1.39971,-1.39971 0.93314,0 1.39971,0.46657 1.39971,1.39971 0,0.93314 -0.46657,1.39971 -1.39971,1.39971 -0.93314,0 -1.39971,-0.46657 -1.39971,-1.39971 z M 87.250042,210.78576 c -0.534337,-0.64385 -0.560656,-1.66351 -0.0857,-3.31966 0.37706,-1.3147 0.685559,-6.25039 0.685559,-10.96818 v -8.57779 h 1.969255 1.969255 l -0.300219,4.15031 c -0.26996,3.73211 -0.11903,4.33157 1.498188,5.94874 2.507614,2.50761 6.815276,2.50761 9.32286,0 1.61719,-1.61717 1.76818,-2.21663 1.49822,-5.94874 l -0.30022,-4.15031 h 1.96925 1.96926 v 8.57779 c 0,4.71779 0.3085,9.65348 0.68553,10.96818 0.47498,1.65615 0.44866,2.67581 -0.0857,3.31966 -1.23339,1.48612 -4.14734,1.08164 -5.91004,-0.82033 -2.271804,-2.4513 -6.70368,-2.4513 -8.975482,0 -1.762699,1.90197 -4.676681,2.30645 -5.910041,0.82033 z m 7.423413,-13.82362 c -1.934261,-1.1266 -1.616451,-6.38328 0.636121,-10.52197 1.023471,-1.88046 2.075668,-3.41901 2.338248,-3.41901 0.262659,0 1.314777,1.53855 2.338248,3.41901 2.127408,3.90875 2.468548,8.47064 0.761078,10.17811 -1.242408,1.24243 -4.239605,1.41211 -6.073695,0.34386 z m 32.732295,-10.64245 c -7.99552,-4.52843 -7.99552,-17.46535 0,-21.99377 3.80102,-2.15278 9.46763,-2.15278 13.26865,0 7.99554,4.52842 7.99554,17.46534 0,21.99377 -3.80102,2.15277 -9.46763,2.15277 -13.26865,0 z m 8.03403,-6.09793 v -3.49926 h 3.49924 c 3.03269,0 3.49927,-0.18648 3.49927,-1.39968 0,-1.2131 -0.46658,-1.39972 -3.49927,-1.39972 h -3.49924 v -3.49926 c 0,-3.03269 -0.18674,-3.49924 -1.39971,-3.49924 -1.21307,0 -1.39971,0.46655 -1.39971,3.49924 v 3.49926 h -3.49924 c -3.03269,0 -3.49926,0.18675 -3.49926,1.39972 0,1.21307 0.46657,1.39968 3.49926,1.39968 h 3.49924 v 3.49926 c 0,3.0327 0.18675,3.49927 1.39971,3.49927 1.21307,0 1.39971,-0.46657 1.39971,-3.49927 z m -53.188671,0.69985 v -4.19911 h 15.396715 15.396716 v 4.19911 4.1991 l -5.77377,-0.008 -5.77376,-0.008 -1.581113,-2.4408 c -0.869605,-1.34244 -1.890246,-2.44082 -2.268073,-2.44082 -0.377854,0 -1.398494,1.09838 -2.268073,2.44082 l -1.581113,2.4408 -5.773764,0.008 -5.773765,0.008 z"
       id="path36096" /></g></svg>
