<?xml version="1.0" encoding="UTF-8" standalone="no"?>
<!-- Created with Inkscape (http://www.inkscape.org/) -->

<svg
   width="146.31458mm"
   height="146.37469mm"
   viewBox="0 0 146.31458 146.37469"
   version="1.1"
   id="svg5"
   xml:space="preserve"
   inkscape:export-filename="inflation-station.svg"
   inkscape:export-xdpi="96"
   inkscape:export-ydpi="96"
   xmlns:inkscape="http://www.inkscape.org/namespaces/inkscape"
   xmlns:sodipodi="http://sodipodi.sourceforge.net/DTD/sodipodi-0.dtd"
   xmlns="http://www.w3.org/2000/svg"
   xmlns:svg="http://www.w3.org/2000/svg"><sodipodi:namedview
     id="namedview7"
     pagecolor="#ffffff"
     bordercolor="#000000"
     borderopacity="0.25"
     inkscape:showpageshadow="2"
     inkscape:pageopacity="0.0"
     inkscape:pagecheckerboard="0"
     inkscape:deskcolor="#d1d1d1"
     inkscape:document-units="mm"
     showgrid="true"><inkscape:grid
       type="xygrid"
       id="grid337" /></sodipodi:namedview><defs
     id="defs2" /><g
     inkscape:label="Calque 1"
     inkscape:groupmode="layer"
     id="layer1"
     transform="translate(-31.686459,-128.96771)"><path
       style="fill:#000000;stroke-width:0.264583"
       d="m 38.94381,275.05387 c -2.72541,-0.73727 -5.27123,-2.94314 -6.55345,-5.67836 l -0.7039,-1.50155 V 202.125 136.37604 l 0.71329,-1.52205 c 0.9979,-2.12938 3.03152,-4.19407 5.04871,-5.12583 l 1.64633,-0.76045 h 65.74896 65.74896 l 1.64633,0.76045 c 2.01719,0.93176 4.05081,2.99645 5.04871,5.12583 l 0.71329,1.52205 v 65.74896 65.74896 l -0.71329,1.52205 c -0.9979,2.12938 -3.03152,4.19407 -5.04871,5.12582 l -1.64633,0.76046 -65.21979,0.0494 c -51.09285,0.0387 -65.48174,-0.0215 -66.42911,-0.27778 z m 132.49692,-1.26982 c 2.08892,-0.78156 4.28051,-2.97315 5.06207,-5.06207 l 0.5722,-1.52933 V 202.125 137.05735 l -0.5722,-1.52933 c -0.78255,-2.09158 -2.9729,-4.28042 -5.06764,-5.06416 l -1.5349,-0.57428 -65.40273,0.0682 -65.40274,0.0682 -1.50881,0.74093 c -1.88919,0.92772 -3.71176,2.91812 -4.43009,4.83804 -0.54272,1.45055 -0.54339,1.53251 -0.54339,66.51999 0,64.77552 0.002,65.0741 0.53799,66.50556 0.60212,1.60929 2.17406,3.54433 3.59033,4.41964 2.15893,1.33428 -1.27111,1.26945 68.15915,1.28835 l 65.01143,0.0177 z m -126.6574,-1.54447 c -4.36692,-0.11802 -5.01043,-0.1942 -5.96712,-0.70637 -1.48631,-0.79572 -2.71599,-2.09795 -3.45538,-3.65925 l -0.62649,-1.32292 V 202.125 137.69896 l 0.61735,-1.32292 c 0.71445,-1.53097 2.39491,-3.15031 4.01115,-3.86525 1.09319,-0.48357 3.03246,-0.49842 65.47387,-0.50144 l 64.34731,-0.003 1.23351,0.54432 c 1.62761,0.71822 3.13437,2.19302 3.90839,3.82549 l 0.62724,1.32292 v 64.42604 64.42604 l -0.62724,1.32292 c -0.78315,1.65172 -2.277,3.10129 -3.9978,3.87928 l -1.32291,0.59811 -59.66354,0.0103 c -32.81495,0.006 -61.8662,-0.0493 -64.55834,-0.12204 z M 161.46458,202.125 V 145.50417 H 104.84375 48.22292 v 56.62083 56.62083 h 56.62083 56.62083 z"
       id="path35695"
       inkscape:export-filename=".\additive-fuel.svg"
       inkscape:export-xdpi="96"
       inkscape:export-ydpi="96"
       sodipodi:nodetypes="sscccsscccsscccsscssssscccsscccssscsscscsscccssccsscccssccccccccccccc" /><path
       style="fill:#0000fe;fill-opacity:1;stroke:none;stroke-width:2.4552;stroke-linecap:square;stroke-linejoin:miter;stroke-miterlimit:4;stroke-dasharray:none;stroke-opacity:0.992157"
       d="m 151.51781,1027.0249 c -6.04489,-1.4272 -10.45896,-4.9342 -15.42529,-12.2554 l -4.22244,-6.2246 V 764.04454 519.54415 l 3.82818,-6.03642 c 2.10551,-3.32003 6.30134,-7.67317 9.32407,-9.67365 l 5.49589,-3.63723 245.01622,-0.35716 245.01622,-0.35716 6.16933,3.91248 c 3.47071,2.20105 7.86665,6.58883 10.04949,10.03082 l 3.88013,6.11832 v 244.39286 244.39289 l -3.88013,6.1183 c -2.17042,3.4224 -6.57604,7.828 -9.99845,9.9984 l -6.11833,3.8802 -242.3736,-0.133 c -133.30547,-0.073 -244.34805,-0.5992 -246.76129,-1.1689 z M 611.27953,763.93701 V 548.91732 H 396.25984 181.24016 v 215.01969 215.01968 h 215.01968 215.01969 z"
       id="path35697"
       transform="scale(0.26458333)" /><g
       id="g36898"
       transform="matrix(1.7455505,0,0,1.7455505,-2.3614456,49.578175)"><path
         style="fill:#000000;stroke-width:0.264583"
         d="m 62.74602,110.85953 c -1.399241,-0.79249 -2.244373,-2.31059 -2.249999,-4.04164 -0.004,-1.22873 0.281699,-1.85183 3.457402,-7.540627 1.903965,-3.410671 3.928028,-7.044815 4.497916,-8.075875 l 1.036163,-1.874655 v -3.775692 c 0,-3.64139 -0.02353,-3.803654 -0.661459,-4.561791 -0.805135,-0.956849 -0.839307,-1.770953 -0.113088,-2.694191 l 0.54837,-0.69714 h 4.988676 4.988677 l 0.54837,0.69714 c 0.726219,0.923238 0.692047,1.737342 -0.113088,2.694191 -0.63793,0.758137 -0.661459,0.920401 -0.661459,4.561791 v 3.775692 l 1.036163,1.874655 c 0.569888,1.03106 2.593951,4.665204 4.497915,8.075875 3.175704,5.688797 3.461395,6.311897 3.457403,7.540627 -0.0056,1.73105 -0.850757,3.24915 -2.249998,4.04164 -1.043334,0.59091 -1.148292,0.59635 -11.503983,0.59635 -10.355691,0 -10.460647,-0.005 -11.503981,-0.59635 z m 21.161273,-0.97471 c 1.485741,-0.34286 2.513541,-1.54835 2.513541,-2.94811 0,-0.85583 -0.425548,-1.83946 -2.05052,-4.73971 -1.850873,-3.303419 -2.132307,-3.675248 -2.890519,-3.818922 -1.330243,-0.252069 -4.026545,0.299984 -6.320535,1.294096 -2.719782,1.178626 -5.054372,1.559316 -7.465562,1.217346 -1.008597,-0.14305 -1.999864,-0.32141 -2.202816,-0.39636 -0.596925,-0.22045 -3.411713,5.10242 -3.411713,6.45167 0,1.33302 1.040776,2.60978 2.385057,2.92584 1.281619,0.30133 18.145404,0.3136 19.443067,0.0142 z m -18.292564,-2.78509 c -0.09143,-0.23827 -0.04402,-0.55544 0.10537,-0.70483 0.431299,-0.43129 1.253861,-0.14061 1.253861,0.4431 0,0.67301 -1.118742,0.88844 -1.359231,0.26173 z m 2.640348,-0.0143 c -0.08842,-0.2304 -0.04771,-0.53197 0.09046,-0.67013 0.149704,-0.14971 3.130661,-0.2227 7.377319,-0.18066 6.926199,0.0686 7.126107,0.0854 7.126107,0.59972 0,0.51452 -0.199859,0.53112 -7.216563,0.59958 -6.381239,0.0623 -7.23517,0.0219 -7.377319,-0.34851 z m 6.111777,-8.872397 c 1.446716,-0.579842 3.53031,-1.185068 4.630208,-1.344946 1.099898,-0.159878 2.029998,-0.314929 2.06689,-0.344559 0.03689,-0.02963 -0.765351,-1.531812 -1.782763,-3.338184 l -1.84984,-3.284313 -0.0032,-4.148785 c -0.0031,-4.099908 -0.01019,-4.149781 -0.598486,-4.233333 -0.864104,-0.122722 -0.809961,-1.118845 0.06615,-1.216953 1.342903,-0.15038 1.852083,-0.34184 1.852083,-0.696411 0,-0.587941 -0.635771,-0.684725 -4.497917,-0.684725 -3.862145,0 -4.497916,0.09678 -4.497916,0.684725 0,0.354571 0.50918,0.546031 1.852083,0.696411 0.876107,0.09811 0.93025,1.094231 0.06615,1.216953 -0.588409,0.08357 -0.595323,0.132658 -0.596265,4.233333 l -9.52e-4,4.148785 -2.525677,4.462781 c -1.389122,2.454529 -2.482955,4.505501 -2.43074,4.557716 0.05221,0.05221 0.564119,0.211633 1.137566,0.354263 1.806934,0.449427 4.250736,0.08428 7.112608,-1.062758 z M 70.035872,96.21536 c -0.695741,-0.884491 -0.695741,-1.68998 0,-2.574471 0.774674,-0.984838 2.361919,-0.984838 3.136593,0 0.69574,0.884491 0.69574,1.68998 0,2.574471 -0.422978,0.537728 -0.781591,0.697139 -1.568297,0.697139 -0.786705,0 -1.145319,-0.159411 -1.568296,-0.697139 z m 2.097463,-1.287236 c 0,-0.220486 -0.235185,-0.396875 -0.529167,-0.396875 -0.293981,0 -0.529166,0.176389 -0.529166,0.396875 0,0.220486 0.235185,0.396875 0.529166,0.396875 0.293982,0 0.529167,-0.176389 0.529167,-0.396875 z m 4.064727,-1.05756 c -0.09143,-0.238269 -0.04402,-0.555442 0.10537,-0.704828 0.431298,-0.431299 1.253861,-0.140617 1.253861,0.443095 0,0.673013 -1.118742,0.888437 -1.359231,0.261733 z m -2.645834,-3.96875 c -0.09143,-0.238269 -0.04402,-0.555442 0.105371,-0.704828 0.431298,-0.431299 1.253861,-0.140617 1.253861,0.443096 0,0.673012 -1.118743,0.888436 -1.359232,0.261732 z"
         id="path36880" /><path
         style="fill:#000000;stroke-width:0.264583"
         d="M 44.842709,98.441928 C 44.01732,97.992997 34.401954,88.381272 33.976994,87.580328 33.768502,87.187372 33.597918,86.235242 33.597918,85.464484 v -1.401379 l 9.19427,-9.163243 c 8.401602,-8.37325 9.312475,-9.201524 10.565346,-9.607258 1.141519,-0.369673 2.281458,-0.430379 6.808523,-0.362579 l 5.437449,0.08144 0.864391,0.864392 0.864394,0.864393 0.08144,5.437448 c 0.0678,4.527065 0.0071,5.667005 -0.36258,6.808523 -0.405733,1.252871 -1.234008,2.163745 -9.607257,10.565347 l -9.163244,9.19427 -1.454385,-0.008 c -0.799912,-0.0044 -1.692511,-0.137562 -1.983552,-0.29586 z M 55.643665,88.228647 c 6.486815,-6.457363 8.584593,-8.70653 9.068957,-9.723437 0.587897,-1.234262 0.630299,-1.628775 0.632709,-5.886979 0.0034,-6.031518 0.410906,-5.624263 -5.619811,-5.616585 -4.001543,0.0051 -4.710806,0.07167 -5.754687,0.540152 -1.70679,0.765991 -18.256249,17.285937 -18.256249,18.223693 0,0.925011 9.928519,10.863676 10.852585,10.863676 0.483242,0 2.681243,-2.034304 9.076496,-8.40052 z m -10.602519,3.198209 c -0.181901,-0.0734 -0.330729,-0.421187 -0.330729,-0.772862 0,-0.456908 0.146825,-0.63941 0.514412,-0.63941 0.282927,0 0.848474,-0.290165 1.256771,-0.644811 0.700852,-0.608759 0.717106,-0.670466 0.290703,-1.103665 -0.42857,-0.435399 -0.531195,-0.434771 -2.007716,0.01228 -1.428752,0.432592 -1.621877,0.437101 -2.360552,0.05512 -0.897414,-0.46407 -1.133201,-0.895997 -1.133201,-2.075857 0,-0.945733 1.815943,-2.955527 2.541495,-2.812798 0.600103,0.118051 1.148143,1.038523 0.712928,1.197413 -0.731961,0.267229 -1.666923,1.213651 -1.666923,1.687355 0,0.613794 0.369061,0.636329 1.852083,0.113089 0.618675,-0.218282 1.359926,-0.396875 1.647224,-0.396875 0.709656,0 2.321526,1.659209 2.321526,2.389707 0,1.628243 -2.309651,3.527323 -3.638021,2.991314 z m 2.697643,-6.057725 c -1.975431,-3.6828 -2.162665,-4.19635 -1.723059,-4.726044 0.190839,-0.229947 0.600293,-0.409814 0.909896,-0.399705 0.665116,0.02172 6.571624,3.163947 6.699681,3.564193 0.04844,0.151406 -0.08328,0.508593 -0.292721,0.79375 -0.365059,0.497041 -0.412727,0.49971 -1.153428,0.06457 -0.762579,-0.447994 -0.782255,-0.443856 -1.512205,0.318048 -0.692869,0.723199 -0.717551,0.825116 -0.390843,1.613857 0.311933,0.753074 0.296579,0.880043 -0.14551,1.203306 -0.271832,0.198769 -0.584065,0.361397 -0.693852,0.361397 -0.109787,0 -0.873869,-1.257016 -1.697959,-2.79337 z m 1.945794,-1.228296 c 0.502151,-0.502151 0.388761,-0.693724 -0.756398,-1.277941 l -1.073899,-0.547862 0.610878,1.069613 c 0.669192,1.171719 0.752333,1.223276 1.219419,0.75619 z m 1.770498,-3.388886 c -2.194776,-2.203042 -2.590938,-2.722845 -2.357384,-3.093106 0.154404,-0.24478 0.424322,-0.492917 0.59982,-0.551416 0.175497,-0.0585 1.329,0.87939 2.563339,2.084199 l 2.244254,2.190561 0.869937,-0.843176 c 0.963613,-0.93397 1.625606,-1.073972 1.88477,-0.398601 0.119754,0.312071 -0.243691,0.864076 -1.219425,1.852083 -0.764513,0.77413 -1.515387,1.407508 -1.668609,1.407508 -0.153222,0 -1.465738,-1.191623 -2.916702,-2.648052 z m 3.635006,-3.508481 c -1.343194,-1.348802 -2.44217,-2.632451 -2.44217,-2.852553 0,-0.220102 0.708076,-1.100874 1.573503,-1.957271 1.342863,-1.328851 1.633728,-1.507103 1.984375,-1.216091 0.613575,0.509222 0.514993,0.811536 -0.652573,2.001199 l -1.063445,1.083571 0.66657,0.62621 0.66657,0.62621 0.647996,-0.608761 c 0.649596,-0.610264 1.46867,-0.59457 1.46867,0.02814 0,0.177089 -0.258879,0.597545 -0.575287,0.934346 l -0.575287,0.612365 0.62621,0.66657 0.626209,0.66657 1.083572,-1.063445 c 1.189663,-1.167566 1.491978,-1.266148 2.001198,-0.652573 0.291013,0.350647 0.11276,0.641511 -1.21609,1.984374 -0.856397,0.865427 -1.741757,1.573504 -1.967468,1.573504 -0.225711,0 -1.50936,-1.103565 -2.852553,-2.452367 z m 5.283663,-5.273466 c -0.711678,-0.711678 -0.157568,-1.799167 0.916733,-1.799167 0.784037,0 1.267021,0.868891 0.882433,1.5875 -0.314015,0.586743 -1.30724,0.703593 -1.799166,0.211667 z"
         id="path36894" /></g></g></svg>
