<?xml version="1.0" encoding="UTF-8" standalone="no"?>
<!-- Created with Inkscape (http://www.inkscape.org/) -->

<svg
   width="146.31458mm"
   height="146.37469mm"
   viewBox="0 0 146.31458 146.37469"
   version="1.1"
   id="svg5"
   xml:space="preserve"
   inkscape:export-filename="inflation-station.svg"
   inkscape:export-xdpi="96"
   inkscape:export-ydpi="96"
   xmlns:inkscape="http://www.inkscape.org/namespaces/inkscape"
   xmlns:sodipodi="http://sodipodi.sourceforge.net/DTD/sodipodi-0.dtd"
   xmlns="http://www.w3.org/2000/svg"
   xmlns:svg="http://www.w3.org/2000/svg"><sodipodi:namedview
     id="namedview7"
     pagecolor="#ffffff"
     bordercolor="#000000"
     borderopacity="0.25"
     inkscape:showpageshadow="2"
     inkscape:pageopacity="0.0"
     inkscape:pagecheckerboard="0"
     inkscape:deskcolor="#d1d1d1"
     inkscape:document-units="mm"
     showgrid="true"><inkscape:grid
       type="xygrid"
       id="grid337" /></sodipodi:namedview><defs
     id="defs2" /><g
     inkscape:label="Calque 1"
     inkscape:groupmode="layer"
     id="layer1"
     transform="translate(-31.686459,-128.96771)"><path
       style="fill:#000000;stroke-width:0.264583"
       d="m 38.94381,275.05387 c -2.72541,-0.73727 -5.27123,-2.94314 -6.55345,-5.67836 l -0.7039,-1.50155 V 202.125 136.37604 l 0.71329,-1.52205 c 0.9979,-2.12938 3.03152,-4.19407 5.04871,-5.12583 l 1.64633,-0.76045 h 65.74896 65.74896 l 1.64633,0.76045 c 2.01719,0.93176 4.05081,2.99645 5.04871,5.12583 l 0.71329,1.52205 v 65.74896 65.74896 l -0.71329,1.52205 c -0.9979,2.12938 -3.03152,4.19407 -5.04871,5.12582 l -1.64633,0.76046 -65.21979,0.0494 c -51.09285,0.0387 -65.48174,-0.0215 -66.42911,-0.27778 z m 132.49692,-1.26982 c 2.08892,-0.78156 4.28051,-2.97315 5.06207,-5.06207 l 0.5722,-1.52933 V 202.125 137.05735 l -0.5722,-1.52933 c -0.78255,-2.09158 -2.9729,-4.28042 -5.06764,-5.06416 l -1.5349,-0.57428 -65.40273,0.0682 -65.40274,0.0682 -1.50881,0.74093 c -1.88919,0.92772 -3.71176,2.91812 -4.43009,4.83804 -0.54272,1.45055 -0.54339,1.53251 -0.54339,66.51999 0,64.77552 0.002,65.0741 0.53799,66.50556 0.60212,1.60929 2.17406,3.54433 3.59033,4.41964 2.15893,1.33428 -1.27111,1.26945 68.15915,1.28835 l 65.01143,0.0177 z m -126.6574,-1.54447 c -4.36692,-0.11802 -5.01043,-0.1942 -5.96712,-0.70637 -1.48631,-0.79572 -2.71599,-2.09795 -3.45538,-3.65925 l -0.62649,-1.32292 V 202.125 137.69896 l 0.61735,-1.32292 c 0.71445,-1.53097 2.39491,-3.15031 4.01115,-3.86525 1.09319,-0.48357 3.03246,-0.49842 65.47387,-0.50144 l 64.34731,-0.003 1.23351,0.54432 c 1.62761,0.71822 3.13437,2.19302 3.90839,3.82549 l 0.62724,1.32292 v 64.42604 64.42604 l -0.62724,1.32292 c -0.78315,1.65172 -2.277,3.10129 -3.9978,3.87928 l -1.32291,0.59811 -59.66354,0.0103 c -32.81495,0.006 -61.8662,-0.0493 -64.55834,-0.12204 z M 161.46458,202.125 V 145.50417 H 104.84375 48.22292 v 56.62083 56.62083 h 56.62083 56.62083 z"
       id="path35695"
       inkscape:export-filename=".\petrol.svg"
       inkscape:export-xdpi="96"
       inkscape:export-ydpi="96"
       sodipodi:nodetypes="sscccsscccsscccsscssssscccsscccssscsscscsscccssccsscccssccccccccccccc" /><path
       style="fill:#0000fe;fill-opacity:1;stroke:none;stroke-width:2.4552;stroke-linecap:square;stroke-linejoin:miter;stroke-miterlimit:4;stroke-dasharray:none;stroke-opacity:0.992157"
       d="m 151.51781,1027.0249 c -6.04489,-1.4272 -10.45896,-4.9342 -15.42529,-12.2554 l -4.22244,-6.2246 V 764.04454 519.54415 l 3.82818,-6.03642 c 2.10551,-3.32003 6.30134,-7.67317 9.32407,-9.67365 l 5.49589,-3.63723 245.01622,-0.35716 245.01622,-0.35716 6.16933,3.91248 c 3.47071,2.20105 7.86665,6.58883 10.04949,10.03082 l 3.88013,6.11832 v 244.39286 244.39289 l -3.88013,6.1183 c -2.17042,3.4224 -6.57604,7.828 -9.99845,9.9984 l -6.11833,3.8802 -242.3736,-0.133 c -133.30547,-0.073 -244.34805,-0.5992 -246.76129,-1.1689 z M 611.27953,763.93701 V 548.91732 H 396.25984 181.24016 v 215.01969 215.01968 h 215.01968 215.01969 z"
       id="path35697"
       transform="scale(0.26458333)" /><path
       style="fill:#000000;stroke-width:0.652431"
       d="m 84.20234,242.68976 c -0.430593,-0.43062 -0.782918,-1.0178 -0.782918,-1.30488 0,-0.28707 8.367433,-0.52195 18.594318,-0.52195 10.22685,0 18.59428,0.23475 18.59428,0.52195 0,1.86939 -1.94506,2.08779 -18.59428,2.08779 -12.374472,0 -17.242447,-0.21404 -17.8114,-0.78291 z m -0.782918,-6.39384 c 0,-1.27435 0.434957,-1.30487 18.594318,-1.30487 18.15932,0 18.59428,0.0306 18.59428,1.30487 0,1.27434 -0.43496,1.30487 -18.59428,1.30487 -18.159361,0 -18.594318,-0.0306 -18.594318,-1.30487 z m 0,-31.64293 v -27.72835 h 10.731032 10.731036 l 0.19727,14.9891 c 0.18987,14.42934 0.25065,15.0425 1.62891,16.41953 1.72831,1.72676 5.02345,1.88731 6.59163,0.3212 0.96169,-0.96041 1.15445,-3.14131 1.43692,-16.25643 l 0.32621,-15.14718 2.77283,-0.20073 2.77283,-0.20072 v 27.76585 27.76587 h -18.5943 -18.594294 z m 38.493468,16.05719 c 0,-1.73717 0.23821,-2.02992 1.65202,-2.02992 4.1019,0 8.59642,-3.0769 10.95982,-7.50297 1.20949,-2.26511 1.42422,-3.92359 1.62612,-12.55931 l 0.23254,-9.94957 h -7.2353 -7.2353 v -1.65002 -1.65002 l 8.64472,0.18198 8.6447,0.18199 0.19061,10.76513 c 0.21503,12.14388 -0.22587,14.57522 -3.44856,19.01401 -2.34454,3.22922 -7.05817,5.99409 -11.58499,6.79538 -2.39575,0.42408 -2.4466,0.39089 -2.4466,-1.59683 z m -13.18248,-13.93681 c -0.0737,-0.0897 -0.29381,-7.35615 -0.48933,-16.14766 l -0.35546,-15.98457 -12.233098,-0.17755 -12.2331,-0.17754 v -3.29797 c 0,-2.80751 0.29635,-3.59427 1.992779,-5.2907 1.8648,-1.86483 2.214709,-1.96669 5.449602,-1.58648 2.982289,0.3505 3.626551,0.21873 4.693119,-0.95979 2.169487,-2.39726 4.790378,-3.35938 8.246528,-3.02729 4.02425,0.38667 6.2725,2.00096 8.23379,5.91205 1.08523,2.16406 2.04843,3.1907 3.26216,3.47697 2.02542,0.47774 4.6582,2.7029 4.6582,3.93708 0,0.62217 -1.09868,0.86491 -3.91459,0.86491 h -3.91459 v 15.04881 c 0,15.03563 -0.33301,17.57278 -2.30646,17.57278 -0.52563,0 -1.01594,-0.0735 -1.08955,-0.16324 z"
       id="path37549" /></g></svg>
