<?xml version="1.0" encoding="UTF-8" standalone="no"?>
<!-- Created with Inkscape (http://www.inkscape.org/) -->

<svg
   width="146.31458mm"
   height="146.37469mm"
   viewBox="0 0 146.31458 146.37469"
   version="1.1"
   id="svg5"
   xml:space="preserve"
   inkscape:export-filename="inflation-station.svg"
   inkscape:export-xdpi="96"
   inkscape:export-ydpi="96"
   xmlns:inkscape="http://www.inkscape.org/namespaces/inkscape"
   xmlns:sodipodi="http://sodipodi.sourceforge.net/DTD/sodipodi-0.dtd"
   xmlns="http://www.w3.org/2000/svg"
   xmlns:svg="http://www.w3.org/2000/svg"><sodipodi:namedview
     id="namedview7"
     pagecolor="#ffffff"
     bordercolor="#000000"
     borderopacity="0.25"
     inkscape:showpageshadow="2"
     inkscape:pageopacity="0.0"
     inkscape:pagecheckerboard="0"
     inkscape:deskcolor="#d1d1d1"
     inkscape:document-units="mm"
     showgrid="true"><inkscape:grid
       type="xygrid"
       id="grid337" /></sodipodi:namedview><defs
     id="defs2" /><g
     inkscape:label="Calque 1"
     inkscape:groupmode="layer"
     id="layer1"
     transform="translate(-31.686459,-128.96771)"><path
       style="fill:#000000;stroke-width:0.264583"
       d="m 38.94381,275.05387 c -2.72541,-0.73727 -5.27123,-2.94314 -6.55345,-5.67836 l -0.7039,-1.50155 V 202.125 136.37604 l 0.71329,-1.52205 c 0.9979,-2.12938 3.03152,-4.19407 5.04871,-5.12583 l 1.64633,-0.76045 h 65.74896 65.74896 l 1.64633,0.76045 c 2.01719,0.93176 4.05081,2.99645 5.04871,5.12583 l 0.71329,1.52205 v 65.74896 65.74896 l -0.71329,1.52205 c -0.9979,2.12938 -3.03152,4.19407 -5.04871,5.12582 l -1.64633,0.76046 -65.21979,0.0494 c -51.09285,0.0387 -65.48174,-0.0215 -66.42911,-0.27778 z m 132.49692,-1.26982 c 2.08892,-0.78156 4.28051,-2.97315 5.06207,-5.06207 l 0.5722,-1.52933 V 202.125 137.05735 l -0.5722,-1.52933 c -0.78255,-2.09158 -2.9729,-4.28042 -5.06764,-5.06416 l -1.5349,-0.57428 -65.40273,0.0682 -65.40274,0.0682 -1.50881,0.74093 c -1.88919,0.92772 -3.71176,2.91812 -4.43009,4.83804 -0.54272,1.45055 -0.54339,1.53251 -0.54339,66.51999 0,64.77552 0.002,65.0741 0.53799,66.50556 0.60212,1.60929 2.17406,3.54433 3.59033,4.41964 2.15893,1.33428 -1.27111,1.26945 68.15915,1.28835 l 65.01143,0.0177 z m -126.6574,-1.54447 c -4.36692,-0.11802 -5.01043,-0.1942 -5.96712,-0.70637 -1.48631,-0.79572 -2.71599,-2.09795 -3.45538,-3.65925 l -0.62649,-1.32292 V 202.125 137.69896 l 0.61735,-1.32292 c 0.71445,-1.53097 2.39491,-3.15031 4.01115,-3.86525 1.09319,-0.48357 3.03246,-0.49842 65.47387,-0.50144 l 64.34731,-0.003 1.23351,0.54432 c 1.62761,0.71822 3.13437,2.19302 3.90839,3.82549 l 0.62724,1.32292 v 64.42604 64.42604 l -0.62724,1.32292 c -0.78315,1.65172 -2.277,3.10129 -3.9978,3.87928 l -1.32291,0.59811 -59.66354,0.0103 c -32.81495,0.006 -61.8662,-0.0493 -64.55834,-0.12204 z M 161.46458,202.125 V 145.50417 H 104.84375 48.22292 v 56.62083 56.62083 h 56.62083 56.62083 z"
       id="path35695"
       inkscape:export-filename=".\heavy-vehicles-track.svg"
       inkscape:export-xdpi="96"
       inkscape:export-ydpi="96"
       sodipodi:nodetypes="sscccsscccsscccsscssssscccsscccssscsscscsscccssccsscccssccccccccccccc" /><path
       style="fill:#0000fe;fill-opacity:1;stroke:none;stroke-width:2.4552;stroke-linecap:square;stroke-linejoin:miter;stroke-miterlimit:4;stroke-dasharray:none;stroke-opacity:0.992157"
       d="m 151.51781,1027.0249 c -6.04489,-1.4272 -10.45896,-4.9342 -15.42529,-12.2554 l -4.22244,-6.2246 V 764.04454 519.54415 l 3.82818,-6.03642 c 2.10551,-3.32003 6.30134,-7.67317 9.32407,-9.67365 l 5.49589,-3.63723 245.01622,-0.35716 245.01622,-0.35716 6.16933,3.91248 c 3.47071,2.20105 7.86665,6.58883 10.04949,10.03082 l 3.88013,6.11832 v 244.39286 244.39289 l -3.88013,6.1183 c -2.17042,3.4224 -6.57604,7.828 -9.99845,9.9984 l -6.11833,3.8802 -242.3736,-0.133 c -133.30547,-0.073 -244.34805,-0.5992 -246.76129,-1.1689 z M 611.27953,763.93701 V 548.91732 H 396.25984 181.24016 v 215.01969 215.01968 h 215.01968 215.01969 z"
       id="path35697"
       transform="scale(0.26458333)" /><path
       style="fill:#000000;stroke-width:0.566519"
       d="m 71.004009,213.63408 v -16.42907 h 2.26607 2.266071 v -9.82666 -9.82667 l 7.223127,-0.36839 c 9.322362,-0.47545 39.681573,-0.47545 49.003933,0 l 7.2231,0.36839 v 9.82667 9.82666 h 2.26609 2.26608 v 16.42907 16.42907 h -5.66519 -5.66521 v -16.42907 -16.42907 h 2.26609 2.26607 v -8.78104 -8.78105 h -3.68237 c -2.07724,0 -3.68237,0.24694 -3.68237,0.56651 0,0.36801 -7.74243,0.56652 -22.09426,0.56652 -14.351831,0 -22.094254,-0.19849 -22.094254,-0.56652 0,-0.31957 -1.605132,-0.56651 -3.682372,-0.56651 h -3.682373 v 8.78105 8.78104 h 2.266071 2.26607 v 16.42907 16.42907 h -5.665186 -5.665187 z m 15.70535,12.34397 c -0.13661,-2.27119 -0.54459,-5.23021 -0.906808,-6.57558 -0.829341,-3.08053 -0.07879,-6.18705 2.114068,-8.75006 0.86292,-1.00856 1.9007,-2.98094 2.3062,-4.38309 0.92745,-3.20695 2.50085,-5.44238 4.59153,-6.5235 2.35684,-1.2188 22.536951,-1.2188 24.893781,0 2.09067,1.08112 3.66407,3.31655 4.59154,6.5235 0.40549,1.40215 1.44328,3.37453 2.30619,4.38309 2.19285,2.56301 2.94339,5.66953 2.11405,8.75006 -0.3622,1.34537 -0.77027,4.30439 -0.90679,6.57558 l -0.24824,4.12945 -4.62826,-0.1638 c -4.58169,-0.16209 -4.63006,-0.17943 -4.80752,-1.72174 l -0.17922,-1.55792 H 107.26129 96.572669 l -0.17922,1.55792 c -0.1775,1.54226 -0.22583,1.55958 -4.8075,1.72174 l -4.62825,0.1638 z m 8.33209,-7.36066 c 0.74391,-1.06204 0.76016,-1.42142 0.10877,-2.40771 -0.98424,-1.49043 -2.79083,-1.75587 -3.96424,-0.58246 -1.15897,1.15897 -1.16844,2.21003 -0.0302,3.34833 1.25385,1.25385 2.86018,1.10576 3.88555,-0.35816 z m 20.860571,0.39862 c 0.14689,-0.59344 -15.57577,-1.13591 -17.006801,-0.58679 -0.42355,0.16252 -0.60739,0.55881 -0.40851,0.88058 0.47784,0.77318 17.221061,0.49072 17.415311,-0.29379 z m 7.46455,-0.0405 c 1.13831,-1.1383 1.12884,-2.18936 -0.0302,-3.34833 -1.17341,-1.17341 -2.97999,-0.90797 -3.96424,0.58246 -0.6513,0.98629 -0.63505,1.34565 0.10877,2.40771 1.02537,1.46392 2.63172,1.61199 3.88555,0.35816 z m -7.04102,-2.50888 c 0,-0.35407 -3.39912,-0.56652 -9.06431,-0.56652 -5.66518,0 -9.064301,0.21241 -9.064301,0.56652 0,0.35408 3.399121,0.56653 9.064301,0.56653 5.66519,0 9.06431,-0.21241 9.06431,-0.56653 z m -3.84331,-10.22767 c 1.65284,-2.87988 4.89484,-3.39109 7.4665,-1.17733 1.02174,0.87955 1.04215,0.86399 0.4205,-0.32122 -1.45065,-2.76569 -2.48757,-3.00327 -13.108,-3.00327 -10.874601,0 -11.659211,0.20062 -13.316441,3.40536 -1.62055,3.13381 -1.64813,3.12409 8.362751,2.94277 l 9.21082,-0.1668 z m 6.33107,0.92392 c -0.65451,-1.70562 -3.74849,-1.72125 -4.40046,-0.0223 -0.2494,0.64991 0.22333,0.8282 2.19595,0.8282 1.941,0 2.44332,-0.18371 2.20451,-0.80598 z M 105.3596,192.05031 c -0.87135,-1.24403 -0.4684,-3.23339 1.19349,-5.89243 l 0.70815,-1.13303 0.70815,1.13303 c 1.6619,2.65904 2.06485,4.6484 1.19349,5.89243 -0.45806,0.654 -1.3138,1.18905 -1.90164,1.18905 -0.58784,0 -1.44358,-0.53505 -1.90164,-1.18905 z m -7.049371,-3.4564 c -0.37389,-0.37389 -0.67982,-1.25751 -0.67982,-1.96358 0,-1.53131 1.70407,-5.28787 2.398711,-5.28787 0.52405,0 2.66682,4.37166 2.68752,5.4831 0.0351,1.88295 -3.052651,3.12211 -4.406411,1.76835 z m 14.373411,-0.21047 c -0.48964,-0.48963 -0.88465,-1.19071 -0.8778,-1.55792 0.0214,-1.11147 2.16347,-5.4831 2.68752,-5.4831 0.69464,0 2.3987,3.75654 2.3987,5.28784 0,2.4725 -2.46302,3.49858 -4.20842,1.75318 z"
       id="path35744" /></g></svg>
