<?xml version="1.0" encoding="UTF-8" standalone="no"?>
<!-- Created with Inkscape (http://www.inkscape.org/) -->

<svg
   width="146.31458mm"
   height="146.37469mm"
   viewBox="0 0 146.31458 146.37469"
   version="1.1"
   id="svg5"
   xml:space="preserve"
   inkscape:export-filename="inflation-station.svg"
   inkscape:export-xdpi="96"
   inkscape:export-ydpi="96"
   xmlns:inkscape="http://www.inkscape.org/namespaces/inkscape"
   xmlns:sodipodi="http://sodipodi.sourceforge.net/DTD/sodipodi-0.dtd"
   xmlns="http://www.w3.org/2000/svg"
   xmlns:svg="http://www.w3.org/2000/svg"><sodipodi:namedview
     id="namedview7"
     pagecolor="#ffffff"
     bordercolor="#000000"
     borderopacity="0.25"
     inkscape:showpageshadow="2"
     inkscape:pageopacity="0.0"
     inkscape:pagecheckerboard="0"
     inkscape:deskcolor="#d1d1d1"
     inkscape:document-units="mm"
     showgrid="true"><inkscape:grid
       type="xygrid"
       id="grid337" /></sodipodi:namedview><defs
     id="defs2" /><g
     inkscape:label="Calque 1"
     inkscape:groupmode="layer"
     id="layer1"
     transform="translate(-31.686459,-128.96771)"><path
       style="fill:#000000;stroke-width:0.264583"
       d="m 38.94381,275.05387 c -2.72541,-0.73727 -5.27123,-2.94314 -6.55345,-5.67836 l -0.7039,-1.50155 V 202.125 136.37604 l 0.71329,-1.52205 c 0.9979,-2.12938 3.03152,-4.19407 5.04871,-5.12583 l 1.64633,-0.76045 h 65.74896 65.74896 l 1.64633,0.76045 c 2.01719,0.93176 4.05081,2.99645 5.04871,5.12583 l 0.71329,1.52205 v 65.74896 65.74896 l -0.71329,1.52205 c -0.9979,2.12938 -3.03152,4.19407 -5.04871,5.12582 l -1.64633,0.76046 -65.21979,0.0494 c -51.09285,0.0387 -65.48174,-0.0215 -66.42911,-0.27778 z m 132.49692,-1.26982 c 2.08892,-0.78156 4.28051,-2.97315 5.06207,-5.06207 l 0.5722,-1.52933 V 202.125 137.05735 l -0.5722,-1.52933 c -0.78255,-2.09158 -2.9729,-4.28042 -5.06764,-5.06416 l -1.5349,-0.57428 -65.40273,0.0682 -65.40274,0.0682 -1.50881,0.74093 c -1.88919,0.92772 -3.71176,2.91812 -4.43009,4.83804 -0.54272,1.45055 -0.54339,1.53251 -0.54339,66.51999 0,64.77552 0.002,65.0741 0.53799,66.50556 0.60212,1.60929 2.17406,3.54433 3.59033,4.41964 2.15893,1.33428 -1.27111,1.26945 68.15915,1.28835 l 65.01143,0.0177 z m -126.6574,-1.54447 c -4.36692,-0.11802 -5.01043,-0.1942 -5.96712,-0.70637 -1.48631,-0.79572 -2.71599,-2.09795 -3.45538,-3.65925 l -0.62649,-1.32292 V 202.125 137.69896 l 0.61735,-1.32292 c 0.71445,-1.53097 2.39491,-3.15031 4.01115,-3.86525 1.09319,-0.48357 3.03246,-0.49842 65.47387,-0.50144 l 64.34731,-0.003 1.23351,0.54432 c 1.62761,0.71822 3.13437,2.19302 3.90839,3.82549 l 0.62724,1.32292 v 64.42604 64.42604 l -0.62724,1.32292 c -0.78315,1.65172 -2.277,3.10129 -3.9978,3.87928 l -1.32291,0.59811 -59.66354,0.0103 c -32.81495,0.006 -61.8662,-0.0493 -64.55834,-0.12204 z M 161.46458,202.125 V 145.50417 H 104.84375 48.22292 v 56.62083 56.62083 h 56.62083 56.62083 z"
       id="path35695"
       inkscape:export-filename=".\laundry.svg"
       inkscape:export-xdpi="96"
       inkscape:export-ydpi="96"
       sodipodi:nodetypes="sscccsscccsscccsscssssscccsscccssscsscscsscccssccsscccssccccccccccccc" /><path
       style="fill:#0000fe;fill-opacity:1;stroke:none;stroke-width:2.4552;stroke-linecap:square;stroke-linejoin:miter;stroke-miterlimit:4;stroke-dasharray:none;stroke-opacity:0.992157"
       d="m 151.51781,1027.0249 c -6.04489,-1.4272 -10.45896,-4.9342 -15.42529,-12.2554 l -4.22244,-6.2246 V 764.04454 519.54415 l 3.82818,-6.03642 c 2.10551,-3.32003 6.30134,-7.67317 9.32407,-9.67365 l 5.49589,-3.63723 245.01622,-0.35716 245.01622,-0.35716 6.16933,3.91248 c 3.47071,2.20105 7.86665,6.58883 10.04949,10.03082 l 3.88013,6.11832 v 244.39286 244.39289 l -3.88013,6.1183 c -2.17042,3.4224 -6.57604,7.828 -9.99845,9.9984 l -6.11833,3.8802 -242.3736,-0.133 c -133.30547,-0.073 -244.34805,-0.5992 -246.76129,-1.1689 z M 611.27953,763.93701 V 548.91732 H 396.25984 181.24016 v 215.01969 215.01968 h 215.01968 215.01969 z"
       id="path35697"
       transform="scale(0.26458333)" /><path
       style="fill:#000000;stroke-width:0.802354"
       d="m 74.635022,248.27466 c -1.507474,-1.00213 -12.517407,-34.36421 -11.940502,-36.18187 0.575312,-1.81264 7.394939,-5.68559 9.003905,-5.11342 1.319128,0.4691 12.681482,34.9372 12.055084,36.56955 -0.626702,1.63317 -8.012534,5.46094 -9.118487,4.72574 z m 23.551638,-6.86064 c -6.08549,-2.78134 -11.36909,-5.38552 -11.7413,-5.78708 -1.32797,-1.4326 -8.348192,-24.16083 -7.857608,-25.43928 0.274989,-0.71661 2.015291,-2.4006 3.867351,-3.74222 4.435497,-3.21306 9.560397,-3.36617 13.908467,-0.41549 4.6319,3.1433 10.20071,5.78205 18.68008,8.85145 9.21171,3.33451 10.44519,4.56329 7.97372,7.94325 -1.0421,1.42513 -1.39011,1.41409 -10.63122,-0.33737 -7.59132,-1.43878 -10.01906,-1.62704 -11.81869,-0.91652 -3.28361,1.29646 -2.60421,3.77173 0.95664,3.48537 1.4527,-0.11675 6.63192,0.55104 11.50935,1.48421 10.29354,1.96935 12.05516,1.58965 13.97827,-3.013 1.447,-3.46314 14.51921,-18.71886 16.03969,-18.71886 1.30829,0 2.70692,2.53025 2.70692,4.8971 0,4.20166 -10.8646,19.84536 -18.3724,26.45399 -6.68238,5.88207 -13.65042,10.37551 -16.0366,10.34142 -1.15399,-0.0152 -7.07718,-2.30562 -13.16267,-5.08697 z M 88.6756,196.38946 c -1.16673,-0.64423 -2.50665,-2.27654 -2.97755,-3.62735 -2.293554,-6.57928 5.8398,-11.75756 10.75191,-6.84544 2.50156,2.50159 2.5687,6.09628 0.16406,8.78744 -2.28849,2.56118 -5.2237,3.18433 -7.93845,1.68535 z m 4.78484,-5.83097 c 0.19256,-1.35035 -0.14465,-1.7971 -1.35675,-1.7971 -1.92047,0 -2.83199,1.21365 -2.18257,2.90595 0.68632,1.78858 3.2401,0.98848 3.53932,-1.10885 z m 29.83195,6.00992 c -1.10324,-0.56869 -2.48968,-2.04295 -3.08096,-3.27613 -3.73052,-7.78021 7.71538,-13.21031 11.77581,-5.5866 1.39997,2.62856 1.13544,4.7519 -0.87188,6.99843 -2.24437,2.51178 -5.20033,3.21623 -7.82297,1.8643 z m 4.66362,-5.6122 c 0.31933,-1.65812 -1.99691,-2.77543 -3.21938,-1.55296 -1.22248,1.2225 -0.10523,3.53872 1.55295,3.21939 0.76853,-0.14799 1.51842,-0.8979 1.66643,-1.66643 z m -52.170778,-2.23958 c -2.271034,-2.27103 -2.41628,-2.75177 -1.969953,-6.52032 0.829469,-7.00356 3.589946,-9.45032 12.093661,-10.71931 3.39818,-0.5071 4.74666,-1.33756 9.83945,-6.05965 6.98129,-6.47317 7.96908,-6.75595 20.79857,-5.95434 l 9.24647,0.57776 4.67364,4.73204 c 2.71065,2.7445 5.37108,4.73205 6.33412,4.73205 2.67854,0 5.50331,1.63359 6.46161,3.73683 0.48994,1.07533 0.89084,4.59742 0.89084,7.82685 0,4.72534 -0.32469,6.28448 -1.66295,7.98582 -1.88222,2.39285 -5.55825,2.93464 -5.55825,0.81921 0,-0.71219 -0.78127,-2.68494 -1.73612,-4.38388 -4.66836,-8.30621 -16.47553,-6.69069 -19.27006,2.6366 l -0.91142,3.04217 h -6.20255 -6.20257 l -0.52096,-2.77704 c -1.00816,-5.37391 -7.4846,-9.48477 -12.82937,-8.1433 -3.24331,0.81399 -6.797312,4.39765 -7.705259,7.76948 -1.033797,3.83921 -2.456339,4.01161 -5.768899,0.69903 z"
       id="path37044" /></g></svg>
