<?xml version="1.0" encoding="UTF-8" standalone="no"?>
<!-- Created with Inkscape (http://www.inkscape.org/) -->

<svg
   width="146.31458mm"
   height="146.37469mm"
   viewBox="0 0 146.31458 146.37469"
   version="1.1"
   id="svg5"
   xml:space="preserve"
   inkscape:export-filename="inflation-station.svg"
   inkscape:export-xdpi="96"
   inkscape:export-ydpi="96"
   xmlns:inkscape="http://www.inkscape.org/namespaces/inkscape"
   xmlns:sodipodi="http://sodipodi.sourceforge.net/DTD/sodipodi-0.dtd"
   xmlns="http://www.w3.org/2000/svg"
   xmlns:svg="http://www.w3.org/2000/svg"><sodipodi:namedview
     id="namedview7"
     pagecolor="#ffffff"
     bordercolor="#000000"
     borderopacity="0.25"
     inkscape:showpageshadow="2"
     inkscape:pageopacity="0.0"
     inkscape:pagecheckerboard="0"
     inkscape:deskcolor="#d1d1d1"
     inkscape:document-units="mm"
     showgrid="true"><inkscape:grid
       type="xygrid"
       id="grid337" /></sodipodi:namedview><defs
     id="defs2" /><g
     inkscape:label="Calque 1"
     inkscape:groupmode="layer"
     id="layer1"
     transform="translate(-31.686459,-128.96771)"><path
       style="fill:#000000;stroke-width:0.264583"
       d="m 38.94381,275.05387 c -2.72541,-0.73727 -5.27123,-2.94314 -6.55345,-5.67836 l -0.7039,-1.50155 V 202.125 136.37604 l 0.71329,-1.52205 c 0.9979,-2.12938 3.03152,-4.19407 5.04871,-5.12583 l 1.64633,-0.76045 h 65.74896 65.74896 l 1.64633,0.76045 c 2.01719,0.93176 4.05081,2.99645 5.04871,5.12583 l 0.71329,1.52205 v 65.74896 65.74896 l -0.71329,1.52205 c -0.9979,2.12938 -3.03152,4.19407 -5.04871,5.12582 l -1.64633,0.76046 -65.21979,0.0494 c -51.09285,0.0387 -65.48174,-0.0215 -66.42911,-0.27778 z m 132.49692,-1.26982 c 2.08892,-0.78156 4.28051,-2.97315 5.06207,-5.06207 l 0.5722,-1.52933 V 202.125 137.05735 l -0.5722,-1.52933 c -0.78255,-2.09158 -2.9729,-4.28042 -5.06764,-5.06416 l -1.5349,-0.57428 -65.40273,0.0682 -65.40274,0.0682 -1.50881,0.74093 c -1.88919,0.92772 -3.71176,2.91812 -4.43009,4.83804 -0.54272,1.45055 -0.54339,1.53251 -0.54339,66.51999 0,64.77552 0.002,65.0741 0.53799,66.50556 0.60212,1.60929 2.17406,3.54433 3.59033,4.41964 2.15893,1.33428 -1.27111,1.26945 68.15915,1.28835 l 65.01143,0.0177 z m -126.6574,-1.54447 c -4.36692,-0.11802 -5.01043,-0.1942 -5.96712,-0.70637 -1.48631,-0.79572 -2.71599,-2.09795 -3.45538,-3.65925 l -0.62649,-1.32292 V 202.125 137.69896 l 0.61735,-1.32292 c 0.71445,-1.53097 2.39491,-3.15031 4.01115,-3.86525 1.09319,-0.48357 3.03246,-0.49842 65.47387,-0.50144 l 64.34731,-0.003 1.23351,0.54432 c 1.62761,0.71822 3.13437,2.19302 3.90839,3.82549 l 0.62724,1.32292 v 64.42604 64.42604 l -0.62724,1.32292 c -0.78315,1.65172 -2.277,3.10129 -3.9978,3.87928 l -1.32291,0.59811 -59.66354,0.0103 c -32.81495,0.006 -61.8662,-0.0493 -64.55834,-0.12204 z M 161.46458,202.125 V 145.50417 H 104.84375 48.22292 v 56.62083 56.62083 h 56.62083 56.62083 z"
       id="path35695"
       inkscape:export-filename=".\inflation-station.svg"
       inkscape:export-xdpi="96"
       inkscape:export-ydpi="96"
       sodipodi:nodetypes="sscccsscccsscccsscssssscccsscccssscsscscsscccssccsscccssccccccccccccc" /><path
       style="fill:#0000fe;fill-opacity:1;stroke:none;stroke-width:2.4552;stroke-linecap:square;stroke-linejoin:miter;stroke-miterlimit:4;stroke-dasharray:none;stroke-opacity:0.992157"
       d="m 151.51781,1027.0249 c -6.04489,-1.4272 -10.45896,-4.9342 -15.42529,-12.2554 l -4.22244,-6.2246 V 764.04454 519.54415 l 3.82818,-6.03642 c 2.10551,-3.32003 6.30134,-7.67317 9.32407,-9.67365 l 5.49589,-3.63723 245.01622,-0.35716 245.01622,-0.35716 6.16933,3.91248 c 3.47071,2.20105 7.86665,6.58883 10.04949,10.03082 l 3.88013,6.11832 v 244.39286 244.39289 l -3.88013,6.1183 c -2.17042,3.4224 -6.57604,7.828 -9.99845,9.9984 l -6.11833,3.8802 -242.3736,-0.133 c -133.30547,-0.073 -244.34805,-0.5992 -246.76129,-1.1689 z M 611.27953,763.93701 V 548.91732 H 396.25984 181.24016 v 215.01969 215.01968 h 215.01968 215.01969 z"
       id="path35697"
       transform="scale(0.26458333)" /><path
       style="fill:#000000;stroke-width:0.204605"
       d="m 57.984543,232.46698 v -1.02302 h 8.18422 8.18422 l -0.002,-2.71103 -0.002,-2.71102 -1.68667,-0.0139 c -2.55854,-0.0211 -4.78142,-0.93828 -6.73592,-2.77926 -1.24455,-1.17226 -2.69882,-3.36486 -2.52764,-3.81092 0.0573,-0.14929 0.0247,-0.22229 -0.0725,-0.16222 -0.0972,0.0601 -0.3033,-0.32646 -0.45802,-0.85895 -0.4195,-1.44375 -0.41349,-30.78011 0.007,-32.27279 0.52434,-1.86308 1.6938,-3.75262 3.0726,-4.96454 0.28984,-0.25476 0.71113,-0.62428 0.9362,-0.82115 1.19485,-1.04517 3.89206,-1.88702 6.04585,-1.88702 h 1.42225 v -0.93418 c 0,-1.45726 0.61609,-2.32036 1.66533,-2.333 0.98201,-0.0118 1.46487,0.60356 1.56554,1.99521 l 0.09,1.24416 9.59287,0.0204 9.59288,0.0204 v -2.2571 -2.25711 h 0.51151 0.51152 v 2.26008 2.2601 l 7.365797,-0.0307 7.3658,-0.0307 v -2.22938 -2.22937 h 0.5115 0.51152 v 2.24299 2.24298 l 9.61646,0.0113 9.61646,0.0114 v -1.13831 c 0,-0.93577 0.0894,-1.22767 0.50221,-1.64052 1.15832,-1.15833 2.77107,-0.16167 2.77189,1.71299 l 4.1e-4,0.95618 1.5356,0.0467 c 5.03218,0.15318 9.28273,3.78864 10.12264,8.65783 0.35695,2.06931 0.17216,30.29332 -0.20591,31.44926 -0.15642,0.47827 -0.35745,0.86958 -0.44673,0.86958 -0.0893,0 -0.16234,0.16835 -0.16234,0.37413 0,0.45082 -1.05633,2.09803 -2.02309,3.15472 -1.60628,1.75572 -4.29225,2.96174 -7.03071,3.15685 l -1.79029,0.12755 v 2.62923 2.62923 h 8.18422 8.18422 v 1.02303 1.02303 H 105.24758 57.983713 v -1.02303 z m 74.885617,-3.68143 v -2.65841 l -27.62176,-0.0526 -27.621747,-0.0526 10e-6,2.71102 1e-5,2.71103 h 27.621737 27.62175 z M 107.67341,212.2072 c 2.3304,-1.05747 3.52818,-2.79206 3.66534,-5.30807 0.0725,-1.33034 -0.002,-1.78373 -0.54139,-3.29797 -0.76735,-2.15382 -4.70472,-10.02678 -5.35467,-10.70695 -0.16048,-0.16793 -0.98823,0.59582 -1.00589,0.92811 -0.004,0.0705 -0.60528,1.21325 -1.33674,2.53957 -0.73147,1.32631 -1.32994,2.44447 -1.32994,2.4848 0,0.0403 -0.36758,0.85068 -0.81684,1.80079 -1.674087,3.54038 -2.164157,5.4194 -1.815227,6.95993 0.55973,2.47121 2.037507,4.14028 4.268907,4.8215 1.04383,0.31867 3.33834,0.19943 4.26645,-0.22171 z M 93.381293,173.02742 v -0.51318 l 11.815977,0.0528 11.81597,0.0528 0.0654,0.46036 0.0654,0.46036 H 105.26269 93.381333 Z"
       id="path37363" /></g></svg>
