<?xml version="1.0" encoding="UTF-8" standalone="no"?>
<!-- Created with Inkscape (http://www.inkscape.org/) -->

<svg
   width="146.31458mm"
   height="146.37469mm"
   viewBox="0 0 146.31458 146.37469"
   version="1.1"
   id="svg5"
   xml:space="preserve"
   inkscape:export-filename="inflation-station.svg"
   inkscape:export-xdpi="96"
   inkscape:export-ydpi="96"
   xmlns:inkscape="http://www.inkscape.org/namespaces/inkscape"
   xmlns:sodipodi="http://sodipodi.sourceforge.net/DTD/sodipodi-0.dtd"
   xmlns="http://www.w3.org/2000/svg"
   xmlns:svg="http://www.w3.org/2000/svg"><sodipodi:namedview
     id="namedview7"
     pagecolor="#ffffff"
     bordercolor="#000000"
     borderopacity="0.25"
     inkscape:showpageshadow="2"
     inkscape:pageopacity="0.0"
     inkscape:pagecheckerboard="0"
     inkscape:deskcolor="#d1d1d1"
     inkscape:document-units="mm"
     showgrid="true"><inkscape:grid
       type="xygrid"
       id="grid337" /></sodipodi:namedview><defs
     id="defs2" /><g
     inkscape:label="Calque 1"
     inkscape:groupmode="layer"
     id="layer1"
     transform="translate(-31.686459,-128.96771)"><path
       style="fill:#000000;stroke-width:0.264583"
       d="m 38.94381,275.05387 c -2.72541,-0.73727 -5.27123,-2.94314 -6.55345,-5.67836 l -0.7039,-1.50155 V 202.125 136.37604 l 0.71329,-1.52205 c 0.9979,-2.12938 3.03152,-4.19407 5.04871,-5.12583 l 1.64633,-0.76045 h 65.74896 65.74896 l 1.64633,0.76045 c 2.01719,0.93176 4.05081,2.99645 5.04871,5.12583 l 0.71329,1.52205 v 65.74896 65.74896 l -0.71329,1.52205 c -0.9979,2.12938 -3.03152,4.19407 -5.04871,5.12582 l -1.64633,0.76046 -65.21979,0.0494 c -51.09285,0.0387 -65.48174,-0.0215 -66.42911,-0.27778 z m 132.49692,-1.26982 c 2.08892,-0.78156 4.28051,-2.97315 5.06207,-5.06207 l 0.5722,-1.52933 V 202.125 137.05735 l -0.5722,-1.52933 c -0.78255,-2.09158 -2.9729,-4.28042 -5.06764,-5.06416 l -1.5349,-0.57428 -65.40273,0.0682 -65.40274,0.0682 -1.50881,0.74093 c -1.88919,0.92772 -3.71176,2.91812 -4.43009,4.83804 -0.54272,1.45055 -0.54339,1.53251 -0.54339,66.51999 0,64.77552 0.002,65.0741 0.53799,66.50556 0.60212,1.60929 2.17406,3.54433 3.59033,4.41964 2.15893,1.33428 -1.27111,1.26945 68.15915,1.28835 l 65.01143,0.0177 z m -126.6574,-1.54447 c -4.36692,-0.11802 -5.01043,-0.1942 -5.96712,-0.70637 -1.48631,-0.79572 -2.71599,-2.09795 -3.45538,-3.65925 l -0.62649,-1.32292 V 202.125 137.69896 l 0.61735,-1.32292 c 0.71445,-1.53097 2.39491,-3.15031 4.01115,-3.86525 1.09319,-0.48357 3.03246,-0.49842 65.47387,-0.50144 l 64.34731,-0.003 1.23351,0.54432 c 1.62761,0.71822 3.13437,2.19302 3.90839,3.82549 l 0.62724,1.32292 v 64.42604 64.42604 l -0.62724,1.32292 c -0.78315,1.65172 -2.277,3.10129 -3.9978,3.87928 l -1.32291,0.59811 -59.66354,0.0103 c -32.81495,0.006 -61.8662,-0.0493 -64.55834,-0.12204 z M 161.46458,202.125 V 145.50417 H 104.84375 48.22292 v 56.62083 56.62083 h 56.62083 56.62083 z"
       id="path35695"
       inkscape:export-filename=".\gaz.svg"
       inkscape:export-xdpi="96"
       inkscape:export-ydpi="96"
       sodipodi:nodetypes="sscccsscccsscccsscssssscccsscccssscsscscsscccssccsscccssccccccccccccc" /><path
       style="fill:#0000fe;fill-opacity:1;stroke:none;stroke-width:2.4552;stroke-linecap:square;stroke-linejoin:miter;stroke-miterlimit:4;stroke-dasharray:none;stroke-opacity:0.992157"
       d="m 151.51781,1027.0249 c -6.04489,-1.4272 -10.45896,-4.9342 -15.42529,-12.2554 l -4.22244,-6.2246 V 764.04454 519.54415 l 3.82818,-6.03642 c 2.10551,-3.32003 6.30134,-7.67317 9.32407,-9.67365 l 5.49589,-3.63723 245.01622,-0.35716 245.01622,-0.35716 6.16933,3.91248 c 3.47071,2.20105 7.86665,6.58883 10.04949,10.03082 l 3.88013,6.11832 v 244.39286 244.39289 l -3.88013,6.1183 c -2.17042,3.4224 -6.57604,7.828 -9.99845,9.9984 l -6.11833,3.8802 -242.3736,-0.133 c -133.30547,-0.073 -244.34805,-0.5992 -246.76129,-1.1689 z M 611.27953,763.93701 V 548.91732 H 396.25984 181.24016 v 215.01969 215.01968 h 215.01968 215.01969 z"
       id="path35697"
       transform="scale(0.26458333)" /><path
       style="fill:#000000;stroke-width:0.16624"
       d="m 74.782108,247.42629 c -1.285424,-0.56969 -2.068497,-1.89968 -2.074347,-3.5231 -0.009,-2.51601 1.250064,-3.85606 3.778307,-4.02115 l 1.205239,-0.0787 v -36.22378 c 0,-32.37268 0.02746,-36.28947 0.258178,-36.84182 0.326061,-0.78057 0.978452,-1.4721 1.775568,-1.88209 0.603327,-0.31032 1.174201,-0.31804 20.391657,-0.2757 l 19.77095,0.0435 0.71173,0.50025 c 0.43094,0.30289 0.87926,0.82578 1.1364,1.32542 l 0.42468,0.82518 0.044,22.07284 0.0439,22.07284 h 1.4856 c 2.84062,0 4.46345,0.60889 6.16929,2.31474 1.17301,1.17301 1.81895,2.32651 2.12944,3.80276 0.11678,0.55521 0.18529,3.12759 0.18529,6.95695 0,6.66272 0.0256,6.85564 0.98422,7.42192 0.33929,0.20042 0.85122,0.28362 1.74527,0.28362 1.2087,0 1.29286,-0.0254 1.88611,-0.56904 l 0.62096,-0.56904 0.0438,-17.69037 0.0438,-17.69037 -0.70873,-0.20942 c -2.32811,-0.68791 -4.84088,-2.76002 -5.98327,-4.93399 -1.01031,-1.92262 -1.15428,-2.70173 -1.2483,-6.75513 l -0.0839,-3.61573 h 1.35002 1.35003 v -2.85671 c 0,-2.50672 0.0403,-2.93996 0.32895,-3.53622 0.43745,-0.90367 1.06555,-1.2541 2.24777,-1.2541 1.14254,0 1.74955,0.31905 2.22857,1.17134 0.31675,0.56358 0.34814,0.88353 0.34814,3.54757 v 2.92813 h 2.65985 2.65983 l 6.3e-4,-3.03388 c 6.3e-4,-3.37145 0.12002,-3.82442 1.14745,-4.35573 0.70884,-0.36655 2.13612,-0.33163 2.79206,0.0683 0.94935,0.57888 1.04702,0.98192 1.04702,4.32071 v 3.00058 h 1.43684 1.43685 l -0.0982,3.36635 c -0.0588,2.01702 -0.19825,3.81663 -0.34785,4.48969 -0.70032,3.15067 -3.50397,6.27459 -6.53728,7.28401 l -1.03809,0.34546 -0.0444,18.15781 -0.0444,18.15781 -0.62492,1.26437 c -0.72864,1.4742 -1.94973,2.69628 -3.36135,3.36408 -1.95629,0.92548 -5.21109,0.91746 -7.19724,-0.0177 -1.243,-0.58528 -2.82699,-2.17243 -3.45754,-3.46445 l -0.48678,-0.99744 -0.0831,-6.89895 c -0.0811,-6.72787 -0.0921,-6.91339 -0.44568,-7.4808 -0.58479,-0.9385 -1.24303,-1.22372 -3.00379,-1.30158 l -1.53772,-0.068 v 11.73975 11.73973 l 0.70652,10e-4 c 1.12436,0.001 1.93403,0.30692 2.71032,1.02248 0.87457,0.80615 1.13801,1.5168 1.13047,3.04947 -0.008,1.66679 -0.61976,2.75606 -1.92241,3.42409 -0.5982,0.30678 -1.35428,0.31611 -25.102222,0.3098 -19.998183,-0.006 -24.576841,-0.0471 -24.984167,-0.22761 z m 31.835532,-30.97986 c -2.83472,-0.0241 -5.15403,-0.0806 -5.15403,-0.12538 0,-0.0448 1.72485,-3.53052 3.83299,-7.74603 2.10814,-4.21551 3.81002,-7.68465 3.78196,-7.7092 -0.0281,-0.0246 -4.83874,4.69558 -10.690384,10.48918 l -10.639357,10.53381 5.278116,0.002 c 2.902966,0.001 5.278115,0.0399 5.278115,0.086 0,0.0461 -1.763918,3.61817 -3.919826,7.93795 l -3.919826,7.85413 10.653132,-10.63935 10.65313,-10.63935 z m 7.4802,-32.12349 V 172.85239 H 99.884335 85.670822 v 11.47055 11.47055 h 14.213513 14.213505 z"
       id="path35876" /></g></svg>
