<?xml version="1.0" encoding="UTF-8" standalone="no"?>
<!-- Created with Inkscape (http://www.inkscape.org/) -->

<svg
   width="146.31458mm"
   height="146.37469mm"
   viewBox="0 0 146.31458 146.37469"
   version="1.1"
   id="svg5"
   xml:space="preserve"
   inkscape:export-filename="inflation-station.svg"
   inkscape:export-xdpi="96"
   inkscape:export-ydpi="96"
   xmlns:inkscape="http://www.inkscape.org/namespaces/inkscape"
   xmlns:sodipodi="http://sodipodi.sourceforge.net/DTD/sodipodi-0.dtd"
   xmlns="http://www.w3.org/2000/svg"
   xmlns:svg="http://www.w3.org/2000/svg"><sodipodi:namedview
     id="namedview7"
     pagecolor="#ffffff"
     bordercolor="#000000"
     borderopacity="0.25"
     inkscape:showpageshadow="2"
     inkscape:pageopacity="0.0"
     inkscape:pagecheckerboard="0"
     inkscape:deskcolor="#d1d1d1"
     inkscape:document-units="mm"
     showgrid="true"><inkscape:grid
       type="xygrid"
       id="grid337" /></sodipodi:namedview><defs
     id="defs2" /><g
     inkscape:label="Calque 1"
     inkscape:groupmode="layer"
     id="layer1"
     transform="translate(-31.686459,-128.96771)"><path
       style="fill:#000000;stroke-width:0.264583"
       d="m 38.94381,275.05387 c -2.72541,-0.73727 -5.27123,-2.94314 -6.55345,-5.67836 l -0.7039,-1.50155 V 202.125 136.37604 l 0.71329,-1.52205 c 0.9979,-2.12938 3.03152,-4.19407 5.04871,-5.12583 l 1.64633,-0.76045 h 65.74896 65.74896 l 1.64633,0.76045 c 2.01719,0.93176 4.05081,2.99645 5.04871,5.12583 l 0.71329,1.52205 v 65.74896 65.74896 l -0.71329,1.52205 c -0.9979,2.12938 -3.03152,4.19407 -5.04871,5.12582 l -1.64633,0.76046 -65.21979,0.0494 c -51.09285,0.0387 -65.48174,-0.0215 -66.42911,-0.27778 z m 132.49692,-1.26982 c 2.08892,-0.78156 4.28051,-2.97315 5.06207,-5.06207 l 0.5722,-1.52933 V 202.125 137.05735 l -0.5722,-1.52933 c -0.78255,-2.09158 -2.9729,-4.28042 -5.06764,-5.06416 l -1.5349,-0.57428 -65.40273,0.0682 -65.40274,0.0682 -1.50881,0.74093 c -1.88919,0.92772 -3.71176,2.91812 -4.43009,4.83804 -0.54272,1.45055 -0.54339,1.53251 -0.54339,66.51999 0,64.77552 0.002,65.0741 0.53799,66.50556 0.60212,1.60929 2.17406,3.54433 3.59033,4.41964 2.15893,1.33428 -1.27111,1.26945 68.15915,1.28835 l 65.01143,0.0177 z m -126.6574,-1.54447 c -4.36692,-0.11802 -5.01043,-0.1942 -5.96712,-0.70637 -1.48631,-0.79572 -2.71599,-2.09795 -3.45538,-3.65925 l -0.62649,-1.32292 V 202.125 137.69896 l 0.61735,-1.32292 c 0.71445,-1.53097 2.39491,-3.15031 4.01115,-3.86525 1.09319,-0.48357 3.03246,-0.49842 65.47387,-0.50144 l 64.34731,-0.003 1.23351,0.54432 c 1.62761,0.71822 3.13437,2.19302 3.90839,3.82549 l 0.62724,1.32292 v 64.42604 64.42604 l -0.62724,1.32292 c -0.78315,1.65172 -2.277,3.10129 -3.9978,3.87928 l -1.32291,0.59811 -59.66354,0.0103 c -32.81495,0.006 -61.8662,-0.0493 -64.55834,-0.12204 z M 161.46458,202.125 V 145.50417 H 104.84375 48.22292 v 56.62083 56.62083 h 56.62083 56.62083 z"
       id="path35695"
       inkscape:export-filename=".\toilets.svg"
       inkscape:export-xdpi="96"
       inkscape:export-ydpi="96"
       sodipodi:nodetypes="sscccsscccsscccsscssssscccsscccssscsscscsscccssccsscccssccccccccccccc" /><path
       style="fill:#0000fe;fill-opacity:1;stroke:none;stroke-width:2.4552;stroke-linecap:square;stroke-linejoin:miter;stroke-miterlimit:4;stroke-dasharray:none;stroke-opacity:0.992157"
       d="m 151.51781,1027.0249 c -6.04489,-1.4272 -10.45896,-4.9342 -15.42529,-12.2554 l -4.22244,-6.2246 V 764.04454 519.54415 l 3.82818,-6.03642 c 2.10551,-3.32003 6.30134,-7.67317 9.32407,-9.67365 l 5.49589,-3.63723 245.01622,-0.35716 245.01622,-0.35716 6.16933,3.91248 c 3.47071,2.20105 7.86665,6.58883 10.04949,10.03082 l 3.88013,6.11832 v 244.39286 244.39289 l -3.88013,6.1183 c -2.17042,3.4224 -6.57604,7.828 -9.99845,9.9984 l -6.11833,3.8802 -242.3736,-0.133 c -133.30547,-0.073 -244.34805,-0.5992 -246.76129,-1.1689 z M 611.27953,763.93701 V 548.91732 H 396.25984 181.24016 v 215.01969 215.01968 h 215.01968 215.01969 z"
       id="path35697"
       transform="scale(0.26458333)" /><path
       style="fill:#000000;stroke-width:0.608957"
       d="m 72.366634,238.13804 c -0.493803,-0.799 0.787276,-2.41438 1.914702,-2.41438 0.693235,0 0.838878,-3.06406 0.838878,-17.6482 v -17.64817 l 1.477565,-0.37085 c 0.812663,-0.20392 1.951275,-0.89428 2.530213,-1.534 1.087494,-1.20168 2.690748,-1.57322 2.690748,-0.62359 0,0.78062 3.882572,2.50524 5.639916,2.50524 0.82371,0 2.529614,-0.70032 3.7909,-1.55628 l 2.293289,-1.55625 1.385594,1.3017 c 2.206335,2.07273 5.630131,2.22056 8.356101,0.36075 l 2.28357,-1.55801 2.2836,1.55801 c 2.72594,1.85981 6.14976,1.71198 8.3561,-0.36075 l 1.38559,-1.3017 2.29327,1.55625 c 1.26131,0.85596 2.96721,1.55628 3.7909,1.55628 1.75736,0 5.63991,-1.72462 5.63991,-2.50524 0,-0.94963 1.60326,-0.57809 2.69075,0.62359 0.57896,0.63972 1.71755,1.33003 2.53021,1.534 l 1.47759,0.37085 v 17.58217 17.58216 l 1.56286,0.39226 c 1.04581,0.26249 1.49637,0.73761 1.36189,1.43618 -0.18643,0.96827 -2.59143,1.05532 -33.18953,1.20138 -22.593086,0.10794 -33.113353,-0.0444 -33.384616,-0.4834 z m 56.341896,-13.55833 c 0,-7.85555 -0.21566,-11.35956 -0.73075,-11.87467 -1.0102,-1.01021 -15.18809,-1.01021 -16.19829,0 -0.51512,0.51511 -0.73075,4.01912 -0.73075,11.87467 v 11.14395 h 8.82989 8.8299 z m -4.63781,1.13171 c -0.60582,-1.57874 0.0559,-3.07649 1.447,-3.27496 1.19422,-0.17031 1.36394,0.076 1.36394,1.97911 0,1.77893 -0.22464,2.17372 -1.23703,2.17372 -0.68037,0 -1.38863,-0.39504 -1.57391,-0.87787 z m -21.54738,2.77577 c 0,-3.0706 -0.17423,-3.62827 -1.21793,-3.90122 -0.83676,-0.21888 -1.21792,-0.83063 -1.21792,-1.95491 0,-1.12429 0.38116,-1.7361 1.21792,-1.95491 0.67406,-0.1763 1.21793,-0.83064 1.21793,-1.46539 0,-1.07824 -0.61968,-1.1469 -10.352303,-1.1469 H 81.81874 v 1.68041 c 0,1.02088 0.478014,1.97889 1.217924,2.44098 1.559201,0.97375 1.559201,2.9058 0,4.24086 -0.81897,0.70122 -1.217924,1.79637 -1.217924,3.34331 v 2.30049 h 10.352297 10.352303 z m -5.662568,1.97988 c -0.234876,-0.23487 -0.427035,-0.94848 -0.427035,-1.58581 0,-0.85337 0.361117,-1.10749 1.370174,-0.96417 0.895703,0.12728 1.37015,0.61341 1.37015,1.40417 0,1.20793 -1.505483,1.95362 -2.313289,1.14581 z m -12.374784,-1.10832 c -0.424203,-1.10547 0.191951,-2.16051 1.261769,-2.16051 0.931494,0 1.49653,1.16595 1.106689,2.2836 -0.363879,1.04312 -1.952632,0.96056 -2.368458,-0.12314 z m 5.517588,-2.21895 c -0.643544,-1.04125 1.386905,-2.79257 2.243966,-1.93551 0.381785,0.38179 0.529362,1.12363 0.327951,1.64853 -0.421464,1.09829 -1.964118,1.27042 -2.571917,0.28698 z m 4.400173,-3.2463 c -0.464366,-1.2101 1.257419,-2.58308 2.136666,-1.70383 0.840881,0.84088 0.210825,2.57274 -0.935843,2.57274 -0.47707,0 -1.017434,-0.39101 -1.200823,-0.86891 z m -6.520775,-1.293 c -0.647203,-0.77982 -0.607201,-1.12025 0.229927,-1.95738 0.945188,-0.94518 1.081556,-0.94518 2.026744,0 0.837105,0.83713 0.877084,1.17756 0.229927,1.95738 -0.430901,0.51919 -0.990367,0.94399 -1.243287,0.94399 -0.252897,0 -0.812387,-0.4248 -1.243265,-0.94399 z m 12.138596,-7.85033 c -0.147991,-0.14799 -2.506231,-1.22653 -5.240731,-2.39695 -5.748183,-2.46031 -7.823144,-2.30028 -10.827044,0.83513 l -1.753961,1.83072 h 9.045326 c 4.974922,0 8.92431,-0.12107 8.77641,-0.2689 z M 71.24411,197.3151 c -0.882493,-0.69418 -1.60452,-1.7903 -1.60452,-2.43585 0,-1.06691 0.470925,-1.17371 5.176126,-1.17371 5.784685,0 6.449012,0.60939 3.681437,3.37694 -1.884,1.88402 -5.025557,1.98476 -7.253043,0.23262 z m 12.069341,-0.23262 c -2.767551,-2.76755 -2.103225,-3.37694 3.681437,-3.37694 4.262701,0 5.176149,0.16618 5.176149,0.94112 0,1.77375 -2.840281,3.93053 -5.176149,3.93053 -1.50974,0 -2.649434,-0.46273 -3.681437,-1.49471 z m 13.067511,0.71416 c -0.917776,-0.70465 -2.38305,-3.00832 -2.38305,-3.7466 0,-0.18942 2.45769,-0.3445 5.461521,-0.3445 5.973917,0 6.316837,0.34545 3.475957,3.5015 -1.38145,1.53474 -4.909999,1.85215 -6.554428,0.5896 z m 11.819878,-0.5896 c -2.84088,-3.15605 -2.49795,-3.5015 3.47597,-3.5015 3.00383,0 5.46152,0.15053 5.46152,0.33472 0,0.9575 -1.91185,3.83028 -2.76759,4.15867 -2.14222,0.82205 -4.94231,0.37189 -6.1699,-0.99189 z m 12.25908,-0.12451 c -2.76757,-2.76755 -2.10325,-3.37694 3.68141,-3.37694 4.26273,0 5.17615,0.16617 5.17615,0.94111 0,1.77376 -2.84028,3.93054 -5.17615,3.93054 -1.50974,0 -2.64943,-0.46273 -3.68141,-1.49471 z m 12.17915,0 c -2.76755,-2.76755 -2.10323,-3.37694 3.68144,-3.37694 4.7052,0 5.17615,0.10679 5.17615,1.17371 0,1.70054 -2.85518,3.69794 -5.28596,3.69794 -1.39317,0 -2.56897,-0.49208 -3.57163,-1.49471 z m -62.390529,-5.58505 c 0,-0.20967 1.164642,-2.53868 2.588074,-5.17555 l 2.588074,-4.79432 4.387653,-6e-4 4.387653,-5.9e-4 -1.570296,4.11047 c -0.863666,2.26074 -1.70542,4.59001 -1.870604,5.17615 -0.255406,0.90629 -1.063788,1.06567 -5.405432,1.06567 -2.807829,0 -5.105122,-0.17146 -5.105122,-0.38123 z m 12.179172,-0.33071 c 0,-0.39159 0.747068,-2.72085 1.660149,-5.17615 l 1.660148,-4.4642 h 4.358676 4.358699 l -0.841985,4.4149 c -0.463077,2.42823 -0.842284,4.75749 -0.842699,5.17615 -5.06e-4,0.5492 -1.442281,0.7612 -5.176862,0.7612 -3.543964,0 -5.176126,-0.22441 -5.176126,-0.71195 z m 12.553662,-3.70301 c 0.463077,-2.42823 0.842307,-4.75749 0.842698,-5.17614 5.07e-4,-0.54124 1.320506,-0.7612 4.567887,-0.7612 h 4.5672 v 5.1761 5.17615 h -5.409873 -5.409874 z m 11.195715,-0.7612 v -5.17614 h 4.46965 4.46966 l 0.78663,4.41494 c 0.43265,2.42824 0.9169,4.7575 1.07613,5.17615 0.21842,0.57443 -1.07127,0.7612 -5.25632,0.7612 h -5.54575 z m 12.17843,4.41495 c -3.9e-4,-0.41865 -0.3796,-2.74791 -0.8427,-5.17615 l -0.84196,-4.41494 h 4.41748 4.41746 l 1.60137,4.51078 c 0.88074,2.48092 1.60136,4.8102 1.60136,5.17615 0,0.42899 -1.83882,0.66536 -5.17615,0.66536 -3.73455,0 -5.17633,-0.21197 -5.17686,-0.7612 z m 10.56055,-4.41495 -1.88048,-5.17614 4.33798,5.9e-4 4.33799,6e-4 2.58807,4.79432 c 1.42343,2.63687 2.58807,4.96588 2.58807,5.17555 0,0.20967 -2.27052,0.38123 -5.04558,0.38123 h -5.04555 z m -52.166088,-7.40315 c -0.612702,-0.6127 -0.498015,-6.31052 0.174229,-8.65442 1.090279,-3.80165 0.248018,-3.69302 28.796169,-3.71424 24.98594,-0.0184 26.08057,0.0283 27.2169,1.16457 1.42707,1.42707 2.00613,4.16201 1.74812,8.25653 l -0.19172,3.04317 -28.66588,0.15812 c -15.766248,0.087 -28.851228,-0.0272 -29.077772,-0.25373 z"
       id="path36008" /></g></svg>
