<?xml version="1.0" encoding="UTF-8" standalone="no"?>
<!-- Created with Inkscape (http://www.inkscape.org/) -->

<svg
   width="146.31458mm"
   height="146.37469mm"
   viewBox="0 0 146.31458 146.37469"
   version="1.1"
   id="svg5"
   xml:space="preserve"
   inkscape:export-filename="inflation-station.svg"
   inkscape:export-xdpi="96"
   inkscape:export-ydpi="96"
   xmlns:inkscape="http://www.inkscape.org/namespaces/inkscape"
   xmlns:sodipodi="http://sodipodi.sourceforge.net/DTD/sodipodi-0.dtd"
   xmlns="http://www.w3.org/2000/svg"
   xmlns:svg="http://www.w3.org/2000/svg"><sodipodi:namedview
     id="namedview7"
     pagecolor="#ffffff"
     bordercolor="#000000"
     borderopacity="0.25"
     inkscape:showpageshadow="2"
     inkscape:pageopacity="0.0"
     inkscape:pagecheckerboard="0"
     inkscape:deskcolor="#d1d1d1"
     inkscape:document-units="mm"
     showgrid="true"><inkscape:grid
       type="xygrid"
       id="grid337" /></sodipodi:namedview><defs
     id="defs2" /><g
     inkscape:label="Calque 1"
     inkscape:groupmode="layer"
     id="layer1"
     transform="translate(-31.686459,-128.96771)"><path
       style="fill:#000000;stroke-width:0.264583"
       d="m 38.94381,275.05387 c -2.72541,-0.73727 -5.27123,-2.94314 -6.55345,-5.67836 l -0.7039,-1.50155 V 202.125 136.37604 l 0.71329,-1.52205 c 0.9979,-2.12938 3.03152,-4.19407 5.04871,-5.12583 l 1.64633,-0.76045 h 65.74896 65.74896 l 1.64633,0.76045 c 2.01719,0.93176 4.05081,2.99645 5.04871,5.12583 l 0.71329,1.52205 v 65.74896 65.74896 l -0.71329,1.52205 c -0.9979,2.12938 -3.03152,4.19407 -5.04871,5.12582 l -1.64633,0.76046 -65.21979,0.0494 c -51.09285,0.0387 -65.48174,-0.0215 -66.42911,-0.27778 z m 132.49692,-1.26982 c 2.08892,-0.78156 4.28051,-2.97315 5.06207,-5.06207 l 0.5722,-1.52933 V 202.125 137.05735 l -0.5722,-1.52933 c -0.78255,-2.09158 -2.9729,-4.28042 -5.06764,-5.06416 l -1.5349,-0.57428 -65.40273,0.0682 -65.40274,0.0682 -1.50881,0.74093 c -1.88919,0.92772 -3.71176,2.91812 -4.43009,4.83804 -0.54272,1.45055 -0.54339,1.53251 -0.54339,66.51999 0,64.77552 0.002,65.0741 0.53799,66.50556 0.60212,1.60929 2.17406,3.54433 3.59033,4.41964 2.15893,1.33428 -1.27111,1.26945 68.15915,1.28835 l 65.01143,0.0177 z m -126.6574,-1.54447 c -4.36692,-0.11802 -5.01043,-0.1942 -5.96712,-0.70637 -1.48631,-0.79572 -2.71599,-2.09795 -3.45538,-3.65925 l -0.62649,-1.32292 V 202.125 137.69896 l 0.61735,-1.32292 c 0.71445,-1.53097 2.39491,-3.15031 4.01115,-3.86525 1.09319,-0.48357 3.03246,-0.49842 65.47387,-0.50144 l 64.34731,-0.003 1.23351,0.54432 c 1.62761,0.71822 3.13437,2.19302 3.90839,3.82549 l 0.62724,1.32292 v 64.42604 64.42604 l -0.62724,1.32292 c -0.78315,1.65172 -2.277,3.10129 -3.9978,3.87928 l -1.32291,0.59811 -59.66354,0.0103 c -32.81495,0.006 -61.8662,-0.0493 -64.55834,-0.12204 z M 161.46458,202.125 V 145.50417 H 104.84375 48.22292 v 56.62083 56.62083 h 56.62083 56.62083 z"
       id="path35695"
       inkscape:export-filename=".\manual-car-wash.svg"
       inkscape:export-xdpi="96"
       inkscape:export-ydpi="96"
       sodipodi:nodetypes="sscccsscccsscccsscssssscccsscccssscsscscsscccssccsscccssccccccccccccc" /><path
       style="fill:#0000fe;fill-opacity:1;stroke:none;stroke-width:2.4552;stroke-linecap:square;stroke-linejoin:miter;stroke-miterlimit:4;stroke-dasharray:none;stroke-opacity:0.992157"
       d="m 151.51781,1027.0249 c -6.04489,-1.4272 -10.45896,-4.9342 -15.42529,-12.2554 l -4.22244,-6.2246 V 764.04454 519.54415 l 3.82818,-6.03642 c 2.10551,-3.32003 6.30134,-7.67317 9.32407,-9.67365 l 5.49589,-3.63723 245.01622,-0.35716 245.01622,-0.35716 6.16933,3.91248 c 3.47071,2.20105 7.86665,6.58883 10.04949,10.03082 l 3.88013,6.11832 v 244.39286 244.39289 l -3.88013,6.1183 c -2.17042,3.4224 -6.57604,7.828 -9.99845,9.9984 l -6.11833,3.8802 -242.3736,-0.133 c -133.30547,-0.073 -244.34805,-0.5992 -246.76129,-1.1689 z M 611.27953,763.93701 V 548.91732 H 396.25984 181.24016 v 215.01969 215.01968 h 215.01968 215.01969 z"
       id="path35697"
       transform="scale(0.26458333)" /><path
       style="fill:#000000;stroke-width:0.655109"
       d="m 88.197177,242.61957 c -3.812529,-2.32467 -3.808691,-2.29823 -3.808691,-26.23699 0,-21.71831 0.01486,-21.97869 1.541066,-25.07578 0.847562,-1.72127 2.54266,-3.89354 3.766871,-4.82729 l 2.225831,-1.69772 v -8.15418 c 0,-4.48479 0.303533,-8.72136 0.674513,-9.41457 1.42046,-2.65411 3.961213,-3.23926 14.065443,-3.23926 10.10424,0 12.64499,0.58515 14.06545,3.23926 0.37098,0.69321 0.67454,4.92978 0.67454,9.41457 v 8.15418 l 2.2258,1.69772 c 1.22421,0.93375 2.91931,3.10602 3.7669,4.82729 1.52505,3.09709 1.54104,3.35747 1.54104,25.07578 0,23.93876 0.005,23.91232 -3.80869,26.23699 -1.91985,1.17061 -3.40117,1.27272 -18.46504,1.27272 -15.063867,0 -16.545187,-0.10201 -18.465033,-1.27272 z m 34.255413,-2.02369 c 2.3975,-0.91151 3.48939,-2.48085 3.51452,-5.05135 l 0.0198,-2.12911 H 106.66117 87.335428 l 0.01981,2.12911 c 0.02476,2.49173 1.111157,4.13726 3.314134,5.0181 2.165217,0.86571 29.516318,0.89433 31.781138,0.0332 z m 3.53537,-23.5582 V 203.28037 H 106.66221 87.336468 v 13.75731 13.75731 h 19.325742 19.32575 z m 0,-18.95553 c 0,-5.40203 -3.26068,-9.7237 -8.79448,-11.65615 -4.62679,-1.61572 -16.43575,-1.61572 -21.062537,0 -5.533798,1.93245 -8.794475,6.25412 -8.794475,11.65615 v 2.57779 h 19.325742 19.32575 z M 96.508014,176.77149 c 0,-6.10747 0.138409,-6.92963 1.267146,-7.53377 1.979269,-1.05926 16.56104,-0.87153 18.07113,0.23274 1.04628,0.76506 1.28816,1.97066 1.51162,7.53377 0.14634,3.64263 0.52653,6.62295 0.84492,6.62295 0.31841,0 0.57891,-3.22139 0.57891,-7.15866 0,-6.95334 -0.0495,-7.1976 -1.72612,-8.51642 -1.54872,-1.21822 -2.61692,-1.35776 -10.39341,-1.35776 -7.776487,0 -8.844686,0.13964 -10.393403,1.35776 -1.676602,1.31882 -1.726122,1.56308 -1.726122,8.51642 0,5.92652 0.169111,7.15866 0.982652,7.15866 0.810892,0 0.982677,-1.19847 0.982677,-6.85559 z m 4.595786,4.07137 c 0.0124,-1.93329 0.65525,-2.83617 2.40515,-3.382 0.79274,-0.24736 1.52415,-1.09125 1.63777,-1.88984 0.27875,-1.95954 2.74988,-1.97548 3.02843,-0.0198 0.12677,0.89027 0.92432,1.67502 2.12912,2.09502 1.56429,0.54532 1.92638,1.04735 1.92638,2.67095 0,1.36385 0.32079,1.99942 1.00915,1.99942 0.84263,0 0.97777,-0.89186 0.81889,-5.40467 l -0.19016,-5.40465 h -7.20622 -7.206215 l -0.190157,5.40465 c -0.158959,4.51281 -0.02476,5.40467 0.818892,5.40467 0.60682,0 1.01315,-0.58768 1.01917,-1.47402 z m 8.50642,0.32757 c 0,-0.5338 -1.02635,-0.81889 -2.94801,-0.81889 -1.92165,0 -2.94798,0.28509 -2.94798,0.81889 0,0.53378 1.02633,0.81887 2.94798,0.81887 1.92166,0 2.94801,-0.28509 2.94801,-0.81887 z"
       id="path35832" /></g></svg>
