<?xml version="1.0" encoding="UTF-8" standalone="no"?>
<!-- Created with Inkscape (http://www.inkscape.org/) -->

<svg
   width="146.31458mm"
   height="146.37469mm"
   viewBox="0 0 146.31458 146.37469"
   version="1.1"
   id="svg5"
   xml:space="preserve"
   inkscape:export-filename="inflation-station.svg"
   inkscape:export-xdpi="96"
   inkscape:export-ydpi="96"
   xmlns:inkscape="http://www.inkscape.org/namespaces/inkscape"
   xmlns:sodipodi="http://sodipodi.sourceforge.net/DTD/sodipodi-0.dtd"
   xmlns="http://www.w3.org/2000/svg"
   xmlns:svg="http://www.w3.org/2000/svg"><sodipodi:namedview
     id="namedview7"
     pagecolor="#ffffff"
     bordercolor="#000000"
     borderopacity="0.25"
     inkscape:showpageshadow="2"
     inkscape:pageopacity="0.0"
     inkscape:pagecheckerboard="0"
     inkscape:deskcolor="#d1d1d1"
     inkscape:document-units="mm"
     showgrid="true"><inkscape:grid
       type="xygrid"
       id="grid337" /></sodipodi:namedview><defs
     id="defs2" /><g
     inkscape:label="Calque 1"
     inkscape:groupmode="layer"
     id="layer1"
     transform="translate(-31.686459,-128.96771)"><path
       style="fill:#000000;stroke-width:0.264583"
       d="m 38.94381,275.05387 c -2.72541,-0.73727 -5.27123,-2.94314 -6.55345,-5.67836 l -0.7039,-1.50155 V 202.125 136.37604 l 0.71329,-1.52205 c 0.9979,-2.12938 3.03152,-4.19407 5.04871,-5.12583 l 1.64633,-0.76045 h 65.74896 65.74896 l 1.64633,0.76045 c 2.01719,0.93176 4.05081,2.99645 5.04871,5.12583 l 0.71329,1.52205 v 65.74896 65.74896 l -0.71329,1.52205 c -0.9979,2.12938 -3.03152,4.19407 -5.04871,5.12582 l -1.64633,0.76046 -65.21979,0.0494 c -51.09285,0.0387 -65.48174,-0.0215 -66.42911,-0.27778 z m 132.49692,-1.26982 c 2.08892,-0.78156 4.28051,-2.97315 5.06207,-5.06207 l 0.5722,-1.52933 V 202.125 137.05735 l -0.5722,-1.52933 c -0.78255,-2.09158 -2.9729,-4.28042 -5.06764,-5.06416 l -1.5349,-0.57428 -65.40273,0.0682 -65.40274,0.0682 -1.50881,0.74093 c -1.88919,0.92772 -3.71176,2.91812 -4.43009,4.83804 -0.54272,1.45055 -0.54339,1.53251 -0.54339,66.51999 0,64.77552 0.002,65.0741 0.53799,66.50556 0.60212,1.60929 2.17406,3.54433 3.59033,4.41964 2.15893,1.33428 -1.27111,1.26945 68.15915,1.28835 l 65.01143,0.0177 z m -126.6574,-1.54447 c -4.36692,-0.11802 -5.01043,-0.1942 -5.96712,-0.70637 -1.48631,-0.79572 -2.71599,-2.09795 -3.45538,-3.65925 l -0.62649,-1.32292 V 202.125 137.69896 l 0.61735,-1.32292 c 0.71445,-1.53097 2.39491,-3.15031 4.01115,-3.86525 1.09319,-0.48357 3.03246,-0.49842 65.47387,-0.50144 l 64.34731,-0.003 1.23351,0.54432 c 1.62761,0.71822 3.13437,2.19302 3.90839,3.82549 l 0.62724,1.32292 v 64.42604 64.42604 l -0.62724,1.32292 c -0.78315,1.65172 -2.277,3.10129 -3.9978,3.87928 l -1.32291,0.59811 -59.66354,0.0103 c -32.81495,0.006 -61.8662,-0.0493 -64.55834,-0.12204 z M 161.46458,202.125 V 145.50417 H 104.84375 48.22292 v 56.62083 56.62083 h 56.62083 56.62083 z m -90.61979,22.77135 c -0.43656,-0.10628 -1.16561,-0.387 -1.6201,-0.62383 -0.45449,-0.23682 -0.90098,-0.3758 -0.99219,-0.30884 -0.0912,0.0669 -0.10793,0.044 -0.0372,-0.051 0.0708,-0.095 -0.35502,-0.69752 -0.94622,-1.33889 -1.47121,-1.59608 -1.91981,-2.75504 -1.92396,-4.97062 -0.004,-2.20778 0.79539,-4.02822 2.38034,-5.41983 3.04102,-2.67004 7.73815,-2.5216 10.31064,0.32584 2.98632,3.3055 2.78404,7.71526 -0.4889,10.65792 -1.90674,1.71432 -4.2515,2.3211 -6.68245,1.72929 z m 55.00913,-0.23555 c -6.41049,-2.21598 -6.76563,-11.06729 -0.55412,-13.81089 4.67739,-2.06599 10.25814,1.44041 10.32723,6.48863 0.0322,2.34995 -0.55653,3.80368 -2.21372,5.46658 -2.22934,2.23704 -4.70099,2.84378 -7.55939,1.85568 z M 61.6476,217.48158 c -0.54731,-0.10614 -1.04728,-0.24515 -1.11104,-0.30891 -0.0638,-0.0638 -0.13369,-3.68393 -0.15541,-8.04482 l -0.0395,-7.92889 2.3994,-6.21771 c 1.58497,-4.10722 2.61027,-6.40142 3.02065,-6.75895 0.56309,-0.49059 1.42442,-0.59725 9.20216,-1.13953 4.7195,-0.32906 9.0274,-0.66627 9.5731,-0.74934 l 0.99219,-0.15106 v 11.80777 11.80778 h 18.54332 18.54331 l -1.06844,1.21381 c -1.40905,1.60077 -2.19151,3.2718 -2.38806,5.09997 l -0.16034,1.49142 -18.42336,0.0679 -18.42336,0.0679 -0.16001,-0.59711 c -0.088,-0.3284 -0.16163,-0.86052 -0.16361,-1.18249 -0.009,-1.41919 -1.15979,-3.65583 -2.64647,-5.1425 -1.23748,-1.23748 -1.81086,-1.59496 -3.29213,-2.05247 -5.37004,-1.65864 -10.2435,0.75475 -11.83226,5.85946 -0.26896,0.86415 -0.48901,1.91775 -0.48901,2.34135 0,0.83536 -0.11572,0.86647 -1.92115,0.51634 z m 9.53765,-16.4239 c 3.72744,-0.44151 6.82783,-0.8534 6.88975,-0.91532 0.0619,-0.0619 0.17409,-2.25764 0.24926,-4.87938 l 0.13667,-4.76679 -1.6914,0.1357 c -0.93028,0.0746 -3.35725,0.24306 -5.39329,0.37429 -3.32286,0.21418 -3.74952,0.29744 -4.16719,0.81323 -0.25591,0.31605 -0.46575,0.71027 -0.4663,0.87605 -5.3e-4,0.16578 -0.65539,1.96535 -1.45521,3.99904 -1.39249,3.54069 -1.6645,4.60284 -1.27782,4.98953 0.22349,0.22349 -0.62345,0.29742 7.17553,-0.62635 z m 66.1525,15.28867 c -0.14562,-1.75475 -1.16415,-3.99841 -2.41899,-5.32867 -0.53396,-0.56606 -0.97084,-1.07387 -0.97084,-1.12848 0,-0.0546 3.48257,-0.0677 7.73906,-0.0291 l 7.73906,0.0701 0.0755,2.4072 c 0.0566,1.80366 -0.0165,2.48362 -0.29175,2.71202 -0.202,0.16765 -1.64607,0.84058 -3.20903,1.4954 -2.77293,1.16176 -2.91082,1.19059 -5.69476,1.19059 h -2.85302 z M 87.91042,193.65833 v -14.55428 l 30.75781,0.0672 30.75781,0.0673 v 14.41979 14.41979 l -30.75781,0.0673 -30.75781,0.0672 z"
       id="path35695" /><path
       style="fill:#0000fe;fill-opacity:1;stroke:none;stroke-width:2.4552;stroke-linecap:square;stroke-linejoin:miter;stroke-miterlimit:4;stroke-dasharray:none;stroke-opacity:0.992157"
       d="m 151.51781,1027.0249 c -6.04489,-1.4272 -10.45896,-4.9342 -15.42529,-12.2554 l -4.22244,-6.2246 V 764.04454 519.54415 l 3.82818,-6.03642 c 2.10551,-3.32003 6.30134,-7.67317 9.32407,-9.67365 l 5.49589,-3.63723 245.01622,-0.35716 245.01622,-0.35716 6.16933,3.91248 c 3.47071,2.20105 7.86665,6.58883 10.04949,10.03082 l 3.88013,6.11832 v 244.39286 244.39289 l -3.88013,6.1183 c -2.17042,3.4224 -6.57604,7.828 -9.99845,9.9984 l -6.11833,3.8802 -242.3736,-0.133 c -133.30547,-0.073 -244.34805,-0.5992 -246.76129,-1.1689 z M 611.27953,763.93701 V 548.91732 H 396.25984 181.24016 v 215.01969 215.01968 h 215.01968 215.01969 z"
       id="path35697"
       transform="scale(0.26458333)" /></g></svg>
