<?xml version="1.0" encoding="UTF-8" standalone="no"?>
<!-- Created with Inkscape (http://www.inkscape.org/) -->

<svg
   width="146.31458mm"
   height="146.37469mm"
   viewBox="0 0 146.31458 146.37469"
   version="1.1"
   id="svg5"
   xml:space="preserve"
   inkscape:export-filename="inflation-station.svg"
   inkscape:export-xdpi="96"
   inkscape:export-ydpi="96"
   xmlns:inkscape="http://www.inkscape.org/namespaces/inkscape"
   xmlns:sodipodi="http://sodipodi.sourceforge.net/DTD/sodipodi-0.dtd"
   xmlns="http://www.w3.org/2000/svg"
   xmlns:svg="http://www.w3.org/2000/svg"><sodipodi:namedview
     id="namedview7"
     pagecolor="#ffffff"
     bordercolor="#000000"
     borderopacity="0.25"
     inkscape:showpageshadow="2"
     inkscape:pageopacity="0.0"
     inkscape:pagecheckerboard="0"
     inkscape:deskcolor="#d1d1d1"
     inkscape:document-units="mm"
     showgrid="true"><inkscape:grid
       type="xygrid"
       id="grid337" /></sodipodi:namedview><defs
     id="defs2" /><g
     inkscape:label="Calque 1"
     inkscape:groupmode="layer"
     id="layer1"
     transform="translate(-31.686459,-128.96771)"><path
       style="fill:#000000;stroke-width:0.264583"
       d="m 38.94381,275.05387 c -2.72541,-0.73727 -5.27123,-2.94314 -6.55345,-5.67836 l -0.7039,-1.50155 V 202.125 136.37604 l 0.71329,-1.52205 c 0.9979,-2.12938 3.03152,-4.19407 5.04871,-5.12583 l 1.64633,-0.76045 h 65.74896 65.74896 l 1.64633,0.76045 c 2.01719,0.93176 4.05081,2.99645 5.04871,5.12583 l 0.71329,1.52205 v 65.74896 65.74896 l -0.71329,1.52205 c -0.9979,2.12938 -3.03152,4.19407 -5.04871,5.12582 l -1.64633,0.76046 -65.21979,0.0494 c -51.09285,0.0387 -65.48174,-0.0215 -66.42911,-0.27778 z m 132.49692,-1.26982 c 2.08892,-0.78156 4.28051,-2.97315 5.06207,-5.06207 l 0.5722,-1.52933 V 202.125 137.05735 l -0.5722,-1.52933 c -0.78255,-2.09158 -2.9729,-4.28042 -5.06764,-5.06416 l -1.5349,-0.57428 -65.40273,0.0682 -65.40274,0.0682 -1.50881,0.74093 c -1.88919,0.92772 -3.71176,2.91812 -4.43009,4.83804 -0.54272,1.45055 -0.54339,1.53251 -0.54339,66.51999 0,64.77552 0.002,65.0741 0.53799,66.50556 0.60212,1.60929 2.17406,3.54433 3.59033,4.41964 2.15893,1.33428 -1.27111,1.26945 68.15915,1.28835 l 65.01143,0.0177 z m -126.6574,-1.54447 c -4.36692,-0.11802 -5.01043,-0.1942 -5.96712,-0.70637 -1.48631,-0.79572 -2.71599,-2.09795 -3.45538,-3.65925 l -0.62649,-1.32292 V 202.125 137.69896 l 0.61735,-1.32292 c 0.71445,-1.53097 2.39491,-3.15031 4.01115,-3.86525 1.09319,-0.48357 3.03246,-0.49842 65.47387,-0.50144 l 64.34731,-0.003 1.23351,0.54432 c 1.62761,0.71822 3.13437,2.19302 3.90839,3.82549 l 0.62724,1.32292 v 64.42604 64.42604 l -0.62724,1.32292 c -0.78315,1.65172 -2.277,3.10129 -3.9978,3.87928 l -1.32291,0.59811 -59.66354,0.0103 c -32.81495,0.006 -61.8662,-0.0493 -64.55834,-0.12204 z M 161.46458,202.125 V 145.50417 H 104.84375 48.22292 v 56.62083 56.62083 h 56.62083 56.62083 z"
       id="path35695"
       inkscape:export-filename=".\wifi.svg"
       inkscape:export-xdpi="96"
       inkscape:export-ydpi="96"
       sodipodi:nodetypes="sscccsscccsscccsscssssscccsscccssscsscscsscccssccsscccssccccccccccccc" /><path
       style="fill:#0000fe;fill-opacity:1;stroke:none;stroke-width:2.4552;stroke-linecap:square;stroke-linejoin:miter;stroke-miterlimit:4;stroke-dasharray:none;stroke-opacity:0.992157"
       d="m 151.51781,1027.0249 c -6.04489,-1.4272 -10.45896,-4.9342 -15.42529,-12.2554 l -4.22244,-6.2246 V 764.04454 519.54415 l 3.82818,-6.03642 c 2.10551,-3.32003 6.30134,-7.67317 9.32407,-9.67365 l 5.49589,-3.63723 245.01622,-0.35716 245.01622,-0.35716 6.16933,3.91248 c 3.47071,2.20105 7.86665,6.58883 10.04949,10.03082 l 3.88013,6.11832 v 244.39286 244.39289 l -3.88013,6.1183 c -2.17042,3.4224 -6.57604,7.828 -9.99845,9.9984 l -6.11833,3.8802 -242.3736,-0.133 c -133.30547,-0.073 -244.34805,-0.5992 -246.76129,-1.1689 z M 611.27953,763.93701 V 548.91732 H 396.25984 181.24016 v 215.01969 215.01968 h 215.01968 215.01969 z"
       id="path35697"
       transform="scale(0.26458333)" /><g
       id="g35651"
       transform="translate(-208.76277,23.231812)"
       inkscape:export-filename=".\inflation-station.svg"
       inkscape:export-xdpi="96"
       inkscape:export-ydpi="96"><path
         d="m 325.11875,214.82566 c -0.87312,-0.13829 -1.69096,-0.35239 -1.81741,-0.47579 -0.1279,-0.12479 0.25782,-0.47317 0.86924,-0.78509 0.60454,-0.30841 1.02923,-0.67388 0.94378,-0.81216 -0.0863,-0.13971 0.0307,-0.17998 0.26359,-0.0906 0.28895,0.11088 1.05269,-0.48604 2.46114,-1.92356 1.96098,-2.00146 2.63036,-2.94681 3.7208,-5.25474 2.09895,-4.44245 2.3211,-5.04859 3.35497,-9.15402 3.2226,-12.7967 3.22143,-26.36168 -0.003,-39.1013 -2.0216,-7.98637 -5.61138,-13.99124 -9.6514,-16.14455 -1.03438,-0.55132 -1.55239,-0.96991 -1.39502,-1.12727 0.32594,-0.32595 6.87996,-1.08856 7.66402,-0.89177 0.78507,0.19704 4.03991,3.27509 5.29197,5.00452 0.53913,0.74469 1.04369,1.41351 1.12125,1.48627 0.0776,0.0728 0.35274,0.48948 0.6115,0.92604 4.56801,7.70681 6.87814,17.66575 6.87392,29.63334 -0.004,12.66209 -2.86405,24.75052 -7.65352,32.35411 -1.4007,2.2237 -2.97306,4.23287 -4.32108,5.52149 l -1.19063,1.13817 -2.77812,-0.0258 c -1.52797,-0.0142 -3.4925,-0.13896 -4.36563,-0.27725 z m 7.80521,0.1459 c 0,-0.0932 0.90467,-1.05953 2.01038,-2.14745 1.85466,-1.82482 3.98501,-4.75212 5.342,-7.34042 5.90449,-11.26212 7.77663,-29.00199 4.67695,-44.3177 -0.73569,-3.63511 -1.06472,-4.76772 -2.43903,-8.39568 -0.54351,-1.43479 -1.03763,-2.3731 -1.19762,-2.27422 -0.15395,0.0951 -0.19272,0.0395 -0.0892,-0.12807 0.42169,-0.68229 -3.01514,-6.07406 -5.3002,-8.31508 -0.85145,-0.83503 -2.02434,-1.84706 -2.60642,-2.24896 l -1.05834,-0.7307 2.77813,-0.0771 c 1.52797,-0.0424 3.06483,-0.006 3.41526,0.0817 1.08585,0.27069 4.24861,3.57124 6.10291,6.36879 4.4282,6.68076 7.01276,16.09107 7.66009,27.89022 0.19617,3.57567 0.01,10.04802 -0.37664,13.09688 -0.32362,2.55161 -1.47791,8.84244 -1.87802,10.2351 -0.97604,3.39724 -2.98175,8.47776 -4.11387,10.42053 -1.10573,1.89747 -3.60067,5.25881 -4.6676,6.28846 -0.97284,0.93888 -1.2375,1.04285 -3.53076,1.3872 -2.63191,0.39519 -4.72804,0.48678 -4.72804,0.20656 z m 8.20209,-1.00905 c 0,-0.0917 0.74414,-1.0478 1.65364,-2.12474 2.12534,-2.51661 2.79694,-3.40737 3.02516,-4.01238 0.10158,-0.26929 0.50614,-0.93599 0.89902,-1.48157 1.05072,-1.45909 3.33214,-7.19707 4.21355,-10.59745 3.05853,-11.79946 3.0983,-23.97464 0.11966,-36.63409 -0.67036,-2.8491 -3.33451,-9.99088 -3.62033,-9.70505 -0.0838,0.0838 -0.13451,-0.004 -0.11268,-0.196 0.0696,-0.6106 -2.55529,-4.73028 -3.99504,-6.27017 -0.76389,-0.81702 -1.41873,-1.55019 -1.45521,-1.62926 -0.0365,-0.0791 -0.5128,-0.4804 -1.0585,-0.89182 -1.03526,-0.78053 -1.35652,-1.61931 -0.52917,-1.38164 3.97844,1.14288 4.2139,1.24848 5.88698,2.64022 4.1864,3.48243 7.38109,8.97227 9.66859,16.61475 1.23904,4.13962 2.50377,13.67261 2.50091,18.8509 -0.002,3.03881 -0.64787,10.39677 -1.18761,13.52282 -1.8839,10.91107 -6.69048,19.76165 -12.12453,22.32548 -1.56848,0.74002 -3.88444,1.31834 -3.88444,0.97 z m -24.13952,-1.20164 c -0.39814,-0.11988 -1.12401,-0.46526 -1.61305,-0.7675 -0.48904,-0.30225 -0.97689,-0.46182 -1.0841,-0.35461 -0.10721,0.10721 -0.16257,0.0759 -0.12302,-0.0696 0.0396,-0.14552 -0.42539,-0.77416 -1.03322,-1.39698 -2.66854,-2.73437 -5.24518,-8.1208 -6.75787,-14.12721 -0.3446,-1.36833 -0.33721,-1.5685 0.0835,-2.26024 1.07855,-1.77353 3.13719,-2.84425 5.14427,-2.67558 0.90659,0.0762 1.07304,0.19669 1.32947,0.96249 0.16132,0.48174 0.3985,0.77918 0.52744,0.66145 0.13145,-0.12002 0.15176,-0.0704 0.0463,0.11309 -0.10342,0.17987 0.13888,0.89424 0.53844,1.5875 2.27886,3.95399 5.04642,5.6818 6.99588,4.36759 l 0.68425,-0.46128 -1.13119,-0.92604 c -1.23121,-1.00792 -1.37248,-1.34914 -0.76673,-1.85186 0.21813,-0.18104 0.93852,-1.08859 1.60086,-2.01677 0.66234,-0.92819 1.35371,-1.68762 1.53636,-1.68762 0.18266,0 0.7409,0.3016 1.24054,0.67023 0.83737,0.61779 0.93401,0.63525 1.23527,0.22326 0.84902,-1.16111 2.13194,-7.09818 2.44004,-11.29194 0.77363,-10.53075 -1.36003,-20.89396 -5.13029,-24.91783 -3.08525,-3.2928 -6.7142,-1.48099 -8.99786,4.49232 -2.06465,5.40047 -2.54973,8.33838 -2.71938,16.47033 l -0.13386,6.41614 h -1.56347 c -1.68156,0 -3.17976,0.49595 -4.09466,1.35544 -0.45217,0.4248 -0.61678,0.46347 -0.79096,0.18582 -0.12097,-0.19285 -0.26533,-3.1486 -0.32079,-6.56834 -0.15435,-9.51743 0.56799,-15.6269 2.659,-22.48959 1.24324,-4.08028 2.41271,-6.75727 4.08165,-9.34313 0.63984,-0.99137 1.09255,-1.91705 1.00602,-2.05708 -0.0865,-0.14001 -0.0434,-0.22186 0.0959,-0.18187 0.13929,0.04 0.85935,-0.49798 1.60013,-1.19549 4.4345,-4.1754 9.68152,-3.3708 13.72466,2.10462 3.34074,4.52418 5.78335,11.38286 7.00471,19.66879 0.52283,3.54696 0.60381,5.1377 0.59942,11.77396 -0.005,8.06648 -0.37047,11.80133 -1.71092,17.50124 -1.46706,6.23825 -4.54139,12.60366 -7.50281,15.53457 -2.10121,2.07955 -3.7179,2.81608 -6.1239,2.78989 -1.01864,-0.0111 -2.17783,-0.11824 -2.57597,-0.23812 z m -26.46912,-4.59653 c -1.61546,-0.45182 -3.91448,-2.03276 -4.7846,-3.29019 -1.30845,-1.89086 -1.57574,-3.07008 -1.60102,-7.06337 l -0.0234,-3.70417 1.89072,-0.0772 1.89072,-0.0772 0.10331,3.25218 c 0.11327,3.56541 0.5466,4.89007 1.96453,6.00541 1.24956,0.9829 2.56452,1.22583 3.89173,0.71897 0.63771,-0.24354 1.40689,-0.7077 1.7093,-1.03146 0.3024,-0.32376 1.88302,-3.32709 3.51247,-6.67407 1.62946,-3.34698 3.36821,-6.6422 3.8639,-7.32271 1.28837,-1.76874 2.91083,-2.75602 5.14981,-3.13367 4.0606,-0.68491 7.18442,0.48668 11.87046,4.45201 0.84777,0.71739 0.89431,0.83067 0.57845,1.40789 -0.18893,0.34525 -0.74236,1.09745 -1.22986,1.67155 l -0.88635,1.04383 -1.49613,-1.30841 c -3.34791,-2.92786 -5.07624,-3.76598 -7.09899,-3.44253 -3.16425,0.50599 -4.16045,1.92006 -9.79813,13.90808 -0.3764,0.80036 -1.04803,1.89412 -1.49253,2.43058 -1.63438,1.97251 -5.29835,2.99404 -8.01434,2.23444 z m -11.1797,-16.58443 c -0.0975,-0.15771 -0.13552,-4.3409 -0.0845,-9.29597 l 0.0927,-9.00924 -1.32292,-0.67694 c -0.7384,-0.37784 -2.25815,-1.63276 -3.43958,-2.8402 -1.63342,-1.66936 -2.28275,-2.56173 -2.8441,-3.90862 -2.18071,-5.23233 -2.06745,-9.98012 0.35256,-14.77915 1.60018,-3.17325 5.51838,-6.38792 9.3023,-7.63202 5.37296,-1.76657 11.94732,-0.17916 15.82369,3.8207 0.62839,0.64841 1.26958,1.10674 1.42487,1.01851 0.15529,-0.0882 0.19774,-0.0667 0.0943,0.048 -0.10339,0.1146 0.1482,0.69924 0.55911,1.29919 1.97851,2.88879 2.79471,5.63532 2.7616,9.29291 -0.0515,5.68949 -2.82132,10.65261 -7.54717,13.52341 l -1.53185,0.93055 -0.0696,9.1772 -0.0695,9.17717 -6.66233,0.0707 c -4.57124,0.0485 -6.71795,-0.0193 -6.83955,-0.2161 z m 9.02152,-20.64917 c 2.44803,-0.45128 4.79525,-1.71013 6.54286,-3.50904 0.89751,-0.92386 1.47476,-1.73096 1.39209,-1.94639 -0.0777,-0.20243 -0.0281,-0.29814 0.11017,-0.21268 0.34898,0.21568 1.25756,-1.65475 1.76525,-3.63401 0.53914,-2.10184 0.35956,-5.05322 -0.43582,-7.1625 -2.22649,-5.90443 -8.9817,-9.37792 -14.80072,-7.61045 -1.2202,0.37062 -1.82143,0.67693 -1.70344,0.86785 0.10675,0.17272 0.0629,0.22125 -0.10567,0.11705 -0.46734,-0.28883 -2.34716,0.84711 -3.64789,2.20435 -2.52708,2.63687 -3.30422,4.45089 -3.4929,8.15323 -0.13679,2.68435 0.13835,4.12036 1.19813,6.25325 1.18147,2.37779 5.04399,5.83291 5.91731,5.29317 0.18277,-0.11296 0.24357,-0.0807 0.14587,0.0773 -0.14653,0.23708 1.40171,0.84113 3.12845,1.22057 0.99186,0.21795 2.41409,0.17808 3.98631,-0.11175 z m -2.98509,-9.41633 c -0.87416,-0.17636 -1.92707,-1.56949 -1.92839,-2.55154 -6.6e-4,-0.48909 -0.33156,-1.33664 -0.79262,-2.03022 -0.43532,-0.65484 -0.79199,-1.26091 -0.79262,-1.34683 -6.2e-4,-0.0859 -0.59644,-1.14671 -1.32405,-2.35733 -0.7276,-1.21062 -1.32291,-2.36072 -1.32291,-2.55578 0,-0.47957 0.96289,-1.41297 1.45761,-1.41297 0.52148,0 1.40215,0.88231 4.09344,4.10104 1.21675,1.45521 2.54186,2.88396 2.94469,3.175 0.86735,0.62666 1.29374,2.04267 0.95605,3.175 -0.3857,1.29333 -1.84812,2.09476 -3.2912,1.80363 z"
         style="fill:#000000;stroke-width:0.264583"
         id="path37266" /></g></g></svg>
