<?xml version="1.0" encoding="UTF-8" standalone="no"?>
<!-- Created with Inkscape (http://www.inkscape.org/) -->

<svg
   width="146.31458mm"
   height="146.37469mm"
   viewBox="0 0 146.31458 146.37469"
   version="1.1"
   id="svg5"
   xml:space="preserve"
   inkscape:export-filename="inflation-station.svg"
   inkscape:export-xdpi="96"
   inkscape:export-ydpi="96"
   xmlns:inkscape="http://www.inkscape.org/namespaces/inkscape"
   xmlns:sodipodi="http://sodipodi.sourceforge.net/DTD/sodipodi-0.dtd"
   xmlns="http://www.w3.org/2000/svg"
   xmlns:svg="http://www.w3.org/2000/svg"><sodipodi:namedview
     id="namedview7"
     pagecolor="#ffffff"
     bordercolor="#000000"
     borderopacity="0.25"
     inkscape:showpageshadow="2"
     inkscape:pageopacity="0.0"
     inkscape:pagecheckerboard="0"
     inkscape:deskcolor="#d1d1d1"
     inkscape:document-units="mm"
     showgrid="true"><inkscape:grid
       type="xygrid"
       id="grid337" /></sodipodi:namedview><defs
     id="defs2" /><g
     inkscape:label="Calque 1"
     inkscape:groupmode="layer"
     id="layer1"
     transform="translate(-31.686459,-128.96771)"><path
       style="fill:#000000;stroke-width:0.264583"
       d="m 38.94381,275.05387 c -2.72541,-0.73727 -5.27123,-2.94314 -6.55345,-5.67836 l -0.7039,-1.50155 V 202.125 136.37604 l 0.71329,-1.52205 c 0.9979,-2.12938 3.03152,-4.19407 5.04871,-5.12583 l 1.64633,-0.76045 h 65.74896 65.74896 l 1.64633,0.76045 c 2.01719,0.93176 4.05081,2.99645 5.04871,5.12583 l 0.71329,1.52205 v 65.74896 65.74896 l -0.71329,1.52205 c -0.9979,2.12938 -3.03152,4.19407 -5.04871,5.12582 l -1.64633,0.76046 -65.21979,0.0494 c -51.09285,0.0387 -65.48174,-0.0215 -66.42911,-0.27778 z m 132.49692,-1.26982 c 2.08892,-0.78156 4.28051,-2.97315 5.06207,-5.06207 l 0.5722,-1.52933 V 202.125 137.05735 l -0.5722,-1.52933 c -0.78255,-2.09158 -2.9729,-4.28042 -5.06764,-5.06416 l -1.5349,-0.57428 -65.40273,0.0682 -65.40274,0.0682 -1.50881,0.74093 c -1.88919,0.92772 -3.71176,2.91812 -4.43009,4.83804 -0.54272,1.45055 -0.54339,1.53251 -0.54339,66.51999 0,64.77552 0.002,65.0741 0.53799,66.50556 0.60212,1.60929 2.17406,3.54433 3.59033,4.41964 2.15893,1.33428 -1.27111,1.26945 68.15915,1.28835 l 65.01143,0.0177 z m -126.6574,-1.54447 c -4.36692,-0.11802 -5.01043,-0.1942 -5.96712,-0.70637 -1.48631,-0.79572 -2.71599,-2.09795 -3.45538,-3.65925 l -0.62649,-1.32292 V 202.125 137.69896 l 0.61735,-1.32292 c 0.71445,-1.53097 2.39491,-3.15031 4.01115,-3.86525 1.09319,-0.48357 3.03246,-0.49842 65.47387,-0.50144 l 64.34731,-0.003 1.23351,0.54432 c 1.62761,0.71822 3.13437,2.19302 3.90839,3.82549 l 0.62724,1.32292 v 64.42604 64.42604 l -0.62724,1.32292 c -0.78315,1.65172 -2.277,3.10129 -3.9978,3.87928 l -1.32291,0.59811 -59.66354,0.0103 c -32.81495,0.006 -61.8662,-0.0493 -64.55834,-0.12204 z M 161.46458,202.125 V 145.50417 H 104.84375 48.22292 v 56.62083 56.62083 h 56.62083 56.62083 z"
       id="path35695"
       inkscape:export-filename=".\takeway-food.svg"
       inkscape:export-xdpi="96"
       inkscape:export-ydpi="96"
       sodipodi:nodetypes="sscccsscccsscccsscssssscccsscccssscsscscsscccssccsscccssccccccccccccc" /><path
       style="fill:#0000fe;fill-opacity:1;stroke:none;stroke-width:2.4552;stroke-linecap:square;stroke-linejoin:miter;stroke-miterlimit:4;stroke-dasharray:none;stroke-opacity:0.992157"
       d="m 151.51781,1027.0249 c -6.04489,-1.4272 -10.45896,-4.9342 -15.42529,-12.2554 l -4.22244,-6.2246 V 764.04454 519.54415 l 3.82818,-6.03642 c 2.10551,-3.32003 6.30134,-7.67317 9.32407,-9.67365 l 5.49589,-3.63723 245.01622,-0.35716 245.01622,-0.35716 6.16933,3.91248 c 3.47071,2.20105 7.86665,6.58883 10.04949,10.03082 l 3.88013,6.11832 v 244.39286 244.39289 l -3.88013,6.1183 c -2.17042,3.4224 -6.57604,7.828 -9.99845,9.9984 l -6.11833,3.8802 -242.3736,-0.133 c -133.30547,-0.073 -244.34805,-0.5992 -246.76129,-1.1689 z M 611.27953,763.93701 V 548.91732 H 396.25984 181.24016 v 215.01969 215.01968 h 215.01968 215.01969 z"
       id="path35697"
       transform="scale(0.26458333)" /><path
       style="fill:#000000;stroke-width:0.661211"
       d="m 75.970327,244.82998 c -4.121916,-1.79088 -4.107821,-1.64913 -4.107821,-41.32139 0,-39.90794 -0.03599,-39.55755 4.252842,-41.34955 3.418127,-1.42817 51.552582,-1.42817 54.970682,0 4.28888,1.792 4.25284,1.44161 4.25284,41.34955 0,39.90794 0.036,39.55755 -4.25284,41.34956 -3.36729,1.40695 -51.869662,1.38216 -55.115703,-0.0282 z m 36.647783,-7.69043 c 10.58476,-3.96025 17.53797,-16.11178 15.46042,-27.01885 -2.57949,-13.5423 -15.45647,-22.88827 -28.2798,-20.52515 -10.922583,2.01282 -18.672248,9.78468 -20.701218,20.76044 -1.833042,9.91589 4.072909,21.25374 13.464812,25.84875 6.588047,3.22323 13.125066,3.52794 20.055786,0.93481 z m -16.80662,-7.56449 c -5.154231,-2.56847 -9.351944,-8.41636 -9.38778,-13.07828 -0.0125,-1.55047 0.192928,-1.79975 1.142599,-1.39076 3.369496,1.45111 9.188304,1.09097 16.632831,-1.02944 7.61604,-2.16929 10.57809,-2.30821 14.82071,-0.69519 1.43237,0.5446 1.77236,1.09604 1.77236,2.87466 0,2.92303 -2.89507,8.60772 -5.50642,10.8123 -5.44805,4.59936 -13.25762,5.60461 -19.4743,2.50671 z m 32.51392,-48.27115 c 0.22067,-0.57524 0.40135,-3.38067 0.40135,-6.23428 0,-3.83512 -0.27102,-5.45942 -1.03906,-6.22746 -0.90484,-0.90484 -4.01593,-1.03904 -24.08701,-1.03904 -20.071078,0 -23.18217,0.1342 -24.087008,1.03904 -0.768039,0.76804 -1.039038,2.39234 -1.039038,6.22746 0,2.85361 0.180683,5.65904 0.401351,6.23428 0.355892,0.92748 3.154925,1.04588 24.724695,1.04588 21.56977,0 24.3688,-0.11845 24.72472,-1.04588 z m -19.96399,-3.71484 c -1.31719,-1.31719 -0.95872,-4.36125 0.61262,-5.20222 2.91869,-1.56204 6.12952,1.71224 4.5582,4.64827 -0.81082,1.51506 -3.88083,1.84394 -5.17082,0.55395 z m 10.57941,0 c -1.31721,-1.31719 -0.95874,-4.36125 0.6126,-5.20222 2.91868,-1.56204 6.12954,1.71224 4.5582,4.64827 -0.81082,1.51506 -3.88081,1.84394 -5.1708,0.55395 z"
       id="path36998" /></g></svg>
