<?xml version="1.0" encoding="UTF-8" standalone="no"?>
<!-- Created with Inkscape (http://www.inkscape.org/) -->

<svg
   width="146.31458mm"
   height="146.37469mm"
   viewBox="0 0 146.31458 146.37469"
   version="1.1"
   id="svg5"
   xml:space="preserve"
   inkscape:export-filename="inflation-station.svg"
   inkscape:export-xdpi="96"
   inkscape:export-ydpi="96"
   xmlns:inkscape="http://www.inkscape.org/namespaces/inkscape"
   xmlns:sodipodi="http://sodipodi.sourceforge.net/DTD/sodipodi-0.dtd"
   xmlns="http://www.w3.org/2000/svg"
   xmlns:svg="http://www.w3.org/2000/svg"><sodipodi:namedview
     id="namedview7"
     pagecolor="#ffffff"
     bordercolor="#000000"
     borderopacity="0.25"
     inkscape:showpageshadow="2"
     inkscape:pageopacity="0.0"
     inkscape:pagecheckerboard="0"
     inkscape:deskcolor="#d1d1d1"
     inkscape:document-units="mm"
     showgrid="true"><inkscape:grid
       type="xygrid"
       id="grid337" /></sodipodi:namedview><defs
     id="defs2" /><g
     inkscape:label="Calque 1"
     inkscape:groupmode="layer"
     id="layer1"
     transform="translate(-31.686459,-128.96771)"><path
       style="fill:#000000;stroke-width:0.264583"
       d="m 38.94381,275.05387 c -2.72541,-0.73727 -5.27123,-2.94314 -6.55345,-5.67836 l -0.7039,-1.50155 V 202.125 136.37604 l 0.71329,-1.52205 c 0.9979,-2.12938 3.03152,-4.19407 5.04871,-5.12583 l 1.64633,-0.76045 h 65.74896 65.74896 l 1.64633,0.76045 c 2.01719,0.93176 4.05081,2.99645 5.04871,5.12583 l 0.71329,1.52205 v 65.74896 65.74896 l -0.71329,1.52205 c -0.9979,2.12938 -3.03152,4.19407 -5.04871,5.12582 l -1.64633,0.76046 -65.21979,0.0494 c -51.09285,0.0387 -65.48174,-0.0215 -66.42911,-0.27778 z m 132.49692,-1.26982 c 2.08892,-0.78156 4.28051,-2.97315 5.06207,-5.06207 l 0.5722,-1.52933 V 202.125 137.05735 l -0.5722,-1.52933 c -0.78255,-2.09158 -2.9729,-4.28042 -5.06764,-5.06416 l -1.5349,-0.57428 -65.40273,0.0682 -65.40274,0.0682 -1.50881,0.74093 c -1.88919,0.92772 -3.71176,2.91812 -4.43009,4.83804 -0.54272,1.45055 -0.54339,1.53251 -0.54339,66.51999 0,64.77552 0.002,65.0741 0.53799,66.50556 0.60212,1.60929 2.17406,3.54433 3.59033,4.41964 2.15893,1.33428 -1.27111,1.26945 68.15915,1.28835 l 65.01143,0.0177 z m -126.6574,-1.54447 c -4.36692,-0.11802 -5.01043,-0.1942 -5.96712,-0.70637 -1.48631,-0.79572 -2.71599,-2.09795 -3.45538,-3.65925 l -0.62649,-1.32292 V 202.125 137.69896 l 0.61735,-1.32292 c 0.71445,-1.53097 2.39491,-3.15031 4.01115,-3.86525 1.09319,-0.48357 3.03246,-0.49842 65.47387,-0.50144 l 64.34731,-0.003 1.23351,0.54432 c 1.62761,0.71822 3.13437,2.19302 3.90839,3.82549 l 0.62724,1.32292 v 64.42604 64.42604 l -0.62724,1.32292 c -0.78315,1.65172 -2.277,3.10129 -3.9978,3.87928 l -1.32291,0.59811 -59.66354,0.0103 c -32.81495,0.006 -61.8662,-0.0493 -64.55834,-0.12204 z M 161.46458,202.125 V 145.50417 H 104.84375 48.22292 v 56.62083 56.62083 h 56.62083 56.62083 z"
       id="path35695"
       inkscape:export-filename=".\car-wash.svg"
       inkscape:export-xdpi="96"
       inkscape:export-ydpi="96"
       sodipodi:nodetypes="sscccsscccsscccsscssssscccsscccssscsscscsscccssccsscccssccccccccccccc" /><path
       style="fill:#0000fe;fill-opacity:1;stroke:none;stroke-width:2.4552;stroke-linecap:square;stroke-linejoin:miter;stroke-miterlimit:4;stroke-dasharray:none;stroke-opacity:0.992157"
       d="m 151.51781,1027.0249 c -6.04489,-1.4272 -10.45896,-4.9342 -15.42529,-12.2554 l -4.22244,-6.2246 V 764.04454 519.54415 l 3.82818,-6.03642 c 2.10551,-3.32003 6.30134,-7.67317 9.32407,-9.67365 l 5.49589,-3.63723 245.01622,-0.35716 245.01622,-0.35716 6.16933,3.91248 c 3.47071,2.20105 7.86665,6.58883 10.04949,10.03082 l 3.88013,6.11832 v 244.39286 244.39289 l -3.88013,6.1183 c -2.17042,3.4224 -6.57604,7.828 -9.99845,9.9984 l -6.11833,3.8802 -242.3736,-0.133 c -133.30547,-0.073 -244.34805,-0.5992 -246.76129,-1.1689 z M 611.27953,763.93701 V 548.91732 H 396.25984 181.24016 v 215.01969 215.01968 h 215.01968 215.01969 z"
       id="path35697"
       transform="scale(0.26458333)" /><path
       style="fill:#000000;stroke-width:0.528286"
       d="m 69.768922,232.26319 c -0.176307,-0.4596 -0.320667,-4.98411 -0.320667,-10.05443 0,-10.2214 0.335042,-11.73729 3.110262,-14.07249 l 1.669082,-1.40443 -2.125522,-0.57234 c -1.729321,-0.46565 -2.125542,-0.80772 -2.125542,-1.83496 0,-1.93708 1.354725,-2.92296 4.016475,-2.92296 1.641786,0 2.451498,0.24851 2.670674,0.81966 0.217697,0.56733 1.310298,-0.69082 3.54935,-4.0872 2.222061,-3.3706 3.648327,-5.01661 4.555557,-5.25743 1.753741,-0.46554 22.613869,-0.45222 24.301199,0.016 0.89799,0.24891 2.35466,1.93552 4.55099,5.26933 2.26732,3.44159 3.32538,4.65534 3.54935,4.07169 0.22232,-0.57937 1.00505,-0.8291 2.5809,-0.82347 2.73243,0.0102 3.39479,0.38065 3.83875,2.14955 0.38154,1.52025 -0.27349,2.26647 -2.44374,2.78381 l -1.39505,0.33256 2.05541,2.05543 2.05545,2.05543 v 11.17348 11.17348 l -5.94326,-0.14935 -5.94322,-0.14936 -0.16393,-1.98108 -0.16392,-1.98106 H 96.887354 82.127208 v 1.2775 c 0,2.8469 -0.219075,2.94879 -6.339446,2.94879 -4.708602,0 -5.753802,-0.14516 -6.018781,-0.83563 z m 9.807273,-14.83072 c 1.252654,-1.13365 1.231929,-2.94768 -0.04692,-4.105 -1.370299,-1.2401 -3.27393,-0.86837 -4.220793,0.8242 -0.697719,1.24724 -0.684561,1.53552 0.126589,2.7735 1.037373,1.58323 2.723926,1.78983 4.141107,0.5073 z m 38.474485,-0.18229 c 1.27155,-1.27155 1.32108,-2.02872 0.23419,-3.58046 -0.97382,-1.39035 -2.67738,-1.51729 -4.02268,-0.29982 -1.20144,1.08729 -1.2388,2.70332 -0.0918,3.97074 1.13921,1.25881 2.56424,1.22556 3.88029,-0.0905 z m -6.4885,-15.39149 c -0.93499,-1.70763 -2.19798,-3.73916 -2.80669,-4.51453 l -1.10671,-1.40976 H 96.975844 c -12.259906,0 -11.280936,-0.3731 -14.529347,5.53724 l -1.925815,3.50395 16.370722,-0.006 16.370726,-0.006 -1.69995,-3.10477 z m 15.62695,30.82036 c -0.45642,-0.29011 -0.75908,-5.08357 -1.07671,-17.05281 -0.40137,-15.12516 -0.53669,-16.80989 -1.47826,-18.40398 -1.2249,-2.07371 -4.98063,-4.3994 -5.37647,-3.32928 -0.57504,1.55457 -2.96652,3.81055 -4.03942,3.81055 -0.78201,0 -1.48253,-0.61074 -2.17469,-1.896 -1.64936,-3.06267 -3.12948,-3.91413 -6.81853,-3.92237 -4.58966,-0.0102 -5.60784,-0.37148 -5.60784,-1.98953 0,-0.96447 0.93184,-2.22643 3.29241,-4.45872 2.69652,-2.54999 3.58096,-3.0901 4.88667,-2.98415 0.87682,0.0711 2.1135,-0.15314 2.74814,-0.49836 2.39044,-1.30047 5.81229,-0.19368 6.92036,2.23819 l 0.61981,1.36035 h -2.89424 c -2.18988,0 -3.15142,0.25713 -3.95085,1.05657 -1.12627,1.12628 -1.4179,3.41235 -0.50712,3.97524 0.35408,0.21883 0.43173,-0.12959 0.21838,-0.97961 -0.24062,-0.9587 -0.0102,-1.63973 0.84182,-2.49213 1.11002,-1.11002 1.48797,-1.1577 7.04559,-0.88896 8.50295,0.41117 12.33026,1.73433 16.15741,5.58586 5.42078,5.45529 6.36855,9.27188 6.83336,27.51717 0.34754,13.64157 0.32117,13.77171 -2.79111,13.77171 -3.20265,0 -3.49003,-0.60038 -4.30702,-8.99806 -0.40896,-4.20364 -0.75063,-8.07306 -0.75925,-8.59868 -0.008,-0.52563 -0.22129,-0.8286 -0.47255,-0.67332 -0.25126,0.15534 -0.63003,4.03243 -0.8417,8.61585 -0.21167,4.58342 -0.62951,8.63066 -0.92856,8.99385 -0.59271,0.71986 -4.51747,0.89036 -5.53963,0.24062 z M 94.623784,188.81316 c -1.09155,-1.20614 -1.1019,-1.90056 -0.0441,-2.95832 1.26623,-1.26624 3.31943,-1.0482 3.9901,0.42374 1.24442,2.73124 -1.92538,4.7673 -3.94596,2.53458 z m 36.898206,-0.91939 c -1.45278,-0.7076 -3.55991,-1.4396 -4.68252,-1.62665 l -2.04108,-0.3401 0.27223,-2.4151 c 0.38689,-3.43261 2.59098,-5.35498 6.13971,-5.35498 2.09972,0 2.87364,0.2769 4.17707,1.49447 2.14093,1.99995 2.63194,4.68645 1.33988,7.33137 -0.53843,1.10223 -1.33556,2.0476 -1.7714,2.10078 -0.43586,0.0533 -1.98108,-0.4822 -3.43389,-1.18979 z m -30.55762,-5.01132 c -2.407416,-1.89367 -1.267556,-5.78207 1.69498,-5.78207 2.96403,0 4.67445,3.05474 2.87702,5.13828 -1.4631,1.69597 -2.96544,1.90752 -4.572,0.64379 z m 15.21326,-2.8404 c -0.82738,-0.61432 -0.91613,-0.95648 -0.44667,-1.72209 0.73941,-1.20583 1.77192,-1.2226 2.51733,-0.0409 0.43979,0.69719 0.38498,1.10652 -0.2306,1.72209 -0.70849,0.7085 -0.93412,0.71351 -1.84006,0.0409 z m -21.535576,-0.38152 c -1.07737,-0.60292 -1.1656,-2.2042 -0.16712,-3.03287 1.37551,-1.14158 3.32173,0.53293 2.65099,2.28087 -0.39808,1.03736 -1.4207,1.34697 -2.48385,0.752 z m 14.251656,-0.7992 c -0.59705,-0.59705 -0.3901,-2.12843 0.37327,-2.76197 1.39492,-1.15768 3.31974,0.53811 2.63529,2.32174 -0.30585,0.797 -2.35232,1.09647 -3.00856,0.44023 z m -4.9362,-4.71985 c -0.40515,-1.05582 0.87981,-1.93019 1.76138,-1.19856 0.79939,0.66342 0.33714,2.04429 -0.68434,2.04429 -0.41387,0 -0.89854,-0.38059 -1.07704,-0.84573 z"
       id="path35788"
       sodipodi:nodetypes="ssscsssssssssssscccccccccccsssssssssssssssscscsscccccsssssscssssscsssscssssscssssssssssscsssssssssssssssssssssssssssss" /></g></svg>
