<?xml version="1.0" encoding="UTF-8" standalone="no"?>
<!-- Created with Inkscape (http://www.inkscape.org/) -->

<svg
   width="146.31458mm"
   height="146.37469mm"
   viewBox="0 0 146.31458 146.37469"
   version="1.1"
   id="svg5"
   xml:space="preserve"
   inkscape:export-filename="inflation-station.svg"
   inkscape:export-xdpi="96"
   inkscape:export-ydpi="96"
   xmlns:inkscape="http://www.inkscape.org/namespaces/inkscape"
   xmlns:sodipodi="http://sodipodi.sourceforge.net/DTD/sodipodi-0.dtd"
   xmlns="http://www.w3.org/2000/svg"
   xmlns:svg="http://www.w3.org/2000/svg"><sodipodi:namedview
     id="namedview7"
     pagecolor="#ffffff"
     bordercolor="#000000"
     borderopacity="0.25"
     inkscape:showpageshadow="2"
     inkscape:pageopacity="0.0"
     inkscape:pagecheckerboard="0"
     inkscape:deskcolor="#d1d1d1"
     inkscape:document-units="mm"
     showgrid="true"><inkscape:grid
       type="xygrid"
       id="grid337" /></sodipodi:namedview><defs
     id="defs2" /><g
     inkscape:label="Calque 1"
     inkscape:groupmode="layer"
     id="layer1"
     transform="translate(-31.686459,-128.96771)"><path
       style="fill:#000000;stroke-width:0.264583"
       d="m 38.94381,275.05387 c -2.72541,-0.73727 -5.27123,-2.94314 -6.55345,-5.67836 l -0.7039,-1.50155 V 202.125 136.37604 l 0.71329,-1.52205 c 0.9979,-2.12938 3.03152,-4.19407 5.04871,-5.12583 l 1.64633,-0.76045 h 65.74896 65.74896 l 1.64633,0.76045 c 2.01719,0.93176 4.05081,2.99645 5.04871,5.12583 l 0.71329,1.52205 v 65.74896 65.74896 l -0.71329,1.52205 c -0.9979,2.12938 -3.03152,4.19407 -5.04871,5.12582 l -1.64633,0.76046 -65.21979,0.0494 c -51.09285,0.0387 -65.48174,-0.0215 -66.42911,-0.27778 z m 132.49692,-1.26982 c 2.08892,-0.78156 4.28051,-2.97315 5.06207,-5.06207 l 0.5722,-1.52933 V 202.125 137.05735 l -0.5722,-1.52933 c -0.78255,-2.09158 -2.9729,-4.28042 -5.06764,-5.06416 l -1.5349,-0.57428 -65.40273,0.0682 -65.40274,0.0682 -1.50881,0.74093 c -1.88919,0.92772 -3.71176,2.91812 -4.43009,4.83804 -0.54272,1.45055 -0.54339,1.53251 -0.54339,66.51999 0,64.77552 0.002,65.0741 0.53799,66.50556 0.60212,1.60929 2.17406,3.54433 3.59033,4.41964 2.15893,1.33428 -1.27111,1.26945 68.15915,1.28835 l 65.01143,0.0177 z m -126.6574,-1.54447 c -4.36692,-0.11802 -5.01043,-0.1942 -5.96712,-0.70637 -1.48631,-0.79572 -2.71599,-2.09795 -3.45538,-3.65925 l -0.62649,-1.32292 V 202.125 137.69896 l 0.61735,-1.32292 c 0.71445,-1.53097 2.39491,-3.15031 4.01115,-3.86525 1.09319,-0.48357 3.03246,-0.49842 65.47387,-0.50144 l 64.34731,-0.003 1.23351,0.54432 c 1.62761,0.71822 3.13437,2.19302 3.90839,3.82549 l 0.62724,1.32292 v 64.42604 64.42604 l -0.62724,1.32292 c -0.78315,1.65172 -2.277,3.10129 -3.9978,3.87928 l -1.32291,0.59811 -59.66354,0.0103 c -32.81495,0.006 -61.8662,-0.0493 -64.55834,-0.12204 z M 161.46458,202.125 V 145.50417 H 104.84375 48.22292 v 56.62083 56.62083 h 56.62083 56.62083 z"
       id="path35695"
       inkscape:export-filename=".\repair.svg"
       inkscape:export-xdpi="96"
       inkscape:export-ydpi="96"
       sodipodi:nodetypes="sscccsscccsscccsscssssscccsscccssscsscscsscccssccsscccssccccccccccccc" /><path
       style="fill:#0000fe;fill-opacity:1;stroke:none;stroke-width:2.4552;stroke-linecap:square;stroke-linejoin:miter;stroke-miterlimit:4;stroke-dasharray:none;stroke-opacity:0.992157"
       d="m 151.51781,1027.0249 c -6.04489,-1.4272 -10.45896,-4.9342 -15.42529,-12.2554 l -4.22244,-6.2246 V 764.04454 519.54415 l 3.82818,-6.03642 c 2.10551,-3.32003 6.30134,-7.67317 9.32407,-9.67365 l 5.49589,-3.63723 245.01622,-0.35716 245.01622,-0.35716 6.16933,3.91248 c 3.47071,2.20105 7.86665,6.58883 10.04949,10.03082 l 3.88013,6.11832 v 244.39286 244.39289 l -3.88013,6.1183 c -2.17042,3.4224 -6.57604,7.828 -9.99845,9.9984 l -6.11833,3.8802 -242.3736,-0.133 c -133.30547,-0.073 -244.34805,-0.5992 -246.76129,-1.1689 z M 611.27953,763.93701 V 548.91732 H 396.25984 181.24016 v 215.01969 215.01968 h 215.01968 215.01969 z"
       id="path35697"
       transform="scale(0.26458333)" /><path
       style="fill:#000000;stroke-width:0.789968"
       d="m 90.879401,247.08669 c -11.656208,-3.05563 -16.742165,-7.42749 -16.096136,-13.8361 0.0876,-0.86896 0.48402,-1.91763 0.880937,-2.33041 0.396917,-0.41274 0.721669,-4.60471 0.721669,-9.31544 v -8.56495 l 3.357367,1.91915 c 3.132642,1.79068 8.538044,3.73139 13.295382,4.77346 1.695817,0.37149 1.988312,0.81468 1.740672,2.63752 -0.625641,4.60531 4.934002,10.48569 9.913738,10.48569 2.78009,0 6.97177,-2.23567 8.46527,-4.51505 0.724,-1.10495 1.36691,-3.3983 1.42871,-5.09637 0.0949,-2.60846 0.41868,-3.15484 2.08726,-3.52242 4.28315,-0.9436 11.69754,-3.5672 13.11653,-4.64131 3.08565,-2.33572 3.47282,-1.59714 3.47282,6.6249 0,4.90528 0.41025,8.78467 1.10329,10.43293 1.26213,3.00171 0.62747,5.51753 -2.14338,8.4964 -6.44776,6.93186 -27.1748,10.16643 -41.344129,6.452 z M 102.05985,229.7688 c -5.673563,-2.4295 -6.236584,-8.11545 -1.47096,-14.85515 1.77813,-2.51468 3.71927,-4.57214 4.31366,-4.57214 0.59438,0 2.50051,2.06567 4.23584,4.59035 3.88013,5.64511 4.26139,9.70845 1.19818,12.76982 -2.17812,2.17679 -5.86831,3.09842 -8.27672,2.06712 z m -12.0627,-13.14736 c -7.699587,-2.07291 -13.259529,-5.64012 -14.896208,-9.55725 -0.959721,-2.29693 -0.947885,-3.02631 0.08936,-5.50881 0.806055,-1.92916 1.195555,-5.52452 1.195555,-11.03578 v -8.17436 l 2.881371,1.95534 c 5.01579,3.4038 12.398896,5.2378 22.792612,5.66177 12.81096,0.52256 19.68068,-0.98093 30.56111,-6.6885 0.29827,-0.15645 0.71256,3.55909 0.92065,8.2568 0.20807,4.69769 0.62394,10.0568 0.92412,11.90913 0.68713,4.24015 -0.63406,6.43426 -5.64154,9.36883 -2.99992,1.75807 -12.52105,5.0376 -14.62516,5.0376 -0.29397,0 -1.42528,-1.51083 -2.51402,-3.35737 -1.08873,-1.84657 -3.07768,-4.40147 -4.41989,-5.67759 l -2.44038,-2.3202 -2.44038,2.3202 c -1.34221,1.27612 -3.331162,3.83102 -4.419891,5.67759 -2.196524,3.72542 -2.123529,3.70589 -7.967322,2.1326 z m 1.867606,-30.09242 c -22.923418,-4.91459 -22.597211,-20.32512 0.531364,-25.10246 19.82851,-4.09571 42.44744,2.56374 42.44744,12.49734 0,10.1125 -23.0597,16.87561 -42.978804,12.60512 z m 38.831464,-13.11854 c -0.187,-0.56102 -1.63699,-0.98747 -3.35737,-0.98747 -1.72038,0 -3.17037,0.42645 -3.35737,0.98747 -0.23199,0.6959 0.75925,0.98743 3.35737,0.98743 2.59812,0 3.58934,-0.29141 3.35737,-0.98743 z"
       id="path37501" /></g></svg>
