<?xml version="1.0" encoding="UTF-8" standalone="no"?>
<!-- Created with Inkscape (http://www.inkscape.org/) -->

<svg
   width="146.31458mm"
   height="146.37469mm"
   viewBox="0 0 146.31458 146.37469"
   version="1.1"
   id="svg5"
   xml:space="preserve"
   inkscape:export-filename="inflation-station.svg"
   inkscape:export-xdpi="96"
   inkscape:export-ydpi="96"
   xmlns:inkscape="http://www.inkscape.org/namespaces/inkscape"
   xmlns:sodipodi="http://sodipodi.sourceforge.net/DTD/sodipodi-0.dtd"
   xmlns="http://www.w3.org/2000/svg"
   xmlns:svg="http://www.w3.org/2000/svg"><sodipodi:namedview
     id="namedview7"
     pagecolor="#ffffff"
     bordercolor="#000000"
     borderopacity="0.25"
     inkscape:showpageshadow="2"
     inkscape:pageopacity="0.0"
     inkscape:pagecheckerboard="0"
     inkscape:deskcolor="#d1d1d1"
     inkscape:document-units="mm"
     showgrid="true"><inkscape:grid
       type="xygrid"
       id="grid337" /></sodipodi:namedview><defs
     id="defs2" /><g
     inkscape:label="Calque 1"
     inkscape:groupmode="layer"
     id="layer1"
     transform="translate(-31.686459,-128.96771)"><path
       style="fill:#000000;stroke-width:0.264583"
       d="m 38.94381,275.05387 c -2.72541,-0.73727 -5.27123,-2.94314 -6.55345,-5.67836 l -0.7039,-1.50155 V 202.125 136.37604 l 0.71329,-1.52205 c 0.9979,-2.12938 3.03152,-4.19407 5.04871,-5.12583 l 1.64633,-0.76045 h 65.74896 65.74896 l 1.64633,0.76045 c 2.01719,0.93176 4.05081,2.99645 5.04871,5.12583 l 0.71329,1.52205 v 65.74896 65.74896 l -0.71329,1.52205 c -0.9979,2.12938 -3.03152,4.19407 -5.04871,5.12582 l -1.64633,0.76046 -65.21979,0.0494 c -51.09285,0.0387 -65.48174,-0.0215 -66.42911,-0.27778 z m 132.49692,-1.26982 c 2.08892,-0.78156 4.28051,-2.97315 5.06207,-5.06207 l 0.5722,-1.52933 V 202.125 137.05735 l -0.5722,-1.52933 c -0.78255,-2.09158 -2.9729,-4.28042 -5.06764,-5.06416 l -1.5349,-0.57428 -65.40273,0.0682 -65.40274,0.0682 -1.50881,0.74093 c -1.88919,0.92772 -3.71176,2.91812 -4.43009,4.83804 -0.54272,1.45055 -0.54339,1.53251 -0.54339,66.51999 0,64.77552 0.002,65.0741 0.53799,66.50556 0.60212,1.60929 2.17406,3.54433 3.59033,4.41964 2.15893,1.33428 -1.27111,1.26945 68.15915,1.28835 l 65.01143,0.0177 z m -126.6574,-1.54447 c -4.36692,-0.11802 -5.01043,-0.1942 -5.96712,-0.70637 -1.48631,-0.79572 -2.71599,-2.09795 -3.45538,-3.65925 l -0.62649,-1.32292 V 202.125 137.69896 l 0.61735,-1.32292 c 0.71445,-1.53097 2.39491,-3.15031 4.01115,-3.86525 1.09319,-0.48357 3.03246,-0.49842 65.47387,-0.50144 l 64.34731,-0.003 1.23351,0.54432 c 1.62761,0.71822 3.13437,2.19302 3.90839,3.82549 l 0.62724,1.32292 v 64.42604 64.42604 l -0.62724,1.32292 c -0.78315,1.65172 -2.277,3.10129 -3.9978,3.87928 l -1.32291,0.59811 -59.66354,0.0103 c -32.81495,0.006 -61.8662,-0.0493 -64.55834,-0.12204 z M 161.46458,202.125 V 145.50417 H 104.84375 48.22292 v 56.62083 56.62083 h 56.62083 56.62083 z"
       id="path35695"
       inkscape:export-filename=".\restaurant.svg"
       inkscape:export-xdpi="96"
       inkscape:export-ydpi="96"
       sodipodi:nodetypes="sscccsscccsscccsscssssscccsscccssscsscscsscccssccsscccssccccccccccccc" /><path
       style="fill:#0000fe;fill-opacity:1;stroke:none;stroke-width:2.4552;stroke-linecap:square;stroke-linejoin:miter;stroke-miterlimit:4;stroke-dasharray:none;stroke-opacity:0.992157"
       d="m 151.51781,1027.0249 c -6.04489,-1.4272 -10.45896,-4.9342 -15.42529,-12.2554 l -4.22244,-6.2246 V 764.04454 519.54415 l 3.82818,-6.03642 c 2.10551,-3.32003 6.30134,-7.67317 9.32407,-9.67365 l 5.49589,-3.63723 245.01622,-0.35716 245.01622,-0.35716 6.16933,3.91248 c 3.47071,2.20105 7.86665,6.58883 10.04949,10.03082 l 3.88013,6.11832 v 244.39286 244.39289 l -3.88013,6.1183 c -2.17042,3.4224 -6.57604,7.828 -9.99845,9.9984 l -6.11833,3.8802 -242.3736,-0.133 c -133.30547,-0.073 -244.34805,-0.5992 -246.76129,-1.1689 z M 611.27953,763.93701 V 548.91732 H 396.25984 181.24016 v 215.01969 215.01968 h 215.01968 215.01969 z"
       id="path35697"
       transform="scale(0.26458333)" /><path
       style="fill:#000000;stroke-width:0.725356"
       d="m 85.211602,233.1402 c -8.697648,-4.88364 -16.292334,-9.35775 -16.877097,-9.94251 -0.88918,-0.88915 -1.031437,-4.10138 -0.869305,-19.62741 l 0.193825,-18.56424 17.213919,9.53572 17.213946,9.53573 0.0137,19.04061 c 0.008,10.47234 -0.23166,19.00931 -0.53073,18.97101 -0.29921,-0.0384 -7.660263,-4.0653 -16.357911,-8.94891 z M 98.0472,225.29417 c 1.16876,-1.86661 -0.0924,-3.39639 -4.913165,-5.96025 l -4.136769,-2.2 -1.410258,1.6994 c -1.816084,2.18844 -1.039004,3.73571 3.097107,6.16675 3.494818,2.0541 6.193584,2.16189 7.363085,0.2941 z m 9.86992,-2.11562 7.1e-4,-19.10106 5.76506,-3.11213 5.76506,-3.1121 0.21849,4.12506 c 0.24455,4.61853 1.69171,6.38741 4.02654,4.92163 0.98343,-0.61736 1.35109,-2.13146 1.63207,-6.72129 l 0.36267,-5.92443 8.34161,-4.62533 8.34159,-4.6253 0.19382,18.5146 c 0.13598,13.00132 -0.0513,18.80986 -0.62912,19.50614 -0.64809,0.78092 -30.95841,18.02697 -33.41661,19.01347 -0.33136,0.13297 -0.60217,-8.35367 -0.60176,-18.85926 z M 88.331766,189.51351 c -8.976296,-5.00075 -16.554587,-9.32416 -16.840636,-9.60758 -0.286076,-0.28342 1.913407,-1.87102 4.88775,-3.52802 l 5.40784,-3.01272 16.71902,9.27846 c 9.19545,5.10315 16.8902,9.44965 17.09944,9.65888 0.32248,0.32248 -9.88903,6.36457 -10.67951,6.31903 -0.15024,-0.008 -7.61764,-4.10729 -16.593904,-9.10805 z m 24.299454,-6.03378 c -4.78736,-2.70417 -12.24066,-6.88439 -16.562868,-9.28935 l -7.858583,-4.37267 7.984171,-4.4495 c 4.39129,-2.4472 8.35663,-4.44946 8.81186,-4.44946 0.45525,0 8.31732,4.16174 17.47129,9.24831 14.72924,8.18455 16.49677,9.35725 15.36724,10.19561 -2.49776,1.85388 -14.52921,8.11891 -15.51059,8.07669 -0.54904,-0.0247 -4.91517,-2.25546 -9.70252,-4.95963 z"
       id="path37138" /></g></svg>
