<?xml version="1.0" encoding="UTF-8" standalone="no"?>
<!-- Created with Inkscape (http://www.inkscape.org/) -->

<svg
   width="146.31458mm"
   height="146.37469mm"
   viewBox="0 0 146.31458 146.37469"
   version="1.1"
   id="svg5"
   xml:space="preserve"
   inkscape:export-filename="inflation-station.svg"
   inkscape:export-xdpi="96"
   inkscape:export-ydpi="96"
   xmlns:inkscape="http://www.inkscape.org/namespaces/inkscape"
   xmlns:sodipodi="http://sodipodi.sourceforge.net/DTD/sodipodi-0.dtd"
   xmlns="http://www.w3.org/2000/svg"
   xmlns:svg="http://www.w3.org/2000/svg"><sodipodi:namedview
     id="namedview7"
     pagecolor="#ffffff"
     bordercolor="#000000"
     borderopacity="0.25"
     inkscape:showpageshadow="2"
     inkscape:pageopacity="0.0"
     inkscape:pagecheckerboard="0"
     inkscape:deskcolor="#d1d1d1"
     inkscape:document-units="mm"
     showgrid="true"><inkscape:grid
       type="xygrid"
       id="grid337" /></sodipodi:namedview><defs
     id="defs2" /><g
     inkscape:label="Calque 1"
     inkscape:groupmode="layer"
     id="layer1"
     transform="translate(-31.686459,-128.96771)"><path
       style="fill:#000000;stroke-width:0.264583"
       d="m 38.94381,275.05387 c -2.72541,-0.73727 -5.27123,-2.94314 -6.55345,-5.67836 l -0.7039,-1.50155 V 202.125 136.37604 l 0.71329,-1.52205 c 0.9979,-2.12938 3.03152,-4.19407 5.04871,-5.12583 l 1.64633,-0.76045 h 65.74896 65.74896 l 1.64633,0.76045 c 2.01719,0.93176 4.05081,2.99645 5.04871,5.12583 l 0.71329,1.52205 v 65.74896 65.74896 l -0.71329,1.52205 c -0.9979,2.12938 -3.03152,4.19407 -5.04871,5.12582 l -1.64633,0.76046 -65.21979,0.0494 c -51.09285,0.0387 -65.48174,-0.0215 -66.42911,-0.27778 z m 132.49692,-1.26982 c 2.08892,-0.78156 4.28051,-2.97315 5.06207,-5.06207 l 0.5722,-1.52933 V 202.125 137.05735 l -0.5722,-1.52933 c -0.78255,-2.09158 -2.9729,-4.28042 -5.06764,-5.06416 l -1.5349,-0.57428 -65.40273,0.0682 -65.40274,0.0682 -1.50881,0.74093 c -1.88919,0.92772 -3.71176,2.91812 -4.43009,4.83804 -0.54272,1.45055 -0.54339,1.53251 -0.54339,66.51999 0,64.77552 0.002,65.0741 0.53799,66.50556 0.60212,1.60929 2.17406,3.54433 3.59033,4.41964 2.15893,1.33428 -1.27111,1.26945 68.15915,1.28835 l 65.01143,0.0177 z m -126.6574,-1.54447 c -4.36692,-0.11802 -5.01043,-0.1942 -5.96712,-0.70637 -1.48631,-0.79572 -2.71599,-2.09795 -3.45538,-3.65925 l -0.62649,-1.32292 V 202.125 137.69896 l 0.61735,-1.32292 c 0.71445,-1.53097 2.39491,-3.15031 4.01115,-3.86525 1.09319,-0.48357 3.03246,-0.49842 65.47387,-0.50144 l 64.34731,-0.003 1.23351,0.54432 c 1.62761,0.71822 3.13437,2.19302 3.90839,3.82549 l 0.62724,1.32292 v 64.42604 64.42604 l -0.62724,1.32292 c -0.78315,1.65172 -2.277,3.10129 -3.9978,3.87928 l -1.32291,0.59811 -59.66354,0.0103 c -32.81495,0.006 -61.8662,-0.0493 -64.55834,-0.12204 z M 161.46458,202.125 V 145.50417 H 104.84375 48.22292 v 56.62083 56.62083 h 56.62083 56.62083 z"
       id="path35695"
       inkscape:export-filename=".\showers.svg"
       inkscape:export-xdpi="96"
       inkscape:export-ydpi="96"
       sodipodi:nodetypes="sscccsscccsscccsscssssscccsscccssscsscscsscccssccsscccssccccccccccccc" /><path
       style="fill:#0000fe;fill-opacity:1;stroke:none;stroke-width:2.4552;stroke-linecap:square;stroke-linejoin:miter;stroke-miterlimit:4;stroke-dasharray:none;stroke-opacity:0.992157"
       d="m 151.51781,1027.0249 c -6.04489,-1.4272 -10.45896,-4.9342 -15.42529,-12.2554 l -4.22244,-6.2246 V 764.04454 519.54415 l 3.82818,-6.03642 c 2.10551,-3.32003 6.30134,-7.67317 9.32407,-9.67365 l 5.49589,-3.63723 245.01622,-0.35716 245.01622,-0.35716 6.16933,3.91248 c 3.47071,2.20105 7.86665,6.58883 10.04949,10.03082 l 3.88013,6.11832 v 244.39286 244.39289 l -3.88013,6.1183 c -2.17042,3.4224 -6.57604,7.828 -9.99845,9.9984 l -6.11833,3.8802 -242.3736,-0.133 c -133.30547,-0.073 -244.34805,-0.5992 -246.76129,-1.1689 z M 611.27953,763.93701 V 548.91732 H 396.25984 181.24016 v 215.01969 215.01968 h 215.01968 215.01969 z"
       id="path35697"
       transform="scale(0.26458333)" /><path
       style="fill:#000000;stroke-width:0.595181"
       d="m 74.900036,241.18249 c -1.111817,-0.82235 -1.060056,-0.95206 1.3742,-3.44482 2.321062,-2.37683 2.529524,-2.84599 2.529524,-5.69249 V 228.943 h -3.102158 c -2.846523,0 -3.315657,0.20853 -5.692484,2.52953 -2.492789,2.43428 -2.622496,2.48601 -3.444825,1.3742 -1.19019,-1.60914 -1.049866,-6.6944 0.263732,-9.55795 2.294698,-5.00231 6.993239,-7.9996 12.57498,-8.02187 l 3.277552,-0.0135 16.214638,-16.22269 16.214655,-16.22269 0.0135,-3.2695 c 0.0225,-5.57326 3.0227,-10.27367 8.02187,-12.56695 2.86355,-1.31357 7.94881,-1.4539 9.55794,-0.26373 1.11182,0.82235 1.06008,0.95206 -1.3742,3.44483 -2.32103,2.37682 -2.52952,2.84598 -2.52952,5.69248 v 3.10218 h 3.10218 c 2.8465,0 3.31566,-0.20853 5.69249,-2.52952 2.49276,-2.43428 2.62247,-2.48602 3.44482,-1.3742 1.19017,1.60914 1.04984,6.69439 -0.26375,9.55794 -2.2947,5.00232 -6.99324,7.99962 -12.57498,8.02187 l -3.27756,0.0135 -16.21463,16.22269 -16.214645,16.22266 -0.0135,3.26952 c -0.0306,7.64787 -6.005281,13.68518 -13.543237,13.68518 -1.584686,0 -3.401161,-0.38453 -4.036602,-0.8545 z m 51.101764,-0.2119 c -2.42834,-1.29628 -20.24624,-18.89114 -20.75551,-20.49569 -0.30782,-0.9699 0.99658,-2.5888 6.66544,-8.27247 3.87651,-3.8866 7.42004,-7.06657 7.87455,-7.06657 1.27547,0 19.68061,18.44695 21.03618,21.084 1.62437,3.15995 1.26125,7.72651 -0.87051,10.94785 -2.86149,4.324 -9.55547,6.1488 -13.95015,3.80288 z m 6.0282,-8.79651 c 0.51442,-0.5144 0.93528,-1.18041 0.93528,-1.48 0,-1.14801 -12.21637,-12.43179 -13.4767,-12.44792 -1.4918,-0.0202 -2.22471,1.42389 -1.45435,2.86332 0.75176,1.40469 11.77186,11.9999 12.48111,11.9999 0.31867,0 1.00027,-0.42088 1.51466,-0.9353 z M 85.941484,192.33487 c -3.751387,-3.76205 -7.127084,-6.84011 -7.501514,-6.84011 -0.374453,0 -1.014234,0.40176 -1.421755,0.89278 -0.407498,0.49103 -1.095689,0.89276 -1.529281,0.89276 -0.911364,0 -9.77916,-14.01509 -9.77916,-15.45542 0,-1.21449 4.79437,-5.97111 6.018505,-5.97111 1.407246,0 15.408029,8.88602 15.408029,9.77916 0,0.43359 -0.401739,1.12178 -0.892783,1.5293 -0.491022,0.4075 -0.892761,1.03889 -0.892761,1.40309 0,0.36419 3.082631,3.75285 6.850305,7.53037 l 6.850306,6.86819 -3.14458,3.10556 -3.14461,3.10553 z"
       id="path37455" /></g></svg>
