<?xml version="1.0" encoding="UTF-8" standalone="no"?>
<!-- Created with Inkscape (http://www.inkscape.org/) -->

<svg
   width="146.31458mm"
   height="146.37469mm"
   viewBox="0 0 146.31458 146.37469"
   version="1.1"
   id="svg5"
   xml:space="preserve"
   inkscape:export-filename="inflation-station.svg"
   inkscape:export-xdpi="96"
   inkscape:export-ydpi="96"
   xmlns:inkscape="http://www.inkscape.org/namespaces/inkscape"
   xmlns:sodipodi="http://sodipodi.sourceforge.net/DTD/sodipodi-0.dtd"
   xmlns="http://www.w3.org/2000/svg"
   xmlns:svg="http://www.w3.org/2000/svg"><sodipodi:namedview
     id="namedview7"
     pagecolor="#ffffff"
     bordercolor="#000000"
     borderopacity="0.25"
     inkscape:showpageshadow="2"
     inkscape:pageopacity="0.0"
     inkscape:pagecheckerboard="0"
     inkscape:deskcolor="#d1d1d1"
     inkscape:document-units="mm"
     showgrid="true"><inkscape:grid
       type="xygrid"
       id="grid337" /></sodipodi:namedview><defs
     id="defs2" /><g
     inkscape:label="Calque 1"
     inkscape:groupmode="layer"
     id="layer1"
     transform="translate(-31.686459,-128.96771)"><path
       style="fill:#000000;stroke-width:0.264583"
       d="m 38.94381,275.05387 c -2.72541,-0.73727 -5.27123,-2.94314 -6.55345,-5.67836 l -0.7039,-1.50155 V 202.125 136.37604 l 0.71329,-1.52205 c 0.9979,-2.12938 3.03152,-4.19407 5.04871,-5.12583 l 1.64633,-0.76045 h 65.74896 65.74896 l 1.64633,0.76045 c 2.01719,0.93176 4.05081,2.99645 5.04871,5.12583 l 0.71329,1.52205 v 65.74896 65.74896 l -0.71329,1.52205 c -0.9979,2.12938 -3.03152,4.19407 -5.04871,5.12582 l -1.64633,0.76046 -65.21979,0.0494 c -51.09285,0.0387 -65.48174,-0.0215 -66.42911,-0.27778 z m 132.49692,-1.26982 c 2.08892,-0.78156 4.28051,-2.97315 5.06207,-5.06207 l 0.5722,-1.52933 V 202.125 137.05735 l -0.5722,-1.52933 c -0.78255,-2.09158 -2.9729,-4.28042 -5.06764,-5.06416 l -1.5349,-0.57428 -65.40273,0.0682 -65.40274,0.0682 -1.50881,0.74093 c -1.88919,0.92772 -3.71176,2.91812 -4.43009,4.83804 -0.54272,1.45055 -0.54339,1.53251 -0.54339,66.51999 0,64.77552 0.002,65.0741 0.53799,66.50556 0.60212,1.60929 2.17406,3.54433 3.59033,4.41964 2.15893,1.33428 -1.27111,1.26945 68.15915,1.28835 l 65.01143,0.0177 z m -126.6574,-1.54447 c -4.36692,-0.11802 -5.01043,-0.1942 -5.96712,-0.70637 -1.48631,-0.79572 -2.71599,-2.09795 -3.45538,-3.65925 l -0.62649,-1.32292 V 202.125 137.69896 l 0.61735,-1.32292 c 0.71445,-1.53097 2.39491,-3.15031 4.01115,-3.86525 1.09319,-0.48357 3.03246,-0.49842 65.47387,-0.50144 l 64.34731,-0.003 1.23351,0.54432 c 1.62761,0.71822 3.13437,2.19302 3.90839,3.82549 l 0.62724,1.32292 v 64.42604 64.42604 l -0.62724,1.32292 c -0.78315,1.65172 -2.277,3.10129 -3.9978,3.87928 l -1.32291,0.59811 -59.66354,0.0103 c -32.81495,0.006 -61.8662,-0.0493 -64.55834,-0.12204 z M 161.46458,202.125 V 145.50417 H 104.84375 48.22292 v 56.62083 56.62083 h 56.62083 56.62083 z"
       id="path35695"
       inkscape:export-filename=".\domestic-fuel.svg"
       inkscape:export-xdpi="96"
       inkscape:export-ydpi="96"
       sodipodi:nodetypes="sscccsscccsscccsscssssscccsscccssscsscscsscccssccsscccssccccccccccccc" /><path
       style="fill:#0000fe;fill-opacity:1;stroke:none;stroke-width:2.4552;stroke-linecap:square;stroke-linejoin:miter;stroke-miterlimit:4;stroke-dasharray:none;stroke-opacity:0.992157"
       d="m 151.51781,1027.0249 c -6.04489,-1.4272 -10.45896,-4.9342 -15.42529,-12.2554 l -4.22244,-6.2246 V 764.04454 519.54415 l 3.82818,-6.03642 c 2.10551,-3.32003 6.30134,-7.67317 9.32407,-9.67365 l 5.49589,-3.63723 245.01622,-0.35716 245.01622,-0.35716 6.16933,3.91248 c 3.47071,2.20105 7.86665,6.58883 10.04949,10.03082 l 3.88013,6.11832 v 244.39286 244.39289 l -3.88013,6.1183 c -2.17042,3.4224 -6.57604,7.828 -9.99845,9.9984 l -6.11833,3.8802 -242.3736,-0.133 c -133.30547,-0.073 -244.34805,-0.5992 -246.76129,-1.1689 z M 611.27953,763.93701 V 548.91732 H 396.25984 181.24016 v 215.01969 215.01968 h 215.01968 215.01969 z"
       id="path35697"
       transform="scale(0.26458333)" /><path
       style="fill:#000000;stroke-width:0.640899"
       d="m 70.18576,244.18398 c -0.180437,-0.47021 -0.248375,-15.8405 -0.150957,-34.15618 l 0.177118,-33.30121 1.58116,-3.0954 c 4.110772,-8.04756 14.133482,-12.46196 22.790885,-10.03803 2.867507,0.80284 6.070694,2.80323 6.070694,3.79111 0,0.27421 -1.514117,1.46624 -3.364717,2.64895 -2.763456,1.76613 -4.02139,2.16033 -7.039441,2.20602 -3.956549,0.0598 -6.011954,1.13169 -8.462783,4.41304 -1.284409,1.71966 -1.33037,2.69628 -1.641849,34.88943 l -0.32045,33.12027 -4.655792,0.18845 c -3.42718,0.1388 -4.742369,-0.0371 -4.983875,-0.66647 z m 48.22917,-5.40841 c -3.37405,-5.37239 -3.85946,-7.25205 -1.87281,-7.25205 1.29176,0 5.43546,6.64333 5.1289,8.22284 -0.36114,1.86071 -1.73506,1.45107 -3.25609,-0.97079 z m 13.53537,1.25984 c -1.92927,-2.23779 -3.28147,-5.18152 -2.87123,-6.25057 0.62721,-1.6345 1.76055,-0.90217 3.83978,2.48116 1.63855,2.66627 1.75785,3.16865 0.94539,3.98114 -0.81247,0.81246 -1.054,0.78575 -1.91394,-0.21171 z m 6.28856,-10.75503 c -0.5791,-0.5791 -1.0529,-1.44788 -1.0529,-1.93065 0,-1.5806 1.38393,-1.777 2.76811,-0.39282 1.23513,1.23513 1.26633,1.44776 0.34738,2.36671 -0.91897,0.91897 -1.10428,0.91507 -2.06259,-0.0434 z m -13.87547,-1.76247 c -2.86135,-4.70202 -4.03206,-7.38961 -3.65121,-8.38207 0.22152,-0.57728 0.79534,-0.89894 1.27515,-0.71482 1.20075,0.46077 6.40263,9.73468 5.90865,10.53395 -0.76767,1.24213 -2.27547,0.62875 -3.53259,-1.43706 z m -12.66747,-0.64089 c -0.35854,-0.44064 -1.56321,-2.35464 -2.67705,-4.25339 -2.03468,-3.46846 -2.16934,-5.1999 -0.40443,-5.1999 1.20415,0 5.74877,8.03852 5.2619,9.30727 -0.44432,1.15789 -1.30986,1.21585 -2.18042,0.14607 z m 19.78182,-8.93695 c -2.66608,-4.60496 -3.08513,-6.60488 -1.38395,-6.60488 1.04097,0 6.40719,8.4195 6.4336,10.09418 0.01,0.67475 -0.45995,1.12157 -1.18124,1.12157 -0.81282,0 -2.05859,-1.48487 -3.86841,-4.61087 z m 10.48453,-3.76902 c -1.26819,-2.00896 -1.48113,-2.81379 -0.92253,-3.48688 1.01887,-1.22767 2.08802,-0.63658 3.46144,1.91367 1.16089,2.15565 1.04588,4.185 -0.23714,4.185 -0.35915,0 -1.39493,-1.17532 -2.30174,-2.61179 z m -25.8955,-1.34852 c -1.65965,-1.78143 -2.35119,-4.22977 -1.4494,-5.13154 0.93664,-0.93666 1.87968,-0.18265 3.33178,2.6636 1.05695,2.0718 1.11447,2.57292 0.3666,3.19359 -0.69244,0.57469 -1.18587,0.41547 -2.24898,-0.72565 z m -20.161874,-6.34325 c -1.940365,-2.30601 -2.145638,-5.08007 -0.486984,-6.58115 2.674441,-2.42033 31.223258,-18.36477 32.882468,-18.36477 1.7536,0 3.9574,2.08438 4.70964,4.45448 0.92262,2.90695 -0.57093,4.10863 -16.60167,13.35726 -8.68099,5.00832 -16.472257,9.10605 -17.313927,9.10605 -0.92203,0 -2.18982,-0.78381 -3.189527,-1.97187 z m 39.671444,-3.25463 c -1.90535,-3.25099 -2.16432,-4.09218 -1.47271,-4.78355 0.46155,-0.4614 1.1607,-0.63302 1.55367,-0.38142 1.16224,0.74421 4.61675,7.43782 4.28795,8.30854 -0.64881,1.71818 -2.15444,0.63486 -4.36891,-3.14357 z m -11.58452,1.70649 c -1.12046,-1.71005 -0.84294,-3.5299 0.5383,-3.5299 1.05726,0 3.25475,3.6241 2.72108,4.4876 -0.69508,1.1247 -2.18103,0.68808 -3.25938,-0.9577 z M 94.4059,196.46731 c -0.50027,-0.18748 -0.801127,-1.55654 -0.801127,-3.6458 0,-6.52192 4.71056,-12.87464 12.100177,-16.31845 4.77001,-2.22299 11.90398,-2.38502 15.77897,-0.35838 4.76046,2.48976 4.28157,3.01707 -10.39069,11.44118 -7.32743,4.20707 -13.899417,7.99399 -14.604407,8.41538 -0.704989,0.42138 -1.642304,0.6311 -2.082923,0.46607 z m 0.758838,-19.04011 c -0.581833,-2.31822 0.587604,-3.86839 4.646225,-6.15894 4.152127,-2.34333 6.097547,-2.57607 7.899727,-0.94511 1.61179,1.45864 1.21434,1.99636 -2.78887,3.77309 -1.81819,0.80694 -4.21265,2.23361 -5.321017,3.17036 -2.50122,2.11389 -3.93281,2.16573 -4.436065,0.1606 z"
       id="path37409" /></g></svg>
