<?xml version="1.0" encoding="UTF-8" standalone="no"?>
<!-- Created with Inkscape (http://www.inkscape.org/) -->

<svg
   width="146.31458mm"
   height="146.37469mm"
   viewBox="0 0 146.31458 146.37469"
   version="1.1"
   id="svg5"
   xml:space="preserve"
   inkscape:export-filename="inflation-station.svg"
   inkscape:export-xdpi="96"
   inkscape:export-ydpi="96"
   xmlns:inkscape="http://www.inkscape.org/namespaces/inkscape"
   xmlns:sodipodi="http://sodipodi.sourceforge.net/DTD/sodipodi-0.dtd"
   xmlns="http://www.w3.org/2000/svg"
   xmlns:svg="http://www.w3.org/2000/svg"><sodipodi:namedview
     id="namedview7"
     pagecolor="#ffffff"
     bordercolor="#000000"
     borderopacity="0.25"
     inkscape:showpageshadow="2"
     inkscape:pageopacity="0.0"
     inkscape:pagecheckerboard="0"
     inkscape:deskcolor="#d1d1d1"
     inkscape:document-units="mm"
     showgrid="true"><inkscape:grid
       type="xygrid"
       id="grid337" /></sodipodi:namedview><defs
     id="defs2" /><g
     inkscape:label="Calque 1"
     inkscape:groupmode="layer"
     id="layer1"
     transform="translate(-31.686459,-128.96771)"><path
       style="fill:#000000;stroke-width:0.264583"
       d="m 38.94381,275.05387 c -2.72541,-0.73727 -5.27123,-2.94314 -6.55345,-5.67836 l -0.7039,-1.50155 V 202.125 136.37604 l 0.71329,-1.52205 c 0.9979,-2.12938 3.03152,-4.19407 5.04871,-5.12583 l 1.64633,-0.76045 h 65.74896 65.74896 l 1.64633,0.76045 c 2.01719,0.93176 4.05081,2.99645 5.04871,5.12583 l 0.71329,1.52205 v 65.74896 65.74896 l -0.71329,1.52205 c -0.9979,2.12938 -3.03152,4.19407 -5.04871,5.12582 l -1.64633,0.76046 -65.21979,0.0494 c -51.09285,0.0387 -65.48174,-0.0215 -66.42911,-0.27778 z m 132.49692,-1.26982 c 2.08892,-0.78156 4.28051,-2.97315 5.06207,-5.06207 l 0.5722,-1.52933 V 202.125 137.05735 l -0.5722,-1.52933 c -0.78255,-2.09158 -2.9729,-4.28042 -5.06764,-5.06416 l -1.5349,-0.57428 -65.40273,0.0682 -65.40274,0.0682 -1.50881,0.74093 c -1.88919,0.92772 -3.71176,2.91812 -4.43009,4.83804 -0.54272,1.45055 -0.54339,1.53251 -0.54339,66.51999 0,64.77552 0.002,65.0741 0.53799,66.50556 0.60212,1.60929 2.17406,3.54433 3.59033,4.41964 2.15893,1.33428 -1.27111,1.26945 68.15915,1.28835 l 65.01143,0.0177 z m -126.6574,-1.54447 c -4.36692,-0.11802 -5.01043,-0.1942 -5.96712,-0.70637 -1.48631,-0.79572 -2.71599,-2.09795 -3.45538,-3.65925 l -0.62649,-1.32292 V 202.125 137.69896 l 0.61735,-1.32292 c 0.71445,-1.53097 2.39491,-3.15031 4.01115,-3.86525 1.09319,-0.48357 3.03246,-0.49842 65.47387,-0.50144 l 64.34731,-0.003 1.23351,0.54432 c 1.62761,0.71822 3.13437,2.19302 3.90839,3.82549 l 0.62724,1.32292 v 64.42604 64.42604 l -0.62724,1.32292 c -0.78315,1.65172 -2.277,3.10129 -3.9978,3.87928 l -1.32291,0.59811 -59.66354,0.0103 c -32.81495,0.006 -61.8662,-0.0493 -64.55834,-0.12204 z M 161.46458,202.125 V 145.50417 H 104.84375 48.22292 v 56.62083 56.62083 h 56.62083 56.62083 z"
       id="path35695"
       inkscape:export-filename=".\additive-sales.svg"
       inkscape:export-xdpi="96"
       inkscape:export-ydpi="96"
       sodipodi:nodetypes="sscccsscccsscccsscssssscccsscccssscsscscsscccssccsscccssccccccccccccc" /><path
       style="fill:#0000fe;fill-opacity:1;stroke:none;stroke-width:2.4552;stroke-linecap:square;stroke-linejoin:miter;stroke-miterlimit:4;stroke-dasharray:none;stroke-opacity:0.992157"
       d="m 151.51781,1027.0249 c -6.04489,-1.4272 -10.45896,-4.9342 -15.42529,-12.2554 l -4.22244,-6.2246 V 764.04454 519.54415 l 3.82818,-6.03642 c 2.10551,-3.32003 6.30134,-7.67317 9.32407,-9.67365 l 5.49589,-3.63723 245.01622,-0.35716 245.01622,-0.35716 6.16933,3.91248 c 3.47071,2.20105 7.86665,6.58883 10.04949,10.03082 l 3.88013,6.11832 v 244.39286 244.39289 l -3.88013,6.1183 c -2.17042,3.4224 -6.57604,7.828 -9.99845,9.9984 l -6.11833,3.8802 -242.3736,-0.133 c -133.30547,-0.073 -244.34805,-0.5992 -246.76129,-1.1689 z M 611.27953,763.93701 V 548.91732 H 396.25984 181.24016 v 215.01969 215.01968 h 215.01968 215.01969 z"
       id="path35697"
       transform="scale(0.26458333)" /><path
       style="fill:#000000;stroke-width:0.678295"
       d="m 69.689615,241.63823 c 0,-1.11868 9.6797,-58.53901 10.292278,-61.05416 0.30673,-1.2594 0.87566,-1.45287 4.77254,-1.623 l 4.424296,-0.19311 0.39046,-4.58777 c 0.461637,-5.42408 1.990013,-8.16679 6.183819,-11.09696 6.062512,-4.23585 15.514992,-4.23585 21.577512,0 4.19381,2.93017 5.72218,5.67288 6.18381,11.09696 l 0.39045,4.58777 4.4243,0.19311 c 3.8969,0.17004 4.46582,0.3636 4.77253,1.623 0.61259,2.51515 10.29229,59.93548 10.29229,61.05416 0,0.98791 -3.013,1.07588 -36.85214,1.07588 -33.839136,0 -36.852145,-0.0879 -36.852145,-1.07588 z m 29.112925,-5.51272 c 0.58104,-0.99452 0.66881,-4.4308 0.30577,-11.97012 l -0.509227,-10.57516 1.935607,-3.6241 c 2.11195,-3.95433 2.10544,-6.88865 -0.022,-9.86284 -2.89294,-4.04456 -7.270495,-3.34097 -9.285534,1.49239 -1.390215,3.33464 -1.001578,6.56172 1.118718,9.28945 1.417503,1.82357 1.461196,2.40494 0.997893,13.27832 -0.522579,12.26476 -0.276532,13.36705 2.983689,13.36705 0.973022,0 1.997319,-0.5773 2.475014,-1.39499 z m 19.44331,0.49438 c 1.20631,-0.80803 1.32848,-1.69274 1.1879,-8.6019 -0.0862,-4.23571 -0.34662,-9.22416 -0.57879,-11.08546 -0.40648,-3.25877 -0.32628,-3.46699 2.16416,-5.61862 l 2.58629,-2.2344 -0.20464,-6.06702 c -0.26249,-7.78335 -1.55267,-7.7349 -1.82538,0.0685 -0.19045,5.45028 -0.32497,5.90587 -2.1261,7.20527 l -1.92272,1.38707 -0.20009,-7.57334 c -0.14786,-5.59785 -0.42522,-7.50494 -1.06306,-7.31113 -0.58877,0.17888 -0.92683,2.46266 -1.06407,7.1883 -0.1107,3.80934 -0.4865,6.92609 -0.83525,6.92609 -1.9803,0 -2.86143,-2.19696 -2.86143,-7.13448 0,-5.25235 -0.39599,-7.14793 -1.4932,-7.14793 -0.34809,0 -0.63289,2.76516 -0.63289,6.1448 0,5.96884 0.0641,6.21163 2.23575,8.47745 l 2.23576,2.3326 -0.4539,10.54276 c -0.38398,8.91857 -0.2855,10.76299 0.63921,11.97238 1.26576,1.65541 2.33111,1.78918 4.21252,0.52898 z M 92.857228,191.01447 c 0.58627,-1.39952 -0.672713,-3.15775 -2.261108,-3.15775 -0.694607,0 -1.587609,0.47152 -1.984461,1.04783 -1.082692,1.57235 -0.08194,3.17197 1.984461,3.17197 1.027727,0 2.009365,-0.4611 2.261108,-1.06205 z m 31.891262,0 c 0.58629,-1.39952 -0.67269,-3.15775 -2.2611,-3.15775 -0.6946,0 -1.5876,0.47152 -1.98444,1.04783 -1.0827,1.57235 -0.082,3.17197 1.98444,3.17197 1.02773,0 2.00939,-0.4611 2.2611,-1.06205 z m -4.14761,-16.37569 c -0.22662,-3.67312 -0.62987,-4.8803 -2.30095,-6.88728 -5.4379,-6.53092 -18.07843,-6.53092 -23.51634,0 -1.671083,2.00698 -2.074394,3.21416 -2.300953,6.88728 l -0.27473,4.45373 h 14.333853 14.33385 z"
       id="path36952" /></g></svg>
