<?xml version="1.0" encoding="UTF-8" standalone="no"?>
<!-- Created with Inkscape (http://www.inkscape.org/) -->

<svg
   width="146.31458mm"
   height="146.37469mm"
   viewBox="0 0 146.31458 146.37469"
   version="1.1"
   id="svg5"
   xml:space="preserve"
   inkscape:export-filename="inflation-station.svg"
   inkscape:export-xdpi="96"
   inkscape:export-ydpi="96"
   xmlns:inkscape="http://www.inkscape.org/namespaces/inkscape"
   xmlns:sodipodi="http://sodipodi.sourceforge.net/DTD/sodipodi-0.dtd"
   xmlns="http://www.w3.org/2000/svg"
   xmlns:svg="http://www.w3.org/2000/svg"><sodipodi:namedview
     id="namedview7"
     pagecolor="#ffffff"
     bordercolor="#000000"
     borderopacity="0.25"
     inkscape:showpageshadow="2"
     inkscape:pageopacity="0.0"
     inkscape:pagecheckerboard="0"
     inkscape:deskcolor="#d1d1d1"
     inkscape:document-units="mm"
     showgrid="true"><inkscape:grid
       type="xygrid"
       id="grid337" /></sodipodi:namedview><defs
     id="defs2" /><g
     inkscape:label="Calque 1"
     inkscape:groupmode="layer"
     id="layer1"
     transform="translate(-31.686459,-128.96771)"><path
       style="fill:#000000;stroke-width:0.264583"
       d="m 38.94381,275.05387 c -2.72541,-0.73727 -5.27123,-2.94314 -6.55345,-5.67836 l -0.7039,-1.50155 V 202.125 136.37604 l 0.71329,-1.52205 c 0.9979,-2.12938 3.03152,-4.19407 5.04871,-5.12583 l 1.64633,-0.76045 h 65.74896 65.74896 l 1.64633,0.76045 c 2.01719,0.93176 4.05081,2.99645 5.04871,5.12583 l 0.71329,1.52205 v 65.74896 65.74896 l -0.71329,1.52205 c -0.9979,2.12938 -3.03152,4.19407 -5.04871,5.12582 l -1.64633,0.76046 -65.21979,0.0494 c -51.09285,0.0387 -65.48174,-0.0215 -66.42911,-0.27778 z m 132.49692,-1.26982 c 2.08892,-0.78156 4.28051,-2.97315 5.06207,-5.06207 l 0.5722,-1.52933 V 202.125 137.05735 l -0.5722,-1.52933 c -0.78255,-2.09158 -2.9729,-4.28042 -5.06764,-5.06416 l -1.5349,-0.57428 -65.40273,0.0682 -65.40274,0.0682 -1.50881,0.74093 c -1.88919,0.92772 -3.71176,2.91812 -4.43009,4.83804 -0.54272,1.45055 -0.54339,1.53251 -0.54339,66.51999 0,64.77552 0.002,65.0741 0.53799,66.50556 0.60212,1.60929 2.17406,3.54433 3.59033,4.41964 2.15893,1.33428 -1.27111,1.26945 68.15915,1.28835 l 65.01143,0.0177 z m -126.6574,-1.54447 c -4.36692,-0.11802 -5.01043,-0.1942 -5.96712,-0.70637 -1.48631,-0.79572 -2.71599,-2.09795 -3.45538,-3.65925 l -0.62649,-1.32292 V 202.125 137.69896 l 0.61735,-1.32292 c 0.71445,-1.53097 2.39491,-3.15031 4.01115,-3.86525 1.09319,-0.48357 3.03246,-0.49842 65.47387,-0.50144 l 64.34731,-0.003 1.23351,0.54432 c 1.62761,0.71822 3.13437,2.19302 3.90839,3.82549 l 0.62724,1.32292 v 64.42604 64.42604 l -0.62724,1.32292 c -0.78315,1.65172 -2.277,3.10129 -3.9978,3.87928 l -1.32291,0.59811 -59.66354,0.0103 c -32.81495,0.006 -61.8662,-0.0493 -64.55834,-0.12204 z M 161.46458,202.125 V 145.50417 H 104.84375 48.22292 v 56.62083 56.62083 h 56.62083 56.62083 z"
       id="path35695"
       inkscape:export-filename=".\ATM.svg"
       inkscape:export-xdpi="96"
       inkscape:export-ydpi="96"
       sodipodi:nodetypes="sscccsscccsscccsscssssscccsscccssscsscscsscccssccsscccssccccccccccccc" /><path
       style="fill:#0000fe;fill-opacity:1;stroke:none;stroke-width:2.4552;stroke-linecap:square;stroke-linejoin:miter;stroke-miterlimit:4;stroke-dasharray:none;stroke-opacity:0.992157"
       d="m 151.51781,1027.0249 c -6.04489,-1.4272 -10.45896,-4.9342 -15.42529,-12.2554 l -4.22244,-6.2246 V 764.04454 519.54415 l 3.82818,-6.03642 c 2.10551,-3.32003 6.30134,-7.67317 9.32407,-9.67365 l 5.49589,-3.63723 245.01622,-0.35716 245.01622,-0.35716 6.16933,3.91248 c 3.47071,2.20105 7.86665,6.58883 10.04949,10.03082 l 3.88013,6.11832 v 244.39286 244.39289 l -3.88013,6.1183 c -2.17042,3.4224 -6.57604,7.828 -9.99845,9.9984 l -6.11833,3.8802 -242.3736,-0.133 c -133.30547,-0.073 -244.34805,-0.5992 -246.76129,-1.1689 z M 611.27953,763.93701 V 548.91732 H 396.25984 181.24016 v 215.01969 215.01968 h 215.01968 215.01969 z"
       id="path35697"
       transform="scale(0.26458333)" /><path
       style="fill:#000000;stroke-width:0.632503"
       d="m 74.132965,240.70081 c -1.219645,-1.21964 -1.269714,-2.20058 -1.396297,-27.35576 -0.09969,-19.81202 -0.213854,-23.15483 -0.474377,-13.89076 -0.363867,12.93892 -0.481263,13.38387 -3.537229,13.40669 -2.638193,0.0197 -2.814639,-0.89076 -2.814639,-14.52365 0,-17.8517 -0.109095,-17.72432 15.180077,-17.72432 15.28917,0 15.18008,-0.12738 15.18008,17.72432 0,9.2797 -0.21785,13.23318 -0.759007,13.77434 -1.014539,1.01454 -3.974195,0.96617 -4.841715,-0.0791 -0.435885,-0.52521 -0.765522,-5.30723 -0.882903,-12.80819 -0.103024,-6.58353 -0.2518,-0.35282 -0.330615,13.84603 -0.08458,15.2378 -0.395633,26.28758 -0.759117,26.96675 -0.900771,1.68311 -3.645711,2.18294 -5.459937,0.99422 l -1.514283,-0.99221 v -15.16549 c 0,-9.68866 -0.228421,-15.1655 -0.632503,-15.1655 -0.404058,0 -0.632503,5.46974 -0.632503,15.14422 0,14.93258 -0.01964,15.15797 -1.405742,16.12883 -1.891996,1.3252 -3.39963,1.23927 -4.91929,-0.28039 z m 47.219515,-0.52418 c -0.89091,-0.98445 -1.04678,-2.82098 -1.04678,-12.33381 v -11.17713 h -1.60111 c -0.91257,0 -1.77553,-0.45453 -2.0067,-1.05695 -0.22307,-0.58132 0.22894,-4.31277 1.00447,-8.2921 0.77553,-3.97933 1.30551,-7.33969 1.17773,-7.46748 -0.12779,-0.12778 -0.74957,1.2555 -1.38175,3.07395 -1.74326,5.01451 -2.63312,6.15254 -4.81082,6.15254 -1.39971,0 -2.08176,-0.40663 -2.60379,-1.55235 -0.60209,-1.32144 -0.16636,-3.08551 2.92929,-11.85944 4.35539,-12.34439 4.31737,-12.26779 6.85867,-13.81733 1.62508,-0.99088 3.19099,-1.22925 8.08779,-1.23116 7.25383,-0.003 9.61957,0.70797 11.23044,3.37422 1.61313,2.67002 7.68091,20.13407 7.68091,22.10693 0,2.0231 -1.37458,3.12211 -3.58556,2.86671 -1.54258,-0.17819 -1.98186,-0.7608 -3.49197,-4.63135 -2.09214,-5.36234 -2.15465,-4.86475 -0.47937,3.81631 1.37635,7.13209 1.15261,8.5175 -1.37558,8.5175 -1.11593,0 -1.18757,0.65923 -1.18757,10.92807 0,12.216 -0.41979,13.73955 -3.78571,13.73955 -3.56239,0 -3.80433,-0.84757 -3.80433,-13.32774 0,-7.13825 -0.23435,-11.33988 -0.6325,-11.33988 -0.39804,0 -0.6325,4.18401 -0.6325,11.28703 0,10.13141 -0.11843,11.3942 -1.15669,12.33381 -1.5276,1.38246 -4.08319,1.33032 -5.38657,-0.1099 z m -19.73185,-3.42896 c -0.16652,-0.43485 -0.22875,-15.44889 -0.13827,-33.36455 l 0.16449,-32.57391 1.82888,-0.20878 c 1.03878,-0.11858 2.05928,0.15467 2.36221,0.63251 0.60198,0.94959 0.76429,63.75296 0.16877,65.30487 -0.46034,1.19962 -3.94323,1.36626 -4.38608,0.20986 z M 79.372706,178.88828 c -0.770848,-0.14031 -2.122824,-1.1123 -3.00439,-2.15998 -2.734443,-3.2497 -1.817814,-7.91893 1.901022,-9.68363 2.56601,-1.21765 3.076314,-1.21765 5.642324,0 6.71588,3.18689 2.880691,13.19415 -4.538956,11.84361 z m 45.850794,-0.49497 c -5.39158,-3.02369 -3.18098,-11.69537 2.98142,-11.69537 2.99858,0 4.50595,0.85426 5.74903,3.2581 2.808,5.43007 -3.39809,11.42775 -8.73045,8.43727 z"
       id="path35964" /></g></svg>
