<?xml version="1.0" encoding="UTF-8" standalone="no"?>
<!-- Created with Inkscape (http://www.inkscape.org/) -->

<svg
   width="146.31458mm"
   height="146.37469mm"
   viewBox="0 0 146.31458 146.37469"
   version="1.1"
   id="svg5"
   xml:space="preserve"
   inkscape:export-filename="inflation-station.svg"
   inkscape:export-xdpi="96"
   inkscape:export-ydpi="96"
   xmlns:inkscape="http://www.inkscape.org/namespaces/inkscape"
   xmlns:sodipodi="http://sodipodi.sourceforge.net/DTD/sodipodi-0.dtd"
   xmlns="http://www.w3.org/2000/svg"
   xmlns:svg="http://www.w3.org/2000/svg"><sodipodi:namedview
     id="namedview7"
     pagecolor="#ffffff"
     bordercolor="#000000"
     borderopacity="0.25"
     inkscape:showpageshadow="2"
     inkscape:pageopacity="0.0"
     inkscape:pagecheckerboard="0"
     inkscape:deskcolor="#d1d1d1"
     inkscape:document-units="mm"
     showgrid="true"><inkscape:grid
       type="xygrid"
       id="grid337" /></sodipodi:namedview><defs
     id="defs2" /><g
     inkscape:label="Calque 1"
     inkscape:groupmode="layer"
     id="layer1"
     transform="translate(-31.686459,-128.96771)"><path
       style="fill:#000000;stroke-width:0.264583"
       d="m 38.94381,275.05387 c -2.72541,-0.73727 -5.27123,-2.94314 -6.55345,-5.67836 l -0.7039,-1.50155 V 202.125 136.37604 l 0.71329,-1.52205 c 0.9979,-2.12938 3.03152,-4.19407 5.04871,-5.12583 l 1.64633,-0.76045 h 65.74896 65.74896 l 1.64633,0.76045 c 2.01719,0.93176 4.05081,2.99645 5.04871,5.12583 l 0.71329,1.52205 v 65.74896 65.74896 l -0.71329,1.52205 c -0.9979,2.12938 -3.03152,4.19407 -5.04871,5.12582 l -1.64633,0.76046 -65.21979,0.0494 c -51.09285,0.0387 -65.48174,-0.0215 -66.42911,-0.27778 z m 132.49692,-1.26982 c 2.08892,-0.78156 4.28051,-2.97315 5.06207,-5.06207 l 0.5722,-1.52933 V 202.125 137.05735 l -0.5722,-1.52933 c -0.78255,-2.09158 -2.9729,-4.28042 -5.06764,-5.06416 l -1.5349,-0.57428 -65.40273,0.0682 -65.40274,0.0682 -1.50881,0.74093 c -1.88919,0.92772 -3.71176,2.91812 -4.43009,4.83804 -0.54272,1.45055 -0.54339,1.53251 -0.54339,66.51999 0,64.77552 0.002,65.0741 0.53799,66.50556 0.60212,1.60929 2.17406,3.54433 3.59033,4.41964 2.15893,1.33428 -1.27111,1.26945 68.15915,1.28835 l 65.01143,0.0177 z m -126.6574,-1.54447 c -4.36692,-0.11802 -5.01043,-0.1942 -5.96712,-0.70637 -1.48631,-0.79572 -2.71599,-2.09795 -3.45538,-3.65925 l -0.62649,-1.32292 V 202.125 137.69896 l 0.61735,-1.32292 c 0.71445,-1.53097 2.39491,-3.15031 4.01115,-3.86525 1.09319,-0.48357 3.03246,-0.49842 65.47387,-0.50144 l 64.34731,-0.003 1.23351,0.54432 c 1.62761,0.71822 3.13437,2.19302 3.90839,3.82549 l 0.62724,1.32292 v 64.42604 64.42604 l -0.62724,1.32292 c -0.78315,1.65172 -2.277,3.10129 -3.9978,3.87928 l -1.32291,0.59811 -59.66354,0.0103 c -32.81495,0.006 -61.8662,-0.0493 -64.55834,-0.12204 z M 161.46458,202.125 V 145.50417 H 104.84375 48.22292 v 56.62083 56.62083 h 56.62083 56.62083 z"
       id="path35695"
       inkscape:export-filename=".\relay.svg"
       inkscape:export-xdpi="96"
       inkscape:export-ydpi="96"
       sodipodi:nodetypes="sscccsscccsscccsscssssscccsscccssscsscscsscccssccsscccssccccccccccccc" /><path
       style="fill:#0000fe;fill-opacity:1;stroke:none;stroke-width:2.4552;stroke-linecap:square;stroke-linejoin:miter;stroke-miterlimit:4;stroke-dasharray:none;stroke-opacity:0.992157"
       d="m 151.51781,1027.0249 c -6.04489,-1.4272 -10.45896,-4.9342 -15.42529,-12.2554 l -4.22244,-6.2246 V 764.04454 519.54415 l 3.82818,-6.03642 c 2.10551,-3.32003 6.30134,-7.67317 9.32407,-9.67365 l 5.49589,-3.63723 245.01622,-0.35716 245.01622,-0.35716 6.16933,3.91248 c 3.47071,2.20105 7.86665,6.58883 10.04949,10.03082 l 3.88013,6.11832 v 244.39286 244.39289 l -3.88013,6.1183 c -2.17042,3.4224 -6.57604,7.828 -9.99845,9.9984 l -6.11833,3.8802 -242.3736,-0.133 c -133.30547,-0.073 -244.34805,-0.5992 -246.76129,-1.1689 z M 611.27953,763.93701 V 548.91732 H 396.25984 181.24016 v 215.01969 215.01968 h 215.01968 215.01969 z"
       id="path35697"
       transform="scale(0.26458333)" /><path
       style="fill:#000000;stroke-width:0.742312"
       d="m 100.82524,239.53838 c -2.69393,-2.26679 -3.45629,-5.57151 -2.05756,-8.91914 1.08167,-2.58881 4.37526,-4.82818 7.10112,-4.82818 2.77866,0 6.01929,2.23901 7.14699,4.938 3.11278,7.44992 -5.98923,14.02738 -12.19055,8.80932 z m -14.66149,-17.7963 c -3.47259,-3.47259 -2.09611,-6.49645 5.12366,-11.25569 9.62366,-6.34388 24.89926,-4.9554 33.31618,3.02829 2.67286,2.53528 3.2792,5.11301 1.75125,7.44497 -1.73332,2.64539 -4.3673,3.07939 -7.29546,1.20206 -10.39714,-6.66594 -16.0559,-6.91164 -24.59416,-1.06787 -4.30712,2.94791 -5.87904,3.07066 -8.30147,0.64824 z m -12.6193,-12.61932 c -1.00213,-1.00212 -1.82204,-2.32256 -1.82204,-2.93432 0,-4.72069 9.38132,-11.82511 20.78476,-15.74017 3.22107,-1.10587 6.11933,-1.3919 13.73278,-1.35528 8.48852,0.0408 10.25242,0.27517 14.6544,1.94695 9.67261,3.67344 19.12084,10.94994 19.12084,14.72583 0,2.07765 -3.23603,5.17903 -5.40386,5.17903 -0.96787,0 -3.7389,-1.53804 -6.15782,-3.41786 -7.68208,-5.97 -13.5853,-8.08265 -22.58471,-8.08265 -8.99941,0 -14.90263,2.11265 -22.58471,8.08265 -4.97605,3.86705 -7.11753,4.21793 -9.73964,1.59582 z M 60.20787,196.08897 c -2.04098,-2.25528 -1.7134,-5.57913 0.81287,-8.24724 5.63043,-5.94665 17.55262,-12.77116 27.15928,-15.54656 7.7998,-2.2534 22.05784,-2.77569 30.36259,-1.11223 10.82331,2.16793 22.47064,7.92509 30.20327,14.92917 3.37269,3.05489 4.13606,4.18344 4.13606,6.1145 0,3.05516 -2.09841,5.35656 -4.88409,5.35656 -1.54961,0 -3.59455,-1.17445 -7.07489,-4.06327 -16.91132,-14.03709 -39.08423,-16.86513 -58.43703,-7.45333 -3.67443,1.78698 -8.90509,5.10926 -11.62368,7.38283 -5.45348,4.56078 -8.28161,5.26143 -10.65438,2.63957 z"
       id="path37210" /></g></svg>
