<?xml version="1.0" encoding="UTF-8" standalone="no"?>
<!-- Created with Inkscape (http://www.inkscape.org/) -->

<svg
   width="64.539047mm"
   height="109.30783mm"
   viewBox="0 0 64.539047 109.30783"
   version="1.1"
   id="svg5"
   xml:space="preserve"
   xmlns="http://www.w3.org/2000/svg"
   xmlns:svg="http://www.w3.org/2000/svg"><defs
     id="defs2" /><g
     id="layer1"
     transform="translate(-62.261728,-30.25233)"><g
       id="g1804"
       transform="translate(0.40545,-7.2299909)"><path
         style="fill:#7bb4e3;fill-opacity:1;stroke-width:0.264583"
         d="m 90.516035,140.24172 c -15.61005,-29.648 -26.20623,-54.403131 -28.24467,-65.986055 -1.720406,-9.775831 1.98927,-20.509713 9.60184,-27.782716 12.9903,-12.41086 33.278295,-11.912555 45.707995,1.122659 7.7833,8.16247 10.58628,19.119352 7.70996,30.138301 -2.86716,10.983818 -9.7401,27.327161 -20.80683,49.477081 -4.896745,9.8008 -10.046575,19.57917 -10.311445,19.57917 -0.11496,0 -1.76054,-2.9468 -3.65685,-6.54844 z m 9.730205,-46.777387 c 8.86654,-2.382057 15.63273,-9.12903 18.03061,-17.979382 0.84982,-3.136601 0.84741,-9.151274 -0.005,-12.302993 -1.19586,-4.421989 -3.19743,-7.949876 -6.35513,-11.201266 -3.30921,-3.407404 -7.28669,-5.70464 -11.85541,-6.847207 -3.371975,-0.843283 -8.831505,-0.836095 -11.985975,0.01578 -2.53707,0.685143 -5.94684,2.206423 -7.85106,3.502777 -1.83986,1.252528 -4.98306,4.345262 -6.3386,6.23681 -5.58092,7.787762 -6.07143,18.700325 -1.21121,26.946099 3.67088,6.227966 10.18621,10.809087 17.12066,12.038042 2.10139,0.372417 8.47074,0.123362 10.451035,-0.40866 z"
         id="path1786" /><path
         style="fill:#000000;stroke-width:0.145711"
         d="m 80.661516,70.131564 v -15.2344 l 0.36659,-0.74577 c 0.43773,-0.89047 1.15737,-1.43871 2.17956,-1.66045 0.48736,-0.10572 2.89035,-0.14503 7.09133,-0.116 6.18628,0.0428 6.36948,0.0522 6.93307,0.35973 0.67084,0.36598 1.08687,0.79665 1.46646,1.51804 0.25762,0.48959 0.27206,1.17718 0.31049,14.78087 l 0.0403,14.2674 h 2.796534 c 2.66649,0 2.81941,-0.0155 3.28829,-0.33302 0.94836,-0.64224 0.99779,-0.90004 0.99804,-5.20522 l 2.3e-4,-3.8511 h -0.43882 c -1.00232,0 -2.1847,-0.83817 -2.7939,-1.98056 -0.28688,-0.53795 -0.31683,-0.84041 -0.3596,-3.63104 l -0.0467,-3.0442 h 0.80644 0.80645 l 0.002,-0.84357 c 0.003,-0.92915 0.065,-1.08645 0.53097,-1.33509 0.45177,-0.24106 0.59323,-0.21379 0.99296,0.19143 0.29174,0.29575 0.35522,0.50549 0.35522,1.17367 v 0.81356 h 1.08541 1.0854 v -0.86977 c 0,-0.91286 0.16374,-1.22407 0.74186,-1.41008 0.1996,-0.0642 0.43828,0.002 0.68656,0.18879 0.32783,0.24741 0.38657,0.41227 0.42369,1.18915 l 0.0431,0.90191 h 0.80391 0.80392 l -0.0602,2.97085 c -0.0697,3.43577 -0.17969,3.86395 -1.23469,4.80536 -0.63224,0.56416 -1.35409,0.87708 -2.02719,0.87877 l -0.32562,5.5e-4 v 3.89617 c 0,2.29726 -0.064,4.15371 -0.15589,4.52374 -0.24129,0.97144 -1.08913,1.99294 -2.08101,2.50727 l -0.8538,0.44273 -12.130784,0.0422 -12.13077,0.0422 z m 10.83092,7.77789 2.61316,-4.14452 h -1.94263 -1.94263 l 0.0663,-0.40345 c 0.13959,-0.85 0.52857,-5.30635 0.48198,-5.52192 -0.0269,-0.12459 -1.20607,1.6693 -2.62033,3.98641 l -2.57138,4.21294 1.87418,0.0409 1.87419,0.0409 -0.0645,0.47261 c -0.26408,1.93536 -0.55902,5.65214 -0.43817,5.52183 0.0312,-0.0336 1.23261,-1.92616 2.66986,-4.20564 z m 4.36478,-16.90815 v -4.40125 h -6.07828 -6.07828 v 4.40125 4.40125 h 6.07828 6.07828 z"
         id="path426" /></g></g></svg>
