<?xml version="1.0" encoding="UTF-8" standalone="no"?>
<!-- Created with Inkscape (http://www.inkscape.org/) -->

<svg
   width="64.539062mm"
   height="109.30783mm"
   viewBox="0 0 64.539062 109.30783"
   version="1.1"
   id="svg5"
   xml:space="preserve"
   xmlns:inkscape="http://www.inkscape.org/namespaces/inkscape"
   xmlns:sodipodi="http://sodipodi.sourceforge.net/DTD/sodipodi-0.dtd"
   xmlns="http://www.w3.org/2000/svg"
   xmlns:svg="http://www.w3.org/2000/svg"><sodipodi:namedview
     id="namedview7"
     pagecolor="#ffffff"
     bordercolor="#000000"
     borderopacity="0.25"
     inkscape:showpageshadow="2"
     inkscape:pageopacity="0.0"
     inkscape:pagecheckerboard="0"
     inkscape:deskcolor="#d1d1d1"
     inkscape:document-units="mm"
     showgrid="true"><inkscape:grid
       type="xygrid"
       id="grid337" /></sodipodi:namedview><defs
     id="defs2" /><g
     inkscape:label="Calque 1"
     inkscape:groupmode="layer"
     id="layer1"
     transform="translate(-76.355471,-60.502333)"><g
       id="g1804"
       transform="translate(14.499196,23.020009)"
       inkscape:export-filename=".\marker.svg"
       inkscape:export-xdpi="96"
       inkscape:export-ydpi="96"><path
         style="fill:#ffbf47;fill-opacity:1;stroke-width:0.264583"
         d="m 90.516035,140.24172 c -15.61005,-29.648 -26.20623,-54.403131 -28.24467,-65.986055 -1.720406,-9.775831 1.98927,-20.509713 9.60184,-27.782716 12.9903,-12.41086 33.278295,-11.912555 45.707995,1.122659 7.7833,8.16247 10.58628,19.119352 7.70996,30.138301 -2.86716,10.983818 -9.7401,27.327161 -20.80683,49.477081 -4.896745,9.8008 -10.046575,19.57917 -10.311445,19.57917 -0.11496,0 -1.76054,-2.9468 -3.65685,-6.54844 z m 9.730205,-46.777387 c 8.86654,-2.382057 15.63273,-9.12903 18.03061,-17.979382 0.84982,-3.136601 0.84741,-9.151274 -0.005,-12.302993 -1.19586,-4.421989 -3.19743,-7.949876 -6.35513,-11.201266 -3.30921,-3.407404 -7.28669,-5.70464 -11.85541,-6.847207 -3.371975,-0.843283 -8.831505,-0.836095 -11.985975,0.01578 -2.53707,0.685143 -5.94684,2.206423 -7.85106,3.502777 -1.83986,1.252528 -4.98306,4.345262 -6.3386,6.23681 -5.58092,7.787762 -6.07143,18.700325 -1.21121,26.946099 3.67088,6.227966 10.18621,10.809087 17.12066,12.038042 2.10139,0.372417 8.47074,0.123362 10.451035,-0.40866 z"
         id="path1786"
         inkscape:export-filename="selected-marker.svg"
         inkscape:export-xdpi="96"
         inkscape:export-ydpi="96" /><path
         style="fill:#000000;stroke-width:0.174108"
         d="m 80.962535,84.640998 c 0.191597,-0.810162 0.89274,-1.582946 1.639065,-1.806551 l 0.691858,-0.207285 V 69.367026 c 0,-14.749541 -0.02889,-14.357759 1.161624,-15.748619 0.357393,-0.41753 1.041268,-0.939568 1.527375,-1.165926 0.874736,-0.407325 0.920365,-0.409866 7.322232,-0.407756 5.889133,0.0019 6.502755,0.02972 7.149831,0.323611 1.06605,0.484203 1.89983,1.305313 2.36062,2.324752 l 0.41372,0.915331 0.0526,8.457193 0.0526,8.457186 0.88566,0.226987 c 1.03689,0.265746 2.08765,1.135632 2.61106,2.161594 0.21632,0.424032 0.40218,1.238741 0.47446,2.079732 0.0991,1.152656 0.1858,1.43686 0.52157,1.708752 0.52457,0.42477 1.07719,0.413122 1.64652,-0.03474 l 0.45875,-0.360853 v -7.022176 -7.022215 l -0.75218,-0.440806 c -1.41268,-0.82789 -2.19113,-2.556541 -1.84501,-4.097043 0.17019,-0.757472 0.16771,-0.763401 -0.70531,-1.68649 -0.94477,-0.998962 -1.09805,-1.562902 -0.55769,-2.05191 0.68366,-0.61871 1.05711,-0.397435 3.55784,2.108094 l 2.39165,2.396247 v 8.886615 8.886621 l -0.45667,0.916417 c -1.65717,3.325515 -6.50765,2.11045 -6.50765,-1.630195 0,-1.543035 -0.68807,-2.700021 -1.60572,-2.700021 -0.28739,0 -0.30948,0.279532 -0.30948,3.917436 0,3.822005 0.009,3.917441 0.35381,3.917441 1.01178,0 2.06369,0.887029 2.3228,1.958718 l 0.11576,0.478802 H 93.391742 80.849305 Z M 99.65964,60.483458 c 0,-4.033515 -0.01895,-4.284606 -0.348212,-4.613873 -0.333959,-0.333959 -0.580365,-0.348219 -6.018183,-0.348219 -3.575501,0 -5.794371,0.06658 -6.006742,0.180239 -0.319417,0.170948 -0.336769,0.408654 -0.336769,4.613867 v 4.433641 h 6.354955 6.354951 z"
         id="path1800" /></g></g></svg>
