<?xml version="1.0" encoding="UTF-8" standalone="no"?>
<!-- Created with Inkscape (http://www.inkscape.org/) -->

<svg
   width="64.539055mm"
   height="109.30784mm"
   viewBox="0 0 64.539055 109.30784"
   version="1.1"
   id="svg5"
   xml:space="preserve"
   xmlns:inkscape="http://www.inkscape.org/namespaces/inkscape"
   xmlns:sodipodi="http://sodipodi.sourceforge.net/DTD/sodipodi-0.dtd"
   xmlns="http://www.w3.org/2000/svg"
   xmlns:svg="http://www.w3.org/2000/svg"><sodipodi:namedview
     id="namedview7"
     pagecolor="#ffffff"
     bordercolor="#000000"
     borderopacity="0.25"
     inkscape:showpageshadow="2"
     inkscape:pageopacity="0.0"
     inkscape:pagecheckerboard="0"
     inkscape:deskcolor="#d1d1d1"
     inkscape:document-units="mm"
     showgrid="true"><inkscape:grid
       type="xygrid"
       id="grid337" /></sodipodi:namedview><defs
     id="defs2" /><g
     inkscape:label="Calque 1"
     inkscape:groupmode="layer"
     id="layer1"
     transform="translate(-29.200026,-40.919822)"><g
       id="g1804"
       transform="translate(-32.65625,1.375)"
       inkscape:export-filename=".\marker.svg"
       inkscape:export-xdpi="96"
       inkscape:export-ydpi="96"><path
         style="fill:#4787ff;fill-opacity:1;stroke-width:0.264583"
         d="m 90.516035,142.30422 c -15.61005,-29.648 -26.20623,-54.403131 -28.24467,-65.986055 -1.720406,-9.775831 1.98927,-20.509713 9.60184,-27.782716 12.9903,-12.41086 33.278295,-11.912555 45.707995,1.122659 7.7833,8.16247 10.58628,19.119352 7.70996,30.138301 -2.86716,10.983818 -9.7401,27.327161 -20.80683,49.477081 -4.896745,9.8008 -10.046575,19.57917 -10.311445,19.57917 -0.11496,0 -1.76054,-2.9468 -3.65685,-6.54844 z m 9.730205,-46.777387 c 8.86654,-2.382057 15.63273,-9.12903 18.03061,-17.979382 0.84982,-3.136601 0.84741,-9.151274 -0.005,-12.302993 -1.19586,-4.421989 -3.19743,-7.949876 -6.35513,-11.201266 -3.30921,-3.407404 -7.28669,-5.70464 -11.85541,-6.847207 -3.371975,-0.843283 -8.831505,-0.836095 -11.985975,0.01578 -2.53707,0.685143 -5.94684,2.206423 -7.85106,3.502777 -1.83986,1.252528 -4.98306,4.345262 -6.3386,6.23681 -5.58092,7.787762 -6.07143,18.700325 -1.21121,26.946099 3.67088,6.227966 10.18621,10.809087 17.12066,12.038042 2.10139,0.372417 8.47074,0.123362 10.451035,-0.40866 z"
         id="path1786"
         inkscape:export-filename="user-marker.svg"
         inkscape:export-xdpi="96"
         inkscape:export-ydpi="96" /><path
         style="fill:#000000;stroke-width:0.0586314"
         d="m 80.506099,85.476991 c -0.346047,-0.08096 -0.652548,-0.320312 -0.79985,-0.624602 -0.124584,-0.257352 -0.126761,-0.290436 -0.05627,-0.855265 0.301336,-2.414546 1.51807,-5.18556 3.208394,-7.306877 0.501953,-0.62994 1.601454,-1.728406 2.250192,-2.24808 0.590993,-0.473415 1.712311,-1.231973 2.179558,-1.474439 l 0.332663,-0.172628 0.312284,0.293086 c 1.370142,1.285906 3.147225,2.13741 5.208021,2.495481 0.571343,0.09927 2.360236,0.09927 2.931578,0 2.060798,-0.358071 3.837876,-1.209575 5.208021,-2.495481 l 0.31228,-0.293086 0.33266,0.172628 c 0.47045,0.244123 1.5918,1.003361 2.17911,1.475415 0.65562,0.526964 1.75485,1.62397 2.25164,2.247104 1.00158,1.256299 1.98386,2.998963 2.48265,4.404478 0.31113,0.876732 0.63262,2.164234 0.72475,2.902399 0.0705,0.564829 0.0683,0.597913 -0.0562,0.855265 -0.15144,0.312825 -0.45496,0.542798 -0.82906,0.628158 -0.34488,0.07872 -27.835663,0.07523 -28.172363,-0.0035 z m 13.19504,-11.133985 c -0.959204,-0.109425 -1.896777,-0.37798 -2.758732,-0.790217 -3.250811,-1.554731 -5.199076,-4.919772 -4.894716,-8.454153 0.364581,-4.23365 3.719589,-7.563404 7.927124,-7.867461 4.708449,-0.34024 8.784935,3.149111 9.191255,7.867461 0.19802,2.299568 -0.55382,4.57337 -2.0977,6.344094 -1.249646,1.433234 -3.116459,2.490072 -4.969262,2.81317 -0.647424,0.1129 -1.80368,0.154904 -2.397969,0.08714 z"
         id="path10560" /></g></g></svg>
